<ttFont>
    <TTGlyph name="A" xMin="-7" yMin="-28" xMax="973" yMax="1436">
      <contour>
        <pt x="973" y="162" on="1"/>
        <pt x="959" y="-28" on="1"/>
        <pt x="553" y="-18" on="1"/>
        <pt x="543" y="176" on="1"/>
        <pt x="667" y="172" on="1"/>
        <pt x="615" y="464" on="1"/>
        <pt x="351" y="452" on="1"/>
        <pt x="309" y="192" on="1"/>
        <pt x="425" y="182" on="1"/>
        <pt x="409" y="2" on="1"/>
        <pt x="3" y="2" on="1"/>
        <pt x="-7" y="196" on="1"/>
        <pt x="117" y="192" on="1"/>
        <pt x="335" y="1260" on="1"/>
        <pt x="233" y="1256" on="1"/>
        <pt x="223" y="1426" on="1"/>
        <pt x="733" y="1436" on="1"/>
        <pt x="723" y="1276" on="1"/>
        <pt x="623" y="1272" on="1"/>
        <pt x="849" y="172" on="1"/>
      </contour>
      <contour>
        <pt x="587" y="620" on="1"/>
        <pt x="479" y="1234" on="1"/>
        <pt x="379" y="620" on="1"/>
      </contour>
    </TTGlyph>
    <TTGlyph name="AE" xMin="-38" yMin="-12" xMax="1366" yMax="1426">
      <contour>
        <pt x="654" y="464" on="1"/>
        <pt x="388" y="452" on="1"/>
        <pt x="302" y="192" on="1"/>
        <pt x="414" y="182" on="1"/>
        <pt x="408" y="2" on="1"/>
        <pt x="-38" y="2" on="1"/>
        <pt x="-34" y="196" on="1"/>
        <pt x="110" y="192" on="1"/>
        <pt x="512" y="1260" on="1"/>
        <pt x="412" y="1256" on="1"/>
        <pt x="412" y="1426" on="1"/>
        <pt x="1356" y="1426" on="1"/>
        <pt x="1366" y="1038" on="1"/>
        <pt x="1218" y="1028" on="1"/>
        <pt x="1198" y="1234" on="1"/>
        <pt x="834" y="1226" on="1"/>
        <pt x="830" y="780" on="1"/>
        <pt x="1134" y="780" on="1"/>
        <pt x="1134" y="636" on="1"/>
        <pt x="828" y="618" on="1"/>
        <pt x="824" y="172" on="1"/>
        <pt x="1198" y="186" on="1"/>
        <pt x="1198" y="406" on="1"/>
        <pt x="1346" y="406" on="1"/>
        <pt x="1356" y="8" on="1"/>
        <pt x="542" y="-12" on="1"/>
        <pt x="536" y="172" on="1"/>
        <pt x="654" y="172" on="1"/>
      </contour>
      <contour>
        <pt x="652" y="1226" on="1"/>
        <pt x="650" y="1226" on="1"/>
        <pt x="446" y="620" on="1"/>
        <pt x="654" y="620" on="1"/>
        <pt x="654" y="749" on="0"/>
        <pt x="654" y="911" on="0"/>
        <pt x="654" y="1011" on="0"/>
        <pt x="654" y="1069" on="0"/>
        <pt x="653" y="1117" on="0"/>
        <pt x="652" y="1175" on="0"/>
      </contour>
    </TTGlyph>
    <TTGlyph name="AEacute" xMin="-38" yMin="-12" xMax="1366" yMax="1764">
      <component glyphName="AE" x="0" y="0" flags="0x204"/>
      <component glyphName="acute" x="754" y="370" flags="0x4"/>
    </TTGlyph>
    <TTGlyph name="Aacute" xMin="-7" yMin="-28" xMax="973" yMax="1764">
      <component glyphName="A" x="0" y="0" flags="0x204"/>
      <component glyphName="acute" x="445" y="370" flags="0x4"/>
    </TTGlyph>
    <TTGlyph name="Abreve" xMin="-7" yMin="-28" xMax="973" yMax="1762">
      <component glyphName="A" x="0" y="0" flags="0x204"/>
      <component glyphName="breve" x="253" y="350" flags="0x4"/>
    </TTGlyph>
    <TTGlyph name="Acircumflex" xMin="-7" yMin="-28" xMax="973" yMax="1784">
      <component glyphName="A" x="0" y="0" flags="0x204"/>
      <component glyphName="circumflex" x="251" y="370" flags="0x4"/>
    </TTGlyph>
    <TTGlyph name="Adieresis" xMin="-7" yMin="-28" xMax="973" yMax="1696">
      <component glyphName="A" x="0" y="0" flags="0x204"/>
      <component glyphName="dieresis" x="241" y="350" flags="0x4"/>
    </TTGlyph>
    <TTGlyph name="Agrave" xMin="-7" yMin="-28" xMax="973" yMax="1764">
      <component glyphName="A" x="0" y="0" flags="0x204"/>
      <component glyphName="grave" x="225" y="370" flags="0x4"/>
    </TTGlyph>
    <TTGlyph name="Amacron" xMin="-7" yMin="-28" xMax="973" yMax="1638">
      <component glyphName="A" x="0" y="0" flags="0x204"/>
      <component glyphName="macron" x="274" y="248" flags="0x4"/>
    </TTGlyph>
    <TTGlyph name="Aogonek" xMin="-7" yMin="-322" xMax="973" yMax="1436">
      <contour>
        <pt x="906" y="-308" on="1"/>
        <pt x="885" y="-314" on="0"/>
        <pt x="843" y="-322" on="0"/>
        <pt x="820" y="-322" on="1"/>
        <pt x="782" y="-322" on="0"/>
        <pt x="718" y="-299" on="0"/>
        <pt x="673" y="-255" on="0"/>
        <pt x="648" y="-193" on="0"/>
        <pt x="648" y="-154" on="1"/>
        <pt x="648" y="-120" on="0"/>
        <pt x="670" y="-53" on="0"/>
        <pt x="689" y="-21" on="1"/>
        <pt x="553" y="-18" on="1"/>
        <pt x="543" y="176" on="1"/>
        <pt x="667" y="172" on="1"/>
        <pt x="615" y="464" on="1"/>
        <pt x="351" y="452" on="1"/>
        <pt x="309" y="192" on="1"/>
        <pt x="425" y="182" on="1"/>
        <pt x="409" y="2" on="1"/>
        <pt x="3" y="2" on="1"/>
        <pt x="-7" y="196" on="1"/>
        <pt x="117" y="192" on="1"/>
        <pt x="335" y="1260" on="1"/>
        <pt x="233" y="1256" on="1"/>
        <pt x="223" y="1426" on="1"/>
        <pt x="733" y="1436" on="1"/>
        <pt x="723" y="1276" on="1"/>
        <pt x="623" y="1272" on="1"/>
        <pt x="849" y="172" on="1"/>
        <pt x="973" y="162" on="1"/>
        <pt x="959" y="-28" on="1"/>
        <pt x="800" y="-24" on="1"/>
        <pt x="785" y="-50" on="0"/>
        <pt x="766" y="-107" on="0"/>
        <pt x="766" y="-132" on="1"/>
        <pt x="766" y="-167" on="0"/>
        <pt x="795" y="-202" on="0"/>
        <pt x="830" y="-202" on="1"/>
        <pt x="858" y="-202" on="0"/>
        <pt x="882" y="-190" on="1"/>
      </contour>
      <contour>
        <pt x="587" y="620" on="1"/>
        <pt x="479" y="1234" on="1"/>
        <pt x="379" y="620" on="1"/>
      </contour>
    </TTGlyph>
    <TTGlyph name="Aring" xMin="-7" yMin="-28" xMax="973" yMax="1832">
      <component glyphName="A" x="0" y="0" flags="0x204"/>
      <component glyphName="ring" x="301" y="310" flags="0x4"/>
    </TTGlyph>
    <TTGlyph name="Atilde" xMin="-7" yMin="-28" xMax="973" yMax="1706">
      <component glyphName="A" x="0" y="0" flags="0x204"/>
      <component glyphName="tilde" x="239" y="310" flags="0x4"/>
    </TTGlyph>
    <TTGlyph name="B" xMin="64" yMin="-16" xMax="974" yMax="1452">
      <contour>
        <pt x="974" y="404" on="1"/>
        <pt x="974" y="310" on="0"/>
        <pt x="906" y="156" on="0"/>
        <pt x="787" y="45" on="0"/>
        <pt x="627" y="-16" on="0"/>
        <pt x="536" y="-16" on="1"/>
        <pt x="418" y="-16" on="0"/>
        <pt x="184" y="-8" on="0"/>
        <pt x="68" y="-2" on="1"/>
        <pt x="80" y="192" on="1"/>
        <pt x="194" y="188" on="1"/>
        <pt x="192" y="1246" on="1"/>
        <pt x="78" y="1240" on="1"/>
        <pt x="64" y="1434" on="1"/>
        <pt x="165" y="1445" on="0"/>
        <pt x="369" y="1452" on="0"/>
        <pt x="472" y="1452" on="1"/>
        <pt x="566" y="1452" on="0"/>
        <pt x="724" y="1394" on="0"/>
        <pt x="837" y="1285" on="0"/>
        <pt x="900" y="1129" on="0"/>
        <pt x="900" y="1032" on="1"/>
        <pt x="900" y="940" on="0"/>
        <pt x="818" y="803" on="0"/>
        <pt x="740" y="756" on="1"/>
        <pt x="853" y="706" on="0"/>
        <pt x="974" y="529" on="0"/>
      </contour>
      <contour>
        <pt x="716" y="1038" on="1"/>
        <pt x="716" y="1145" on="0"/>
        <pt x="597" y="1264" on="0"/>
        <pt x="490" y="1264" on="1"/>
        <pt x="482" y="1264" on="0"/>
        <pt x="446" y="1264" on="0"/>
        <pt x="408" y="1263" on="0"/>
        <pt x="377" y="1261" on="0"/>
        <pt x="374" y="1260" on="1"/>
        <pt x="370" y="828" on="1"/>
        <pt x="387" y="826" on="0"/>
        <pt x="419" y="826" on="0"/>
        <pt x="436" y="826" on="1"/>
        <pt x="506" y="826" on="1"/>
        <pt x="604" y="828" on="0"/>
        <pt x="716" y="938" on="0"/>
      </contour>
      <contour>
        <pt x="788" y="408" on="1"/>
        <pt x="788" y="469" on="0"/>
        <pt x="757" y="552" on="0"/>
        <pt x="703" y="605" on="0"/>
        <pt x="629" y="633" on="0"/>
        <pt x="544" y="646" on="0"/>
        <pt x="452" y="647" on="0"/>
        <pt x="406" y="646" on="1"/>
        <pt x="372" y="646" on="1"/>
        <pt x="376" y="174" on="1"/>
        <pt x="418" y="174" on="0"/>
        <pt x="504" y="172" on="0"/>
        <pt x="546" y="172" on="1"/>
        <pt x="596" y="172" on="0"/>
        <pt x="684" y="207" on="0"/>
        <pt x="750" y="270" on="0"/>
        <pt x="788" y="357" on="0"/>
      </contour>
    </TTGlyph>
    <TTGlyph name="C" xMin="59" yMin="-12" xMax="983" yMax="1450">
      <contour>
        <pt x="983" y="1444" on="1"/>
        <pt x="961" y="934" on="1"/>
        <pt x="803" y="940" on="1"/>
        <pt x="797" y="975" on="0"/>
        <pt x="778" y="1051" on="0"/>
        <pt x="749" y="1123" on="0"/>
        <pt x="709" y="1188" on="0"/>
        <pt x="655" y="1237" on="0"/>
        <pt x="587" y="1266" on="0"/>
        <pt x="545" y="1266" on="1"/>
        <pt x="482" y="1266" on="0"/>
        <pt x="389" y="1212" on="0"/>
        <pt x="323" y="1122" on="0"/>
        <pt x="280" y="1007" on="0"/>
        <pt x="256" y="887" on="0"/>
        <pt x="247" y="770" on="0"/>
        <pt x="247" y="724" on="1"/>
        <pt x="247" y="681" on="0"/>
        <pt x="255" y="566" on="0"/>
        <pt x="278" y="444" on="0"/>
        <pt x="318" y="325" on="0"/>
        <pt x="381" y="232" on="0"/>
        <pt x="469" y="174" on="0"/>
        <pt x="529" y="174" on="1"/>
        <pt x="602" y="174" on="0"/>
        <pt x="701" y="238" on="0"/>
        <pt x="763" y="339" on="0"/>
        <pt x="792" y="464" on="0"/>
        <pt x="797" y="526" on="1"/>
        <pt x="955" y="526" on="1"/>
        <pt x="955" y="423" on="0"/>
        <pt x="904" y="229" on="0"/>
        <pt x="798" y="79" on="0"/>
        <pt x="635" y="-12" on="0"/>
        <pt x="523" y="-12" on="1"/>
        <pt x="437" y="-12" on="0"/>
        <pt x="301" y="58" on="0"/>
        <pt x="198" y="175" on="0"/>
        <pt x="126" y="326" on="0"/>
        <pt x="80" y="488" on="0"/>
        <pt x="59" y="649" on="0"/>
        <pt x="59" y="716" on="1"/>
        <pt x="59" y="792" on="0"/>
        <pt x="78" y="960" on="0"/>
        <pt x="121" y="1123" on="0"/>
        <pt x="192" y="1271" on="0"/>
        <pt x="298" y="1383" on="0"/>
        <pt x="442" y="1450" on="0"/>
        <pt x="535" y="1450" on="1"/>
        <pt x="629" y="1450" on="0"/>
        <pt x="757" y="1362" on="0"/>
        <pt x="805" y="1284" on="1"/>
        <pt x="807" y="1448" on="1"/>
      </contour>
    </TTGlyph>
    <TTGlyph name="Cacute" xMin="59" yMin="-12" xMax="983" yMax="1784">
      <component glyphName="C" x="0" y="0" flags="0x204"/>
      <component glyphName="acute" x="498" y="390" flags="0x4"/>
    </TTGlyph>
    <TTGlyph name="Ccaron" xMin="59" yMin="-12" xMax="983" yMax="1795">
      <component glyphName="C" x="0" y="0" flags="0x204"/>
      <component glyphName="caron" x="285" y="381" flags="0x4"/>
    </TTGlyph>
    <TTGlyph name="Ccedilla" xMin="59" yMin="-356" xMax="983" yMax="1450">
      <contour>
        <pt x="669" y="-208" on="1"/>
        <pt x="669" y="-243" on="0"/>
        <pt x="642" y="-298" on="0"/>
        <pt x="597" y="-336" on="0"/>
        <pt x="538" y="-356" on="0"/>
        <pt x="505" y="-356" on="1"/>
        <pt x="490" y="-356" on="0"/>
        <pt x="453" y="-352" on="0"/>
        <pt x="416" y="-343" on="0"/>
        <pt x="382" y="-329" on="0"/>
        <pt x="371" y="-318" on="1"/>
        <pt x="419" y="-230" on="1"/>
        <pt x="431" y="-239" on="0"/>
        <pt x="474" y="-258" on="0"/>
        <pt x="491" y="-258" on="1"/>
        <pt x="520" y="-258" on="0"/>
        <pt x="555" y="-236" on="0"/>
        <pt x="555" y="-206" on="1"/>
        <pt x="555" y="-187" on="0"/>
        <pt x="537" y="-160" on="0"/>
        <pt x="509" y="-143" on="0"/>
        <pt x="476" y="-135" on="0"/>
        <pt x="461" y="-136" on="1"/>
        <pt x="453" y="-136" on="1"/>
        <pt x="477" y="-8" on="1"/>
        <pt x="400" y="1" on="0"/>
        <pt x="278" y="79" on="0"/>
        <pt x="185" y="197" on="0"/>
        <pt x="120" y="344" on="0"/>
        <pt x="78" y="499" on="0"/>
        <pt x="59" y="652" on="0"/>
        <pt x="59" y="716" on="1"/>
        <pt x="59" y="792" on="0"/>
        <pt x="78" y="960" on="0"/>
        <pt x="121" y="1123" on="0"/>
        <pt x="192" y="1271" on="0"/>
        <pt x="298" y="1383" on="0"/>
        <pt x="442" y="1450" on="0"/>
        <pt x="535" y="1450" on="1"/>
        <pt x="629" y="1450" on="0"/>
        <pt x="757" y="1362" on="0"/>
        <pt x="805" y="1284" on="1"/>
        <pt x="807" y="1448" on="1"/>
        <pt x="983" y="1444" on="1"/>
        <pt x="961" y="934" on="1"/>
        <pt x="803" y="940" on="1"/>
        <pt x="797" y="975" on="0"/>
        <pt x="778" y="1051" on="0"/>
        <pt x="749" y="1123" on="0"/>
        <pt x="709" y="1188" on="0"/>
        <pt x="655" y="1237" on="0"/>
        <pt x="587" y="1266" on="0"/>
        <pt x="545" y="1266" on="1"/>
        <pt x="482" y="1266" on="0"/>
        <pt x="389" y="1212" on="0"/>
        <pt x="323" y="1122" on="0"/>
        <pt x="280" y="1007" on="0"/>
        <pt x="256" y="887" on="0"/>
        <pt x="247" y="770" on="0"/>
        <pt x="247" y="724" on="1"/>
        <pt x="247" y="681" on="0"/>
        <pt x="255" y="566" on="0"/>
        <pt x="278" y="444" on="0"/>
        <pt x="318" y="325" on="0"/>
        <pt x="381" y="232" on="0"/>
        <pt x="469" y="174" on="0"/>
        <pt x="529" y="174" on="1"/>
        <pt x="602" y="174" on="0"/>
        <pt x="701" y="238" on="0"/>
        <pt x="763" y="339" on="0"/>
        <pt x="792" y="464" on="0"/>
        <pt x="797" y="526" on="1"/>
        <pt x="955" y="526" on="1"/>
        <pt x="955" y="430" on="0"/>
        <pt x="910" y="248" on="0"/>
        <pt x="818" y="101" on="0"/>
        <pt x="677" y="3" on="0"/>
        <pt x="581" y="-8" on="1"/>
        <pt x="549" y="-72" on="1"/>
        <pt x="577" y="-72" on="0"/>
        <pt x="621" y="-95" on="0"/>
        <pt x="652" y="-133" on="0"/>
        <pt x="669" y="-182" on="0"/>
      </contour>
    </TTGlyph>
    <TTGlyph name="Ccircumflex" xMin="59" yMin="-12" xMax="983" yMax="1790">
      <component glyphName="C" x="0" y="0" flags="0x204"/>
      <component glyphName="circumflex" x="285" y="376" flags="0x4"/>
    </TTGlyph>
    <TTGlyph name="Cdotaccent" xMin="59" yMin="-12" xMax="983" yMax="1716">
      <component glyphName="C" x="0" y="0" flags="0x204"/>
      <component glyphName="dotaccent" x="415" y="370" flags="0x4"/>
    </TTGlyph>
    <TTGlyph name="D" xMin="66" yMin="-18" xMax="966" yMax="1426">
      <contour>
        <pt x="966" y="704" on="1"/>
        <pt x="966" y="617" on="0"/>
        <pt x="943" y="428" on="0"/>
        <pt x="884" y="251" on="0"/>
        <pt x="783" y="99" on="0"/>
        <pt x="704" y="48" on="1"/>
        <pt x="656" y="16" on="0"/>
        <pt x="545" y="-18" on="0"/>
        <pt x="488" y="-18" on="1"/>
        <pt x="482" y="-18" on="1"/>
        <pt x="80" y="-12" on="1"/>
        <pt x="74" y="172" on="1"/>
        <pt x="192" y="172" on="1"/>
        <pt x="190" y="1226" on="1"/>
        <pt x="76" y="1222" on="1"/>
        <pt x="66" y="1416" on="1"/>
        <pt x="154" y="1422" on="0"/>
        <pt x="327" y="1426" on="0"/>
        <pt x="416" y="1426" on="1"/>
        <pt x="530" y="1426" on="1"/>
        <pt x="621" y="1426" on="0"/>
        <pt x="757" y="1358" on="0"/>
        <pt x="854" y="1244" on="0"/>
        <pt x="916" y="1096" on="0"/>
        <pt x="952" y="935" on="0"/>
        <pt x="966" y="774" on="0"/>
      </contour>
      <contour>
        <pt x="782" y="728" on="1"/>
        <pt x="782" y="746" on="1"/>
        <pt x="782" y="780" on="0"/>
        <pt x="773" y="879" on="0"/>
        <pt x="753" y="989" on="0"/>
        <pt x="717" y="1097" on="0"/>
        <pt x="665" y="1184" on="0"/>
        <pt x="592" y="1238" on="0"/>
        <pt x="544" y="1238" on="1"/>
        <pt x="480" y="1238" on="1"/>
        <pt x="453" y="1238" on="0"/>
        <pt x="399" y="1238" on="0"/>
        <pt x="372" y="1236" on="1"/>
        <pt x="362" y="162" on="1"/>
        <pt x="382" y="160" on="0"/>
        <pt x="420" y="158" on="0"/>
        <pt x="440" y="158" on="1"/>
        <pt x="493" y="158" on="0"/>
        <pt x="544" y="164" on="1"/>
        <pt x="600" y="173" on="0"/>
        <pt x="679" y="240" on="0"/>
        <pt x="732" y="337" on="0"/>
        <pt x="762" y="455" on="0"/>
        <pt x="778" y="574" on="0"/>
        <pt x="782" y="686" on="0"/>
      </contour>
    </TTGlyph>
    <TTGlyph name="Dcaron" xMin="66" yMin="-18" xMax="966" yMax="1764">
      <component glyphName="D" x="0" y="0" flags="0x204"/>
      <component glyphName="caron" x="283" y="350" flags="0x4"/>
    </TTGlyph>
    <TTGlyph name="Dcroat" xMin="66" yMin="-18" xMax="966" yMax="1426">
      <contour>
        <pt x="190" y="570" on="1"/>
        <pt x="80" y="568" on="1"/>
        <pt x="74" y="754" on="1"/>
        <pt x="190" y="754" on="1"/>
        <pt x="190" y="1226" on="1"/>
        <pt x="76" y="1222" on="1"/>
        <pt x="66" y="1416" on="1"/>
        <pt x="154" y="1422" on="0"/>
        <pt x="327" y="1426" on="0"/>
        <pt x="416" y="1426" on="1"/>
        <pt x="530" y="1426" on="1"/>
        <pt x="621" y="1426" on="0"/>
        <pt x="757" y="1358" on="0"/>
        <pt x="854" y="1244" on="0"/>
        <pt x="916" y="1096" on="0"/>
        <pt x="952" y="935" on="0"/>
        <pt x="966" y="774" on="0"/>
        <pt x="966" y="704" on="1"/>
        <pt x="966" y="617" on="0"/>
        <pt x="943" y="428" on="0"/>
        <pt x="884" y="251" on="0"/>
        <pt x="783" y="99" on="0"/>
        <pt x="704" y="48" on="1"/>
        <pt x="656" y="16" on="0"/>
        <pt x="545" y="-18" on="0"/>
        <pt x="488" y="-18" on="1"/>
        <pt x="482" y="-18" on="1"/>
        <pt x="80" y="-12" on="1"/>
        <pt x="74" y="172" on="1"/>
        <pt x="192" y="172" on="1"/>
      </contour>
      <contour>
        <pt x="542" y="758" on="1"/>
        <pt x="532" y="578" on="1"/>
        <pt x="366" y="574" on="1"/>
        <pt x="362" y="162" on="1"/>
        <pt x="382" y="160" on="0"/>
        <pt x="420" y="158" on="0"/>
        <pt x="440" y="158" on="1"/>
        <pt x="493" y="158" on="0"/>
        <pt x="544" y="164" on="1"/>
        <pt x="600" y="173" on="0"/>
        <pt x="679" y="240" on="0"/>
        <pt x="732" y="337" on="0"/>
        <pt x="762" y="455" on="0"/>
        <pt x="778" y="574" on="0"/>
        <pt x="782" y="686" on="0"/>
        <pt x="782" y="728" on="1"/>
        <pt x="782" y="746" on="1"/>
        <pt x="782" y="780" on="0"/>
        <pt x="773" y="879" on="0"/>
        <pt x="753" y="989" on="0"/>
        <pt x="717" y="1097" on="0"/>
        <pt x="665" y="1184" on="0"/>
        <pt x="592" y="1238" on="0"/>
        <pt x="544" y="1238" on="1"/>
        <pt x="480" y="1238" on="1"/>
        <pt x="453" y="1238" on="0"/>
        <pt x="399" y="1238" on="0"/>
        <pt x="372" y="1236" on="1"/>
        <pt x="368" y="756" on="1"/>
      </contour>
    </TTGlyph>
    <TTGlyph name="E" xMin="65" yMin="-12" xMax="903" yMax="1426">
      <contour>
        <pt x="903" y="1038" on="1"/>
        <pt x="755" y="1028" on="1"/>
        <pt x="735" y="1234" on="1"/>
        <pt x="371" y="1226" on="1"/>
        <pt x="367" y="780" on="1"/>
        <pt x="671" y="780" on="1"/>
        <pt x="671" y="636" on="1"/>
        <pt x="365" y="618" on="1"/>
        <pt x="361" y="172" on="1"/>
        <pt x="735" y="186" on="1"/>
        <pt x="735" y="406" on="1"/>
        <pt x="883" y="406" on="1"/>
        <pt x="893" y="8" on="1"/>
        <pt x="79" y="-12" on="1"/>
        <pt x="73" y="172" on="1"/>
        <pt x="191" y="172" on="1"/>
        <pt x="189" y="1226" on="1"/>
        <pt x="65" y="1222" on="1"/>
        <pt x="75" y="1416" on="1"/>
        <pt x="893" y="1426" on="1"/>
      </contour>
    </TTGlyph>
    <TTGlyph name="Eacute" xMin="65" yMin="-12" xMax="903" yMax="1764">
      <component glyphName="E" x="0" y="0" flags="0x204"/>
      <component glyphName="acute" x="425" y="370" flags="0x4"/>
    </TTGlyph>
    <TTGlyph name="Ebreve" xMin="65" yMin="-12" xMax="903" yMax="1731">
      <component glyphName="E" x="0" y="0" flags="0x204"/>
      <component glyphName="breve" x="249" y="319" flags="0x4"/>
    </TTGlyph>
    <TTGlyph name="Ecaron" xMin="65" yMin="-12" xMax="903" yMax="1764">
      <component glyphName="E" x="0" y="0" flags="0x204"/>
      <component glyphName="caron" x="245" y="350" flags="0x4"/>
    </TTGlyph>
    <TTGlyph name="Ecircumflex" xMin="65" yMin="-12" xMax="903" yMax="1784">
      <component glyphName="E" x="0" y="0" flags="0x204"/>
      <component glyphName="circumflex" x="253" y="370" flags="0x4"/>
    </TTGlyph>
    <TTGlyph name="Edieresis" xMin="65" yMin="-12" xMax="903" yMax="1696">
      <component glyphName="E" x="0" y="0" flags="0x204"/>
      <component glyphName="dieresis" x="243" y="350" flags="0x4"/>
    </TTGlyph>
    <TTGlyph name="Edotaccent" xMin="65" yMin="-12" xMax="903" yMax="1696">
      <component glyphName="E" x="0" y="0" flags="0x204"/>
      <component glyphName="dotaccent" x="375" y="350" flags="0x4"/>
    </TTGlyph>
    <TTGlyph name="Egrave" xMin="65" yMin="-12" xMax="903" yMax="1764">
      <component glyphName="E" x="0" y="0" flags="0x204"/>
      <component glyphName="grave" x="225" y="370" flags="0x4"/>
    </TTGlyph>
    <TTGlyph name="Emacron" xMin="65" yMin="-12" xMax="903" yMax="1629">
      <component glyphName="E" x="0" y="0" flags="0x204"/>
      <component glyphName="macron" x="270" y="239" flags="0x4"/>
    </TTGlyph>
    <TTGlyph name="Eng" xMin="57" yMin="-635" xMax="1133" yMax="1426">
      <contour>
        <pt x="1133" y="1246" on="1"/>
        <pt x="1017" y="1236" on="1"/>
        <pt x="987" y="-8" on="1"/>
        <pt x="985" y="-8" on="1"/>
        <pt x="985" y="-271" on="1"/>
        <pt x="985" y="-354" on="0"/>
        <pt x="947" y="-488" on="0"/>
        <pt x="866" y="-583" on="0"/>
        <pt x="741" y="-635" on="0"/>
        <pt x="653" y="-635" on="1"/>
        <pt x="584" y="-635" on="0"/>
        <pt x="481" y="-582" on="0"/>
        <pt x="413" y="-492" on="0"/>
        <pt x="379" y="-376" on="0"/>
        <pt x="379" y="-313" on="1"/>
        <pt x="379" y="-302" on="0"/>
        <pt x="381" y="-255" on="0"/>
        <pt x="383" y="-231" on="1"/>
        <pt x="385" y="-203" on="0"/>
        <pt x="387" y="-171" on="1"/>
        <pt x="573" y="-171" on="1"/>
        <pt x="570" y="-205" on="0"/>
        <pt x="567" y="-232" on="1"/>
        <pt x="565" y="-256" on="0"/>
        <pt x="561" y="-299" on="0"/>
        <pt x="561" y="-305" on="1"/>
        <pt x="561" y="-329" on="0"/>
        <pt x="572" y="-384" on="0"/>
        <pt x="597" y="-432" on="0"/>
        <pt x="638" y="-463" on="0"/>
        <pt x="667" y="-463" on="1"/>
        <pt x="710" y="-463" on="0"/>
        <pt x="763" y="-428" on="0"/>
        <pt x="793" y="-371" on="0"/>
        <pt x="803" y="-299" on="0"/>
        <pt x="803" y="-263" on="1"/>
        <pt x="803" y="12" on="1"/>
        <pt x="363" y="1076" on="1"/>
        <pt x="373" y="194" on="1"/>
        <pt x="509" y="198" on="1"/>
        <pt x="509" y="18" on="1"/>
        <pt x="81" y="8" on="1"/>
        <pt x="75" y="194" on="1"/>
        <pt x="193" y="194" on="1"/>
        <pt x="181" y="1216" on="1"/>
        <pt x="57" y="1212" on="1"/>
        <pt x="67" y="1406" on="1"/>
        <pt x="403" y="1406" on="1"/>
        <pt x="827" y="344" on="1"/>
        <pt x="827" y="1236" on="1"/>
        <pt x="701" y="1232" on="1"/>
        <pt x="711" y="1426" on="1"/>
        <pt x="1119" y="1426" on="1"/>
      </contour>
    </TTGlyph>
    <TTGlyph name="Eogonek" xMin="65" yMin="-322" xMax="903" yMax="1426">
      <contour>
        <pt x="903" y="-308" on="1"/>
        <pt x="882" y="-314" on="0"/>
        <pt x="840" y="-322" on="0"/>
        <pt x="817" y="-322" on="1"/>
        <pt x="779" y="-322" on="0"/>
        <pt x="715" y="-299" on="0"/>
        <pt x="670" y="-255" on="0"/>
        <pt x="645" y="-193" on="0"/>
        <pt x="645" y="-154" on="1"/>
        <pt x="645" y="-113" on="0"/>
        <pt x="677" y="-32" on="0"/>
        <pt x="702" y="3" on="1"/>
        <pt x="79" y="-12" on="1"/>
        <pt x="73" y="172" on="1"/>
        <pt x="191" y="172" on="1"/>
        <pt x="189" y="1226" on="1"/>
        <pt x="65" y="1222" on="1"/>
        <pt x="75" y="1416" on="1"/>
        <pt x="893" y="1426" on="1"/>
        <pt x="903" y="1038" on="1"/>
        <pt x="755" y="1028" on="1"/>
        <pt x="735" y="1234" on="1"/>
        <pt x="371" y="1226" on="1"/>
        <pt x="367" y="780" on="1"/>
        <pt x="671" y="780" on="1"/>
        <pt x="671" y="636" on="1"/>
        <pt x="365" y="618" on="1"/>
        <pt x="361" y="172" on="1"/>
        <pt x="735" y="186" on="1"/>
        <pt x="735" y="406" on="1"/>
        <pt x="883" y="406" on="1"/>
        <pt x="893" y="8" on="1"/>
        <pt x="815" y="6" on="1"/>
        <pt x="794" y="-26" on="0"/>
        <pt x="763" y="-100" on="0"/>
        <pt x="763" y="-132" on="1"/>
        <pt x="763" y="-167" on="0"/>
        <pt x="792" y="-202" on="0"/>
        <pt x="827" y="-202" on="1"/>
        <pt x="855" y="-202" on="0"/>
        <pt x="879" y="-190" on="1"/>
      </contour>
    </TTGlyph>
    <TTGlyph name="Eth" xMin="66" yMin="-18" xMax="966" yMax="1426">
      <contour>
        <pt x="190" y="570" on="1"/>
        <pt x="80" y="568" on="1"/>
        <pt x="74" y="754" on="1"/>
        <pt x="190" y="754" on="1"/>
        <pt x="190" y="1226" on="1"/>
        <pt x="76" y="1222" on="1"/>
        <pt x="66" y="1416" on="1"/>
        <pt x="154" y="1422" on="0"/>
        <pt x="327" y="1426" on="0"/>
        <pt x="416" y="1426" on="1"/>
        <pt x="530" y="1426" on="1"/>
        <pt x="621" y="1426" on="0"/>
        <pt x="757" y="1358" on="0"/>
        <pt x="854" y="1244" on="0"/>
        <pt x="916" y="1096" on="0"/>
        <pt x="952" y="935" on="0"/>
        <pt x="966" y="774" on="0"/>
        <pt x="966" y="704" on="1"/>
        <pt x="966" y="617" on="0"/>
        <pt x="943" y="428" on="0"/>
        <pt x="884" y="251" on="0"/>
        <pt x="783" y="99" on="0"/>
        <pt x="704" y="48" on="1"/>
        <pt x="656" y="16" on="0"/>
        <pt x="545" y="-18" on="0"/>
        <pt x="488" y="-18" on="1"/>
        <pt x="482" y="-18" on="1"/>
        <pt x="80" y="-12" on="1"/>
        <pt x="74" y="172" on="1"/>
        <pt x="192" y="172" on="1"/>
      </contour>
      <contour>
        <pt x="542" y="758" on="1"/>
        <pt x="532" y="578" on="1"/>
        <pt x="366" y="574" on="1"/>
        <pt x="362" y="162" on="1"/>
        <pt x="382" y="160" on="0"/>
        <pt x="420" y="158" on="0"/>
        <pt x="440" y="158" on="1"/>
        <pt x="493" y="158" on="0"/>
        <pt x="544" y="164" on="1"/>
        <pt x="600" y="173" on="0"/>
        <pt x="679" y="240" on="0"/>
        <pt x="732" y="337" on="0"/>
        <pt x="762" y="455" on="0"/>
        <pt x="778" y="574" on="0"/>
        <pt x="782" y="686" on="0"/>
        <pt x="782" y="728" on="1"/>
        <pt x="782" y="746" on="1"/>
        <pt x="782" y="780" on="0"/>
        <pt x="773" y="879" on="0"/>
        <pt x="753" y="989" on="0"/>
        <pt x="717" y="1097" on="0"/>
        <pt x="665" y="1184" on="0"/>
        <pt x="592" y="1238" on="0"/>
        <pt x="544" y="1238" on="1"/>
        <pt x="480" y="1238" on="1"/>
        <pt x="453" y="1238" on="0"/>
        <pt x="399" y="1238" on="0"/>
        <pt x="372" y="1236" on="1"/>
        <pt x="368" y="756" on="1"/>
      </contour>
    </TTGlyph>
    <TTGlyph name="Euro" xMin="50" yMin="210" xMax="936" yMax="1220">
      <contour>
        <pt x="576" y="682" on="1"/>
        <pt x="542" y="554" on="1"/>
        <pt x="368" y="552" on="1"/>
        <pt x="378" y="514" on="0"/>
        <pt x="410" y="444" on="0"/>
        <pt x="460" y="391" on="0"/>
        <pt x="528" y="360" on="0"/>
        <pt x="574" y="360" on="1"/>
        <pt x="632" y="360" on="0"/>
        <pt x="712" y="405" on="0"/>
        <pt x="761" y="480" on="0"/>
        <pt x="785" y="574" on="0"/>
        <pt x="788" y="624" on="1"/>
        <pt x="914" y="624" on="1"/>
        <pt x="914" y="542" on="0"/>
        <pt x="873" y="392" on="0"/>
        <pt x="789" y="278" on="0"/>
        <pt x="658" y="210" on="0"/>
        <pt x="568" y="210" on="1"/>
        <pt x="490" y="210" on="0"/>
        <pt x="371" y="267" on="0"/>
        <pt x="285" y="361" on="0"/>
        <pt x="230" y="483" on="0"/>
        <pt x="216" y="548" on="1"/>
        <pt x="50" y="546" on="1"/>
        <pt x="74" y="678" on="1"/>
        <pt x="198" y="680" on="1"/>
        <pt x="198" y="714" on="1"/>
        <pt x="198" y="740" on="1"/>
        <pt x="90" y="738" on="1"/>
        <pt x="114" y="870" on="1"/>
        <pt x="210" y="872" on="1"/>
        <pt x="223" y="942" on="0"/>
        <pt x="275" y="1068" on="0"/>
        <pt x="363" y="1164" on="0"/>
        <pt x="491" y="1220" on="0"/>
        <pt x="580" y="1220" on="1"/>
        <pt x="655" y="1220" on="0"/>
        <pt x="756" y="1149" on="0"/>
        <pt x="794" y="1086" on="1"/>
        <pt x="796" y="1218" on="1"/>
        <pt x="936" y="1216" on="1"/>
        <pt x="918" y="808" on="1"/>
        <pt x="792" y="812" on="1"/>
        <pt x="785" y="854" on="0"/>
        <pt x="757" y="946" on="0"/>
        <pt x="709" y="1024" on="0"/>
        <pt x="637" y="1074" on="0"/>
        <pt x="586" y="1074" on="1"/>
        <pt x="535" y="1074" on="0"/>
        <pt x="460" y="1041" on="0"/>
        <pt x="407" y="986" on="0"/>
        <pt x="374" y="912" on="0"/>
        <pt x="364" y="872" on="1"/>
        <pt x="618" y="874" on="1"/>
        <pt x="582" y="746" on="1"/>
        <pt x="350" y="742" on="1"/>
        <pt x="348" y="736" on="0"/>
        <pt x="348" y="725" on="0"/>
        <pt x="348" y="720" on="1"/>
        <pt x="348" y="711" on="0"/>
        <pt x="350" y="691" on="0"/>
        <pt x="350" y="680" on="1"/>
      </contour>
    </TTGlyph>
    <TTGlyph name="F" xMin="66" yMin="-12" xMax="894" yMax="1406">
      <contour>
        <pt x="894" y="998" on="1"/>
        <pt x="726" y="988" on="1"/>
        <pt x="716" y="1214" on="1"/>
        <pt x="362" y="1206" on="1"/>
        <pt x="366" y="750" on="1"/>
        <pt x="664" y="750" on="1"/>
        <pt x="664" y="606" on="1"/>
        <pt x="368" y="588" on="1"/>
        <pt x="372" y="184" on="1"/>
        <pt x="514" y="176" on="1"/>
        <pt x="514" y="-2" on="1"/>
        <pt x="80" y="-12" on="1"/>
        <pt x="74" y="184" on="1"/>
        <pt x="192" y="184" on="1"/>
        <pt x="190" y="1206" on="1"/>
        <pt x="66" y="1202" on="1"/>
        <pt x="76" y="1396" on="1"/>
        <pt x="884" y="1406" on="1"/>
      </contour>
    </TTGlyph>
    <TTGlyph name="G" xMin="60" yMin="-12" xMax="960" yMax="1450">
      <contour>
        <pt x="960" y="530" on="1"/>
        <pt x="960" y="432" on="0"/>
        <pt x="905" y="239" on="0"/>
        <pt x="795" y="84" on="0"/>
        <pt x="632" y="-12" on="0"/>
        <pt x="524" y="-12" on="1"/>
        <pt x="438" y="-12" on="0"/>
        <pt x="302" y="58" on="0"/>
        <pt x="199" y="175" on="0"/>
        <pt x="127" y="326" on="0"/>
        <pt x="81" y="488" on="0"/>
        <pt x="60" y="649" on="0"/>
        <pt x="60" y="716" on="1"/>
        <pt x="60" y="789" on="0"/>
        <pt x="76" y="955" on="0"/>
        <pt x="115" y="1118" on="0"/>
        <pt x="182" y="1267" on="0"/>
        <pt x="283" y="1382" on="0"/>
        <pt x="423" y="1450" on="0"/>
        <pt x="516" y="1450" on="1"/>
        <pt x="564" y="1450" on="0"/>
        <pt x="636" y="1427" on="0"/>
        <pt x="694" y="1384" on="0"/>
        <pt x="742" y="1322" on="0"/>
        <pt x="766" y="1284" on="1"/>
        <pt x="768" y="1448" on="1"/>
        <pt x="944" y="1444" on="1"/>
        <pt x="922" y="934" on="1"/>
        <pt x="764" y="940" on="1"/>
        <pt x="756" y="989" on="0"/>
        <pt x="725" y="1104" on="0"/>
        <pt x="671" y="1201" on="0"/>
        <pt x="586" y="1266" on="0"/>
        <pt x="524" y="1266" on="1"/>
        <pt x="462" y="1266" on="0"/>
        <pt x="373" y="1211" on="0"/>
        <pt x="312" y="1120" on="0"/>
        <pt x="274" y="1005" on="0"/>
        <pt x="254" y="884" on="0"/>
        <pt x="248" y="769" on="0"/>
        <pt x="248" y="724" on="1"/>
        <pt x="248" y="681" on="0"/>
        <pt x="256" y="566" on="0"/>
        <pt x="279" y="444" on="0"/>
        <pt x="319" y="325" on="0"/>
        <pt x="382" y="232" on="0"/>
        <pt x="470" y="174" on="0"/>
        <pt x="530" y="174" on="1"/>
        <pt x="578" y="174" on="0"/>
        <pt x="654" y="212" on="0"/>
        <pt x="711" y="275" on="0"/>
        <pt x="750" y="357" on="0"/>
        <pt x="774" y="445" on="0"/>
        <pt x="785" y="534" on="0"/>
        <pt x="784" y="572" on="1"/>
        <pt x="784" y="592" on="1"/>
        <pt x="502" y="600" on="1"/>
        <pt x="502" y="738" on="1"/>
        <pt x="948" y="748" on="1"/>
        <pt x="953" y="694" on="0"/>
        <pt x="960" y="584" on="0"/>
      </contour>
    </TTGlyph>
    <TTGlyph name="Gbreve" xMin="60" yMin="-12" xMax="960" yMax="1762">
      <component glyphName="G" x="0" y="0" flags="0x204"/>
      <component glyphName="breve" x="287" y="350" flags="0x4"/>
    </TTGlyph>
    <TTGlyph name="Gcircumflex" xMin="60" yMin="-12" xMax="960" yMax="1794">
      <component glyphName="G" x="0" y="0" flags="0x204"/>
      <component glyphName="circumflex" x="283" y="380" flags="0x4"/>
    </TTGlyph>
    <TTGlyph name="Gcommaaccent" xMin="60" yMin="-355" xMax="960" yMax="1450">
      <component glyphName="G" x="0" y="0" flags="0x204"/>
      <component glyphName="uni0326" x="369" y="-6" flags="0x4"/>
    </TTGlyph>
    <TTGlyph name="Gdotaccent" xMin="60" yMin="-12" xMax="960" yMax="1726">
      <component glyphName="G" x="0" y="0" flags="0x204"/>
      <component glyphName="dotaccent" x="413" y="380" flags="0x4"/>
    </TTGlyph>
    <TTGlyph name="H" xMin="48" yMin="-12" xMax="1118" yMax="1426">
      <contour>
        <pt x="1118" y="1232" on="1"/>
        <pt x="1014" y="1236" on="1"/>
        <pt x="994" y="172" on="1"/>
        <pt x="1110" y="172" on="1"/>
        <pt x="1116" y="-12" on="1"/>
        <pt x="672" y="-2" on="1"/>
        <pt x="672" y="178" on="1"/>
        <pt x="814" y="172" on="1"/>
        <pt x="820" y="550" on="1"/>
        <pt x="364" y="550" on="1"/>
        <pt x="364" y="194" on="1"/>
        <pt x="482" y="194" on="1"/>
        <pt x="486" y="8" on="1"/>
        <pt x="52" y="18" on="1"/>
        <pt x="52" y="198" on="1"/>
        <pt x="194" y="194" on="1"/>
        <pt x="184" y="1206" on="1"/>
        <pt x="48" y="1216" on="1"/>
        <pt x="52" y="1396" on="1"/>
        <pt x="470" y="1396" on="1"/>
        <pt x="470" y="1202" on="1"/>
        <pt x="364" y="1206" on="1"/>
        <pt x="364" y="706" on="1"/>
        <pt x="818" y="722" on="1"/>
        <pt x="822" y="1236" on="1"/>
        <pt x="688" y="1246" on="1"/>
        <pt x="692" y="1426" on="1"/>
        <pt x="1118" y="1426" on="1"/>
      </contour>
    </TTGlyph>
    <TTGlyph name="Hbar" xMin="48" yMin="-12" xMax="1142" yMax="1426">
      <contour>
        <pt x="1142" y="805" on="1"/>
        <pt x="1006" y="806" on="1"/>
        <pt x="994" y="172" on="1"/>
        <pt x="1110" y="172" on="1"/>
        <pt x="1116" y="-12" on="1"/>
        <pt x="672" y="-2" on="1"/>
        <pt x="672" y="178" on="1"/>
        <pt x="814" y="172" on="1"/>
        <pt x="820" y="550" on="1"/>
        <pt x="364" y="550" on="1"/>
        <pt x="364" y="194" on="1"/>
        <pt x="482" y="194" on="1"/>
        <pt x="486" y="8" on="1"/>
        <pt x="52" y="18" on="1"/>
        <pt x="52" y="198" on="1"/>
        <pt x="194" y="194" on="1"/>
        <pt x="188" y="815" on="1"/>
        <pt x="71" y="816" on="1"/>
        <pt x="97" y="953" on="1"/>
        <pt x="186" y="953" on="1"/>
        <pt x="184" y="1206" on="1"/>
        <pt x="48" y="1216" on="1"/>
        <pt x="52" y="1396" on="1"/>
        <pt x="470" y="1396" on="1"/>
        <pt x="470" y="1202" on="1"/>
        <pt x="364" y="1206" on="1"/>
        <pt x="364" y="953" on="1"/>
        <pt x="819" y="953" on="1"/>
        <pt x="822" y="1236" on="1"/>
        <pt x="688" y="1246" on="1"/>
        <pt x="692" y="1426" on="1"/>
        <pt x="1118" y="1426" on="1"/>
        <pt x="1118" y="1232" on="1"/>
        <pt x="1014" y="1236" on="1"/>
        <pt x="1008" y="953" on="1"/>
        <pt x="1116" y="953" on="1"/>
      </contour>
      <contour>
        <pt x="818" y="722" on="1"/>
        <pt x="818" y="808" on="1"/>
        <pt x="364" y="813" on="1"/>
        <pt x="364" y="706" on="1"/>
      </contour>
    </TTGlyph>
    <TTGlyph name="Hcircumflex" xMin="48" yMin="-12" xMax="1118" yMax="1764">
      <component glyphName="H" x="0" y="0" flags="0x204"/>
      <component glyphName="circumflex" x="366" y="350" flags="0x4"/>
    </TTGlyph>
    <TTGlyph name="I" xMin="65" yMin="8" xMax="501" yMax="1406">
      <contour>
        <pt x="501" y="198" on="1"/>
        <pt x="491" y="18" on="1"/>
        <pt x="79" y="8" on="1"/>
        <pt x="73" y="194" on="1"/>
        <pt x="191" y="194" on="1"/>
        <pt x="189" y="1216" on="1"/>
        <pt x="65" y="1212" on="1"/>
        <pt x="75" y="1406" on="1"/>
        <pt x="471" y="1406" on="1"/>
        <pt x="487" y="1226" on="1"/>
        <pt x="371" y="1216" on="1"/>
        <pt x="361" y="194" on="1"/>
      </contour>
    </TTGlyph>
    <TTGlyph name="IJ" xMin="65" yMin="-22" xMax="1333" yMax="1434">
      <component glyphName="I" x="0" y="0" flags="0x4"/>
      <component glyphName="J" x="555" y="0" flags="0x4"/>
    </TTGlyph>
    <TTGlyph name="Iacute" xMin="65" yMin="8" xMax="561" yMax="1744">
      <component glyphName="I" x="0" y="0" flags="0x204"/>
      <component glyphName="acute" x="245" y="350" flags="0x4"/>
    </TTGlyph>
    <TTGlyph name="Ibreve" xMin="50" yMin="8" xMax="504" yMax="1705">
      <component glyphName="I" x="0" y="0" flags="0x204"/>
      <component glyphName="breve" x="50" y="293" flags="0x4"/>
    </TTGlyph>
    <TTGlyph name="Icircumflex" xMin="53" yMin="8" xMax="515" yMax="1744">
      <component glyphName="I" x="0" y="0" flags="0x204"/>
      <component glyphName="circumflex" x="53" y="330" flags="0x4"/>
    </TTGlyph>
    <TTGlyph name="Idieresis" xMin="43" yMin="8" xMax="525" yMax="1676">
      <component glyphName="I" x="0" y="0" flags="0x204"/>
      <component glyphName="dieresis" x="43" y="330" flags="0x4"/>
    </TTGlyph>
    <TTGlyph name="Idotaccent" xMin="65" yMin="8" xMax="501" yMax="1696">
      <component glyphName="I" x="0" y="0" flags="0x204"/>
      <component glyphName="dotaccent" x="176" y="350" flags="0x4"/>
    </TTGlyph>
    <TTGlyph name="Igrave" xMin="5" yMin="8" xMax="501" yMax="1744">
      <component glyphName="I" x="0" y="0" flags="0x204"/>
      <component glyphName="grave" x="5" y="350" flags="0x4"/>
    </TTGlyph>
    <TTGlyph name="Imacron" xMin="65" yMin="8" xMax="501" yMax="1611">
      <component glyphName="I" x="0" y="0" flags="0x204"/>
      <component glyphName="macron" x="71" y="221" flags="0x4"/>
    </TTGlyph>
    <TTGlyph name="Iogonek" xMin="65" yMin="-322" xMax="501" yMax="1406">
      <contour>
        <pt x="410" y="-308" on="1"/>
        <pt x="389" y="-314" on="0"/>
        <pt x="347" y="-322" on="0"/>
        <pt x="324" y="-322" on="1"/>
        <pt x="286" y="-322" on="0"/>
        <pt x="222" y="-299" on="0"/>
        <pt x="177" y="-255" on="0"/>
        <pt x="152" y="-193" on="0"/>
        <pt x="152" y="-154" on="1"/>
        <pt x="152" y="-111" on="0"/>
        <pt x="188" y="-24" on="0"/>
        <pt x="215" y="11" on="1"/>
        <pt x="79" y="8" on="1"/>
        <pt x="73" y="194" on="1"/>
        <pt x="191" y="194" on="1"/>
        <pt x="189" y="1216" on="1"/>
        <pt x="65" y="1212" on="1"/>
        <pt x="75" y="1406" on="1"/>
        <pt x="471" y="1406" on="1"/>
        <pt x="487" y="1226" on="1"/>
        <pt x="371" y="1216" on="1"/>
        <pt x="361" y="194" on="1"/>
        <pt x="501" y="198" on="1"/>
        <pt x="491" y="18" on="1"/>
        <pt x="327" y="14" on="1"/>
        <pt x="304" y="-18" on="0"/>
        <pt x="270" y="-97" on="0"/>
        <pt x="270" y="-132" on="1"/>
        <pt x="270" y="-167" on="0"/>
        <pt x="299" y="-202" on="0"/>
        <pt x="334" y="-202" on="1"/>
        <pt x="362" y="-202" on="0"/>
        <pt x="386" y="-190" on="1"/>
      </contour>
    </TTGlyph>
    <TTGlyph name="Itilde" xMin="34" yMin="8" xMax="520" yMax="1670">
      <component glyphName="I" x="0" y="0" flags="0x204"/>
      <component glyphName="tilde" x="34" y="274" flags="0x4"/>
    </TTGlyph>
    <TTGlyph name="J" xMin="24" yMin="-22" xMax="778" yMax="1434">
      <contour>
        <pt x="778" y="1242" on="1"/>
        <pt x="630" y="1242" on="1"/>
        <pt x="630" y="342" on="1"/>
        <pt x="630" y="259" on="0"/>
        <pt x="592" y="125" on="0"/>
        <pt x="511" y="30" on="0"/>
        <pt x="386" y="-22" on="0"/>
        <pt x="298" y="-22" on="1"/>
        <pt x="229" y="-22" on="0"/>
        <pt x="126" y="31" on="0"/>
        <pt x="58" y="121" on="0"/>
        <pt x="24" y="237" on="0"/>
        <pt x="24" y="300" on="1"/>
        <pt x="24" y="360" on="0"/>
        <pt x="26" y="482" on="0"/>
        <pt x="32" y="542" on="1"/>
        <pt x="218" y="542" on="1"/>
        <pt x="213" y="483" on="0"/>
        <pt x="206" y="367" on="0"/>
        <pt x="206" y="308" on="1"/>
        <pt x="206" y="284" on="0"/>
        <pt x="217" y="229" on="0"/>
        <pt x="242" y="181" on="0"/>
        <pt x="283" y="150" on="0"/>
        <pt x="312" y="150" on="1"/>
        <pt x="355" y="150" on="0"/>
        <pt x="408" y="185" on="0"/>
        <pt x="438" y="242" on="0"/>
        <pt x="448" y="314" on="0"/>
        <pt x="448" y="350" on="1"/>
        <pt x="448" y="1242" on="1"/>
        <pt x="268" y="1230" on="1"/>
        <pt x="258" y="1422" on="1"/>
        <pt x="778" y="1434" on="1"/>
      </contour>
    </TTGlyph>
    <TTGlyph name="Jcircumflex" xMin="24" yMin="-22" xMax="778" yMax="1764">
      <component glyphName="J" x="0" y="0" flags="0x204"/>
      <component glyphName="circumflex" x="305" y="350" flags="0x4"/>
    </TTGlyph>
    <TTGlyph name="K" xMin="65" yMin="-22" xMax="1039" yMax="1436">
      <contour>
        <pt x="1039" y="1426" on="1"/>
        <pt x="1023" y="1236" on="1"/>
        <pt x="919" y="1236" on="1"/>
        <pt x="521" y="736" on="1"/>
        <pt x="901" y="172" on="1"/>
        <pt x="1011" y="178" on="1"/>
        <pt x="1021" y="-2" on="1"/>
        <pt x="609" y="-22" on="1"/>
        <pt x="593" y="162" on="1"/>
        <pt x="711" y="162" on="1"/>
        <pt x="365" y="688" on="1"/>
        <pt x="361" y="194" on="1"/>
        <pt x="501" y="198" on="1"/>
        <pt x="491" y="18" on="1"/>
        <pt x="79" y="8" on="1"/>
        <pt x="73" y="194" on="1"/>
        <pt x="191" y="194" on="1"/>
        <pt x="189" y="1216" on="1"/>
        <pt x="65" y="1212" on="1"/>
        <pt x="75" y="1406" on="1"/>
        <pt x="471" y="1406" on="1"/>
        <pt x="487" y="1226" on="1"/>
        <pt x="371" y="1216" on="1"/>
        <pt x="367" y="786" on="1"/>
        <pt x="727" y="1246" on="1"/>
        <pt x="601" y="1262" on="1"/>
        <pt x="613" y="1436" on="1"/>
      </contour>
    </TTGlyph>
    <TTGlyph name="Kcommaaccent" xMin="65" yMin="-355" xMax="1039" yMax="1436">
      <component glyphName="K" x="0" y="0" flags="0x204"/>
      <component glyphName="uni0326" x="369" y="-6" flags="0x4"/>
    </TTGlyph>
    <TTGlyph name="L" xMin="65" yMin="-2" xMax="873" yMax="1406">
      <contour>
        <pt x="873" y="406" on="1"/>
        <pt x="863" y="-2" on="1"/>
        <pt x="75" y="8" on="1"/>
        <pt x="65" y="202" on="1"/>
        <pt x="189" y="198" on="1"/>
        <pt x="191" y="1222" on="1"/>
        <pt x="73" y="1222" on="1"/>
        <pt x="79" y="1406" on="1"/>
        <pt x="513" y="1406" on="1"/>
        <pt x="513" y="1228" on="1"/>
        <pt x="371" y="1222" on="1"/>
        <pt x="361" y="198" on="1"/>
        <pt x="695" y="190" on="1"/>
        <pt x="705" y="416" on="1"/>
      </contour>
    </TTGlyph>
    <TTGlyph name="Lacute" xMin="65" yMin="-2" xMax="873" yMax="1744">
      <component glyphName="L" x="0" y="0" flags="0x204"/>
      <component glyphName="acute" x="289" y="350" flags="0x4"/>
    </TTGlyph>
    <TTGlyph name="Lcaron" xMin="65" yMin="-2" xMax="873" yMax="1406">
      <component glyphName="L" x="0" y="0" flags="0x204"/>
      <component glyphName="quoteright" x="550" y="-17" flags="0x4"/>
    </TTGlyph>
    <TTGlyph name="Lcommaaccent" xMin="65" yMin="-355" xMax="873" yMax="1406">
      <component glyphName="L" x="0" y="0" flags="0x204"/>
      <component glyphName="uni0326" x="319" y="-6" flags="0x4"/>
    </TTGlyph>
    <TTGlyph name="Ldot" xMin="65" yMin="-2" xMax="873" yMax="1406">
      <component glyphName="L" x="0" y="0" flags="0x204"/>
      <component glyphName="periodcentered" x="431" y="0" flags="0x4"/>
    </TTGlyph>
    <TTGlyph name="Lslash" xMin="66" yMin="-2" xMax="874" yMax="1406">
      <contour>
        <pt x="502" y="850" on="1"/>
        <pt x="552" y="686" on="1"/>
        <pt x="366" y="612" on="1"/>
        <pt x="362" y="198" on="1"/>
        <pt x="696" y="190" on="1"/>
        <pt x="706" y="416" on="1"/>
        <pt x="874" y="406" on="1"/>
        <pt x="864" y="-2" on="1"/>
        <pt x="76" y="8" on="1"/>
        <pt x="66" y="202" on="1"/>
        <pt x="190" y="198" on="1"/>
        <pt x="190" y="544" on="1"/>
        <pt x="100" y="506" on="1"/>
        <pt x="74" y="690" on="1"/>
        <pt x="190" y="734" on="1"/>
        <pt x="192" y="1222" on="1"/>
        <pt x="74" y="1222" on="1"/>
        <pt x="80" y="1406" on="1"/>
        <pt x="514" y="1406" on="1"/>
        <pt x="514" y="1228" on="1"/>
        <pt x="372" y="1222" on="1"/>
        <pt x="368" y="800" on="1"/>
      </contour>
    </TTGlyph>
    <TTGlyph name="M" xMin="35" yMin="-12" xMax="1367" yMax="1422">
      <contour>
        <pt x="1367" y="1422" on="1"/>
        <pt x="1361" y="1230" on="1"/>
        <pt x="1231" y="1236" on="1"/>
        <pt x="1211" y="178" on="1"/>
        <pt x="1313" y="178" on="1"/>
        <pt x="1317" y="-12" on="1"/>
        <pt x="909" y="-12" on="1"/>
        <pt x="913" y="178" on="1"/>
        <pt x="1035" y="178" on="1"/>
        <pt x="1039" y="1128" on="1"/>
        <pt x="787" y="96" on="1"/>
        <pt x="591" y="90" on="1"/>
        <pt x="395" y="1126" on="1"/>
        <pt x="381" y="194" on="1"/>
        <pt x="499" y="194" on="1"/>
        <pt x="503" y="8" on="1"/>
        <pt x="39" y="18" on="1"/>
        <pt x="39" y="198" on="1"/>
        <pt x="201" y="194" on="1"/>
        <pt x="211" y="1206" on="1"/>
        <pt x="35" y="1216" on="1"/>
        <pt x="39" y="1396" on="1"/>
        <pt x="527" y="1396" on="1"/>
        <pt x="693" y="402" on="1"/>
        <pt x="933" y="1416" on="1"/>
      </contour>
    </TTGlyph>
    <TTGlyph name="N" xMin="57" yMin="-12" xMax="1133" yMax="1426">
      <contour>
        <pt x="1133" y="1246" on="1"/>
        <pt x="1017" y="1236" on="1"/>
        <pt x="987" y="-8" on="1"/>
        <pt x="813" y="-12" on="1"/>
        <pt x="363" y="1076" on="1"/>
        <pt x="373" y="194" on="1"/>
        <pt x="509" y="198" on="1"/>
        <pt x="509" y="18" on="1"/>
        <pt x="81" y="8" on="1"/>
        <pt x="75" y="194" on="1"/>
        <pt x="193" y="194" on="1"/>
        <pt x="181" y="1216" on="1"/>
        <pt x="57" y="1212" on="1"/>
        <pt x="67" y="1406" on="1"/>
        <pt x="403" y="1406" on="1"/>
        <pt x="827" y="344" on="1"/>
        <pt x="827" y="1236" on="1"/>
        <pt x="701" y="1232" on="1"/>
        <pt x="711" y="1426" on="1"/>
        <pt x="1119" y="1426" on="1"/>
      </contour>
    </TTGlyph>
    <TTGlyph name="Nacute" xMin="57" yMin="-12" xMax="1133" yMax="1744">
      <component glyphName="N" x="0" y="0" flags="0x204"/>
      <component glyphName="acute" x="560" y="350" flags="0x4"/>
    </TTGlyph>
    <TTGlyph name="Ncaron" xMin="57" yMin="-12" xMax="1133" yMax="1764">
      <component glyphName="N" x="0" y="0" flags="0x204"/>
      <component glyphName="caron" x="352" y="350" flags="0x4"/>
    </TTGlyph>
    <TTGlyph name="Ncommaaccent" xMin="57" yMin="-355" xMax="1133" yMax="1426">
      <component glyphName="N" x="0" y="0" flags="0x204"/>
      <component glyphName="uni0326" x="419" y="-6" flags="0x4"/>
    </TTGlyph>
    <TTGlyph name="Ntilde" xMin="57" yMin="-12" xMax="1133" yMax="1706">
      <component glyphName="N" x="0" y="0" flags="0x204"/>
      <component glyphName="tilde" x="351" y="310" flags="0x4"/>
    </TTGlyph>
    <TTGlyph name="O" xMin="64" yMin="-36" xMax="938" yMax="1456">
      <contour>
        <pt x="938" y="778" on="1"/>
        <pt x="938" y="697" on="0"/>
        <pt x="928" y="513" on="0"/>
        <pt x="895" y="333" on="0"/>
        <pt x="832" y="166" on="0"/>
        <pt x="727" y="40" on="0"/>
        <pt x="573" y="-36" on="0"/>
        <pt x="466" y="-36" on="1"/>
        <pt x="382" y="-36" on="0"/>
        <pt x="258" y="25" on="0"/>
        <pt x="169" y="127" on="0"/>
        <pt x="111" y="261" on="0"/>
        <pt x="77" y="406" on="0"/>
        <pt x="64" y="554" on="0"/>
        <pt x="64" y="618" on="1"/>
        <pt x="64" y="699" on="0"/>
        <pt x="76" y="887" on="0"/>
        <pt x="112" y="1073" on="0"/>
        <pt x="177" y="1245" on="0"/>
        <pt x="284" y="1377" on="0"/>
        <pt x="438" y="1456" on="0"/>
        <pt x="544" y="1456" on="1"/>
        <pt x="628" y="1456" on="0"/>
        <pt x="753" y="1391" on="0"/>
        <pt x="840" y="1282" on="0"/>
        <pt x="895" y="1142" on="0"/>
        <pt x="927" y="991" on="0"/>
        <pt x="938" y="842" on="0"/>
      </contour>
      <contour>
        <pt x="742" y="766" on="1"/>
        <pt x="742" y="800" on="0"/>
        <pt x="738" y="901" on="0"/>
        <pt x="724" y="1012" on="0"/>
        <pt x="696" y="1124" on="0"/>
        <pt x="647" y="1213" on="0"/>
        <pt x="574" y="1268" on="0"/>
        <pt x="522" y="1268" on="1"/>
        <pt x="456" y="1268" on="0"/>
        <pt x="365" y="1197" on="0"/>
        <pt x="305" y="1081" on="0"/>
        <pt x="271" y="936" on="0"/>
        <pt x="255" y="788" on="0"/>
        <pt x="252" y="651" on="0"/>
        <pt x="252" y="602" on="1"/>
        <pt x="252" y="565" on="0"/>
        <pt x="256" y="470" on="0"/>
        <pt x="271" y="371" on="0"/>
        <pt x="301" y="276" on="0"/>
        <pt x="350" y="202" on="0"/>
        <pt x="424" y="156" on="0"/>
        <pt x="476" y="156" on="1"/>
        <pt x="541" y="156" on="0"/>
        <pt x="631" y="222" on="0"/>
        <pt x="690" y="329" on="0"/>
        <pt x="723" y="463" on="0"/>
        <pt x="739" y="598" on="0"/>
        <pt x="742" y="722" on="0"/>
      </contour>
    </TTGlyph>
    <TTGlyph name="OE" xMin="64" yMin="-36" xMax="1462" yMax="1456">
      <contour>
        <pt x="1462" y="1038" on="1"/>
        <pt x="1314" y="1028" on="1"/>
        <pt x="1294" y="1234" on="1"/>
        <pt x="930" y="1226" on="1"/>
        <pt x="926" y="780" on="1"/>
        <pt x="1230" y="780" on="1"/>
        <pt x="1230" y="636" on="1"/>
        <pt x="924" y="618" on="1"/>
        <pt x="920" y="172" on="1"/>
        <pt x="1294" y="186" on="1"/>
        <pt x="1294" y="406" on="1"/>
        <pt x="1442" y="406" on="1"/>
        <pt x="1452" y="8" on="1"/>
        <pt x="658" y="6" on="1"/>
        <pt x="617" y="-14" on="0"/>
        <pt x="522" y="-36" on="0"/>
        <pt x="466" y="-36" on="1"/>
        <pt x="382" y="-36" on="0"/>
        <pt x="258" y="25" on="0"/>
        <pt x="169" y="127" on="0"/>
        <pt x="111" y="261" on="0"/>
        <pt x="77" y="406" on="0"/>
        <pt x="64" y="554" on="0"/>
        <pt x="64" y="618" on="1"/>
        <pt x="64" y="699" on="0"/>
        <pt x="76" y="887" on="0"/>
        <pt x="112" y="1073" on="0"/>
        <pt x="177" y="1245" on="0"/>
        <pt x="284" y="1377" on="0"/>
        <pt x="438" y="1456" on="0"/>
        <pt x="544" y="1456" on="1"/>
        <pt x="591" y="1456" on="0"/>
        <pt x="669" y="1436" on="0"/>
        <pt x="702" y="1418" on="1"/>
        <pt x="1452" y="1426" on="1"/>
      </contour>
      <contour>
        <pt x="742" y="766" on="1"/>
        <pt x="742" y="800" on="0"/>
        <pt x="738" y="901" on="0"/>
        <pt x="724" y="1012" on="0"/>
        <pt x="696" y="1124" on="0"/>
        <pt x="647" y="1213" on="0"/>
        <pt x="574" y="1268" on="0"/>
        <pt x="522" y="1268" on="1"/>
        <pt x="456" y="1268" on="0"/>
        <pt x="365" y="1197" on="0"/>
        <pt x="305" y="1081" on="0"/>
        <pt x="271" y="936" on="0"/>
        <pt x="255" y="788" on="0"/>
        <pt x="252" y="651" on="0"/>
        <pt x="252" y="602" on="1"/>
        <pt x="252" y="565" on="0"/>
        <pt x="256" y="470" on="0"/>
        <pt x="271" y="371" on="0"/>
        <pt x="301" y="276" on="0"/>
        <pt x="350" y="202" on="0"/>
        <pt x="424" y="156" on="0"/>
        <pt x="476" y="156" on="1"/>
        <pt x="541" y="156" on="0"/>
        <pt x="631" y="222" on="0"/>
        <pt x="690" y="329" on="0"/>
        <pt x="723" y="463" on="0"/>
        <pt x="739" y="598" on="0"/>
        <pt x="742" y="722" on="0"/>
      </contour>
    </TTGlyph>
    <TTGlyph name="Oacute" xMin="64" yMin="-36" xMax="938" yMax="1804">
      <component glyphName="O" x="0" y="0" flags="0x204"/>
      <component glyphName="acute" x="502" y="410" flags="0x4"/>
    </TTGlyph>
    <TTGlyph name="Obreve" xMin="64" yMin="-36" xMax="938" yMax="1762">
      <component glyphName="O" x="0" y="0" flags="0x204"/>
      <component glyphName="breve" x="275" y="350" flags="0x4"/>
    </TTGlyph>
    <TTGlyph name="Ocircumflex" xMin="64" yMin="-36" xMax="938" yMax="1784">
      <component glyphName="O" x="0" y="0" flags="0x204"/>
      <component glyphName="circumflex" x="290" y="370" flags="0x4"/>
    </TTGlyph>
    <TTGlyph name="Odieresis" xMin="64" yMin="-36" xMax="938" yMax="1696">
      <component glyphName="O" x="0" y="0" flags="0x204"/>
      <component glyphName="dieresis" x="260" y="350" flags="0x4"/>
    </TTGlyph>
    <TTGlyph name="Ograve" xMin="64" yMin="-36" xMax="938" yMax="1804">
      <component glyphName="O" x="0" y="0" flags="0x204"/>
      <component glyphName="grave" x="242" y="410" flags="0x4"/>
    </TTGlyph>
    <TTGlyph name="Ohungarumlaut" xMin="64" yMin="-36" xMax="938" yMax="1839">
      <component glyphName="O" x="0" y="0" flags="0x204"/>
      <component glyphName="hungarumlaut" x="382" y="385" flags="0x4"/>
    </TTGlyph>
    <TTGlyph name="Omacron" xMin="64" yMin="-36" xMax="938" yMax="1653">
      <component glyphName="O" x="0" y="0" flags="0x204"/>
      <component glyphName="macron" x="296" y="263" flags="0x4"/>
    </TTGlyph>
    <TTGlyph name="Oslash" xMin="64" yMin="-36" xMax="938" yMax="1460">
      <contour>
        <pt x="270" y="392" on="1"/>
        <pt x="624" y="1230" on="1"/>
        <pt x="603" y="1248" on="0"/>
        <pt x="554" y="1268" on="0"/>
        <pt x="522" y="1268" on="1"/>
        <pt x="456" y="1268" on="0"/>
        <pt x="365" y="1197" on="0"/>
        <pt x="305" y="1081" on="0"/>
        <pt x="271" y="936" on="0"/>
        <pt x="255" y="788" on="0"/>
        <pt x="252" y="651" on="0"/>
        <pt x="252" y="602" on="1"/>
        <pt x="252" y="560" on="0"/>
        <pt x="259" y="449" on="0"/>
      </contour>
      <contour>
        <pt x="720" y="1026" on="1"/>
        <pt x="356" y="204" on="1"/>
        <pt x="379" y="181" on="0"/>
        <pt x="438" y="156" on="0"/>
        <pt x="476" y="156" on="1"/>
        <pt x="541" y="156" on="0"/>
        <pt x="631" y="222" on="0"/>
        <pt x="690" y="329" on="0"/>
        <pt x="723" y="463" on="0"/>
        <pt x="739" y="598" on="0"/>
        <pt x="742" y="722" on="0"/>
        <pt x="742" y="766" on="1"/>
        <pt x="742" y="788" on="0"/>
        <pt x="741" y="848" on="0"/>
        <pt x="736" y="916" on="0"/>
        <pt x="727" y="989" on="0"/>
      </contour>
      <contour>
        <pt x="904" y="1440" on="1"/>
        <pt x="834" y="1282" on="1"/>
        <pt x="865" y="1227" on="0"/>
        <pt x="906" y="1098" on="0"/>
        <pt x="929" y="965" on="0"/>
        <pt x="938" y="834" on="0"/>
        <pt x="938" y="778" on="1"/>
        <pt x="938" y="697" on="0"/>
        <pt x="928" y="513" on="0"/>
        <pt x="895" y="333" on="0"/>
        <pt x="832" y="166" on="0"/>
        <pt x="727" y="40" on="0"/>
        <pt x="573" y="-36" on="0"/>
        <pt x="466" y="-36" on="1"/>
        <pt x="409" y="-36" on="0"/>
        <pt x="313" y="-6" on="0"/>
        <pt x="274" y="20" on="1"/>
        <pt x="256" y="-20" on="1"/>
        <pt x="104" y="0" on="1"/>
        <pt x="164" y="144" on="1"/>
        <pt x="135" y="196" on="0"/>
        <pt x="96" y="316" on="0"/>
        <pt x="73" y="440" on="0"/>
        <pt x="64" y="563" on="0"/>
        <pt x="64" y="618" on="1"/>
        <pt x="64" y="699" on="0"/>
        <pt x="76" y="887" on="0"/>
        <pt x="112" y="1073" on="0"/>
        <pt x="177" y="1245" on="0"/>
        <pt x="284" y="1377" on="0"/>
        <pt x="438" y="1456" on="0"/>
        <pt x="544" y="1456" on="1"/>
        <pt x="591" y="1456" on="0"/>
        <pt x="669" y="1436" on="0"/>
        <pt x="702" y="1418" on="1"/>
        <pt x="720" y="1460" on="1"/>
      </contour>
    </TTGlyph>
    <TTGlyph name="Oslashacute" xMin="64" yMin="-36" xMax="938" yMax="1804">
      <component glyphName="Oslash" x="0" y="0" flags="0x204"/>
      <component glyphName="acute" x="502" y="410" flags="0x4"/>
    </TTGlyph>
    <TTGlyph name="Otilde" xMin="64" yMin="-36" xMax="938" yMax="1726">
      <component glyphName="O" x="0" y="0" flags="0x204"/>
      <component glyphName="tilde" x="258" y="330" flags="0x4"/>
    </TTGlyph>
    <TTGlyph name="P" xMin="66" yMin="8" xMax="946" yMax="1440">
      <contour>
        <pt x="946" y="1020" on="1"/>
        <pt x="946" y="896" on="0"/>
        <pt x="866" y="728" on="0"/>
        <pt x="725" y="626" on="0"/>
        <pt x="534" y="581" on="0"/>
        <pt x="422" y="580" on="1"/>
        <pt x="366" y="580" on="1"/>
        <pt x="362" y="194" on="1"/>
        <pt x="502" y="198" on="1"/>
        <pt x="492" y="18" on="1"/>
        <pt x="80" y="8" on="1"/>
        <pt x="74" y="194" on="1"/>
        <pt x="192" y="194" on="1"/>
        <pt x="190" y="1242" on="1"/>
        <pt x="76" y="1238" on="1"/>
        <pt x="66" y="1432" on="1"/>
        <pt x="178" y="1437" on="0"/>
        <pt x="398" y="1440" on="0"/>
        <pt x="510" y="1440" on="1"/>
        <pt x="601" y="1440" on="0"/>
        <pt x="761" y="1379" on="0"/>
        <pt x="878" y="1268" on="0"/>
        <pt x="946" y="1114" on="0"/>
      </contour>
      <contour>
        <pt x="762" y="1012" on="1"/>
        <pt x="762" y="1063" on="0"/>
        <pt x="725" y="1151" on="0"/>
        <pt x="661" y="1215" on="0"/>
        <pt x="573" y="1252" on="0"/>
        <pt x="522" y="1252" on="1"/>
        <pt x="458" y="1252" on="1"/>
        <pt x="372" y="1252" on="1"/>
        <pt x="368" y="750" on="1"/>
        <pt x="416" y="750" on="1"/>
        <pt x="485" y="750" on="0"/>
        <pt x="610" y="767" on="0"/>
        <pt x="706" y="821" on="0"/>
        <pt x="762" y="925" on="0"/>
      </contour>
    </TTGlyph>
    <TTGlyph name="Q" xMin="65" yMin="-248" xMax="937" yMax="1456">
      <contour>
        <pt x="937" y="746" on="1"/>
        <pt x="937" y="692" on="0"/>
        <pt x="932" y="567" on="0"/>
        <pt x="916" y="435" on="0"/>
        <pt x="888" y="304" on="0"/>
        <pt x="842" y="184" on="0"/>
        <pt x="776" y="81" on="0"/>
        <pt x="731" y="44" on="1"/>
        <pt x="763" y="3" on="0"/>
        <pt x="846" y="-74" on="0"/>
        <pt x="891" y="-98" on="1"/>
        <pt x="755" y="-248" on="1"/>
        <pt x="699" y="-203" on="0"/>
        <pt x="614" y="-88" on="0"/>
        <pt x="579" y="-26" on="1"/>
        <pt x="552" y="-32" on="0"/>
        <pt x="500" y="-36" on="0"/>
        <pt x="473" y="-36" on="1"/>
        <pt x="387" y="-36" on="0"/>
        <pt x="260" y="29" on="0"/>
        <pt x="169" y="137" on="0"/>
        <pt x="111" y="277" on="0"/>
        <pt x="78" y="429" on="0"/>
        <pt x="65" y="582" on="0"/>
        <pt x="65" y="648" on="1"/>
        <pt x="65" y="728" on="0"/>
        <pt x="77" y="910" on="0"/>
        <pt x="111" y="1089" on="0"/>
        <pt x="176" y="1255" on="0"/>
        <pt x="280" y="1381" on="0"/>
        <pt x="432" y="1456" on="0"/>
        <pt x="537" y="1456" on="1"/>
        <pt x="624" y="1456" on="0"/>
        <pt x="751" y="1387" on="0"/>
        <pt x="840" y="1272" on="0"/>
        <pt x="895" y="1124" on="0"/>
        <pt x="926" y="966" on="0"/>
        <pt x="937" y="810" on="0"/>
      </contour>
      <contour>
        <pt x="741" y="726" on="1"/>
        <pt x="741" y="762" on="0"/>
        <pt x="737" y="870" on="0"/>
        <pt x="723" y="991" on="0"/>
        <pt x="694" y="1111" on="0"/>
        <pt x="643" y="1208" on="0"/>
        <pt x="566" y="1268" on="0"/>
        <pt x="511" y="1268" on="1"/>
        <pt x="446" y="1268" on="0"/>
        <pt x="358" y="1200" on="0"/>
        <pt x="302" y="1089" on="0"/>
        <pt x="271" y="950" on="0"/>
        <pt x="257" y="809" on="0"/>
        <pt x="255" y="678" on="0"/>
        <pt x="255" y="632" on="1"/>
        <pt x="255" y="608" on="0"/>
        <pt x="255" y="558" on="0"/>
        <pt x="257" y="532" on="1"/>
        <pt x="325" y="523" on="0"/>
        <pt x="440" y="469" on="0"/>
        <pt x="533" y="388" on="0"/>
        <pt x="604" y="281" on="0"/>
        <pt x="629" y="220" on="1"/>
        <pt x="667" y="262" on="0"/>
        <pt x="712" y="390" on="0"/>
        <pt x="735" y="532" on="0"/>
        <pt x="741" y="672" on="0"/>
      </contour>
      <contour>
        <pt x="485" y="156" on="1"/>
        <pt x="455" y="221" on="0"/>
        <pt x="348" y="318" on="0"/>
        <pt x="285" y="348" on="1"/>
        <pt x="295" y="310" on="0"/>
        <pt x="328" y="241" on="0"/>
        <pt x="376" y="187" on="0"/>
        <pt x="441" y="155" on="0"/>
      </contour>
    </TTGlyph>
    <TTGlyph name="R" xMin="64" yMin="-12" xMax="956" yMax="1440">
      <contour>
        <pt x="956" y="208" on="1"/>
        <pt x="946" y="18" on="1"/>
        <pt x="584" y="-12" on="1"/>
        <pt x="560" y="172" on="1"/>
        <pt x="636" y="172" on="1"/>
        <pt x="500" y="640" on="1"/>
        <pt x="364" y="640" on="1"/>
        <pt x="360" y="172" on="1"/>
        <pt x="480" y="178" on="1"/>
        <pt x="470" y="-12" on="1"/>
        <pt x="88" y="-12" on="1"/>
        <pt x="72" y="172" on="1"/>
        <pt x="190" y="172" on="1"/>
        <pt x="188" y="1242" on="1"/>
        <pt x="74" y="1238" on="1"/>
        <pt x="64" y="1432" on="1"/>
        <pt x="176" y="1437" on="0"/>
        <pt x="399" y="1440" on="0"/>
        <pt x="512" y="1440" on="1"/>
        <pt x="601" y="1440" on="0"/>
        <pt x="759" y="1391" on="0"/>
        <pt x="876" y="1293" on="0"/>
        <pt x="944" y="1147" on="0"/>
        <pt x="944" y="1050" on="1"/>
        <pt x="944" y="986" on="0"/>
        <pt x="908" y="860" on="0"/>
        <pt x="838" y="753" on="0"/>
        <pt x="736" y="675" on="0"/>
        <pt x="670" y="660" on="1"/>
        <pt x="816" y="204" on="1"/>
      </contour>
      <contour>
        <pt x="760" y="1042" on="1"/>
        <pt x="760" y="1093" on="0"/>
        <pt x="725" y="1171" on="0"/>
        <pt x="663" y="1225" on="0"/>
        <pt x="579" y="1252" on="0"/>
        <pt x="530" y="1252" on="1"/>
        <pt x="456" y="1252" on="1"/>
        <pt x="370" y="1252" on="1"/>
        <pt x="366" y="810" on="1"/>
        <pt x="414" y="810" on="1"/>
        <pt x="480" y="810" on="0"/>
        <pt x="605" y="821" on="0"/>
        <pt x="701" y="867" on="0"/>
        <pt x="760" y="960" on="0"/>
      </contour>
    </TTGlyph>
    <TTGlyph name="Racute" xMin="64" yMin="-12" xMax="956" yMax="1774">
      <component glyphName="R" x="0" y="0" flags="0x204"/>
      <component glyphName="acute" x="491" y="380" flags="0x4"/>
    </TTGlyph>
    <TTGlyph name="Rcaron" xMin="64" yMin="-12" xMax="956" yMax="1786">
      <component glyphName="R" x="0" y="0" flags="0x204"/>
      <component glyphName="caron" x="268" y="372" flags="0x4"/>
    </TTGlyph>
    <TTGlyph name="Rcommaaccent" xMin="64" yMin="-355" xMax="956" yMax="1440">
      <component glyphName="R" x="0" y="0" flags="0x204"/>
      <component glyphName="uni0326" x="369" y="-6" flags="0x4"/>
    </TTGlyph>
    <TTGlyph name="S" xMin="64" yMin="-12" xMax="876" yMax="1452">
      <contour>
        <pt x="876" y="380" on="1"/>
        <pt x="876" y="299" on="0"/>
        <pt x="835" y="156" on="0"/>
        <pt x="751" y="50" on="0"/>
        <pt x="622" y="-12" on="0"/>
        <pt x="534" y="-12" on="1"/>
        <pt x="481" y="-12" on="0"/>
        <pt x="397" y="7" on="0"/>
        <pt x="328" y="48" on="0"/>
        <pt x="269" y="112" on="0"/>
        <pt x="242" y="156" on="1"/>
        <pt x="240" y="2" on="1"/>
        <pt x="64" y="26" on="1"/>
        <pt x="96" y="484" on="1"/>
        <pt x="244" y="478" on="1"/>
        <pt x="253" y="425" on="0"/>
        <pt x="291" y="310" on="0"/>
        <pt x="354" y="214" on="0"/>
        <pt x="447" y="152" on="0"/>
        <pt x="512" y="152" on="1"/>
        <pt x="564" y="152" on="0"/>
        <pt x="635" y="186" on="0"/>
        <pt x="679" y="246" on="0"/>
        <pt x="698" y="328" on="0"/>
        <pt x="698" y="376" on="1"/>
        <pt x="698" y="430" on="0"/>
        <pt x="663" y="515" on="0"/>
        <pt x="601" y="580" on="0"/>
        <pt x="518" y="627" on="0"/>
        <pt x="470" y="644" on="1"/>
        <pt x="415" y="663" on="0"/>
        <pt x="314" y="705" on="0"/>
        <pt x="226" y="756" on="0"/>
        <pt x="153" y="819" on="0"/>
        <pt x="101" y="901" on="0"/>
        <pt x="72" y="1005" on="0"/>
        <pt x="72" y="1072" on="1"/>
        <pt x="72" y="1155" on="0"/>
        <pt x="122" y="1295" on="0"/>
        <pt x="216" y="1396" on="0"/>
        <pt x="350" y="1452" on="0"/>
        <pt x="434" y="1452" on="1"/>
        <pt x="487" y="1452" on="0"/>
        <pt x="564" y="1432" on="0"/>
        <pt x="624" y="1390" on="0"/>
        <pt x="674" y="1327" on="0"/>
        <pt x="700" y="1284" on="1"/>
        <pt x="702" y="1448" on="1"/>
        <pt x="876" y="1444" on="1"/>
        <pt x="854" y="934" on="1"/>
        <pt x="698" y="940" on="1"/>
        <pt x="691" y="977" on="0"/>
        <pt x="674" y="1056" on="0"/>
        <pt x="646" y="1130" on="0"/>
        <pt x="608" y="1197" on="0"/>
        <pt x="555" y="1247" on="0"/>
        <pt x="485" y="1276" on="0"/>
        <pt x="440" y="1276" on="1"/>
        <pt x="394" y="1276" on="0"/>
        <pt x="327" y="1241" on="0"/>
        <pt x="283" y="1182" on="0"/>
        <pt x="262" y="1105" on="0"/>
        <pt x="262" y="1064" on="1"/>
        <pt x="262" y="1006" on="0"/>
        <pt x="300" y="924" on="0"/>
        <pt x="365" y="865" on="0"/>
        <pt x="451" y="823" on="0"/>
        <pt x="500" y="806" on="1"/>
        <pt x="575" y="779" on="0"/>
        <pt x="711" y="705" on="0"/>
        <pt x="815" y="603" on="0"/>
        <pt x="876" y="468" on="0"/>
      </contour>
    </TTGlyph>
    <TTGlyph name="Sacute" xMin="64" yMin="-12" xMax="876" yMax="1788">
      <component glyphName="S" x="0" y="0" flags="0x204"/>
      <component glyphName="acute" x="447" y="394" flags="0x4"/>
    </TTGlyph>
    <TTGlyph name="Scaron" xMin="64" yMin="-12" xMax="876" yMax="1796">
      <component glyphName="S" x="0" y="0" flags="0x204"/>
      <component glyphName="caron" x="238" y="382" flags="0x4"/>
    </TTGlyph>
    <TTGlyph name="Scedilla" xMin="64" yMin="-356" xMax="876" yMax="1452">
      <contour>
        <pt x="625" y="-208" on="1"/>
        <pt x="625" y="-243" on="0"/>
        <pt x="598" y="-298" on="0"/>
        <pt x="553" y="-336" on="0"/>
        <pt x="494" y="-356" on="0"/>
        <pt x="461" y="-356" on="1"/>
        <pt x="446" y="-356" on="0"/>
        <pt x="409" y="-352" on="0"/>
        <pt x="372" y="-343" on="0"/>
        <pt x="338" y="-329" on="0"/>
        <pt x="327" y="-318" on="1"/>
        <pt x="375" y="-230" on="1"/>
        <pt x="387" y="-239" on="0"/>
        <pt x="430" y="-258" on="0"/>
        <pt x="447" y="-258" on="1"/>
        <pt x="476" y="-258" on="0"/>
        <pt x="511" y="-236" on="0"/>
        <pt x="511" y="-206" on="1"/>
        <pt x="511" y="-187" on="0"/>
        <pt x="493" y="-160" on="0"/>
        <pt x="465" y="-143" on="0"/>
        <pt x="432" y="-135" on="0"/>
        <pt x="417" y="-136" on="1"/>
        <pt x="409" y="-136" on="1"/>
        <pt x="435" y="-1" on="1"/>
        <pt x="372" y="13" on="0"/>
        <pt x="282" y="90" on="0"/>
        <pt x="242" y="156" on="1"/>
        <pt x="240" y="2" on="1"/>
        <pt x="64" y="26" on="1"/>
        <pt x="96" y="484" on="1"/>
        <pt x="244" y="478" on="1"/>
        <pt x="253" y="425" on="0"/>
        <pt x="291" y="310" on="0"/>
        <pt x="354" y="214" on="0"/>
        <pt x="447" y="152" on="0"/>
        <pt x="512" y="152" on="1"/>
        <pt x="564" y="152" on="0"/>
        <pt x="635" y="186" on="0"/>
        <pt x="679" y="246" on="0"/>
        <pt x="698" y="328" on="0"/>
        <pt x="698" y="376" on="1"/>
        <pt x="698" y="430" on="0"/>
        <pt x="663" y="515" on="0"/>
        <pt x="601" y="580" on="0"/>
        <pt x="518" y="627" on="0"/>
        <pt x="470" y="644" on="1"/>
        <pt x="415" y="663" on="0"/>
        <pt x="314" y="705" on="0"/>
        <pt x="226" y="756" on="0"/>
        <pt x="153" y="819" on="0"/>
        <pt x="101" y="901" on="0"/>
        <pt x="72" y="1005" on="0"/>
        <pt x="72" y="1072" on="1"/>
        <pt x="72" y="1155" on="0"/>
        <pt x="122" y="1295" on="0"/>
        <pt x="216" y="1396" on="0"/>
        <pt x="350" y="1452" on="0"/>
        <pt x="434" y="1452" on="1"/>
        <pt x="487" y="1452" on="0"/>
        <pt x="564" y="1432" on="0"/>
        <pt x="624" y="1390" on="0"/>
        <pt x="674" y="1327" on="0"/>
        <pt x="700" y="1284" on="1"/>
        <pt x="702" y="1448" on="1"/>
        <pt x="876" y="1444" on="1"/>
        <pt x="854" y="934" on="1"/>
        <pt x="698" y="940" on="1"/>
        <pt x="691" y="977" on="0"/>
        <pt x="674" y="1056" on="0"/>
        <pt x="646" y="1130" on="0"/>
        <pt x="608" y="1197" on="0"/>
        <pt x="555" y="1247" on="0"/>
        <pt x="485" y="1276" on="0"/>
        <pt x="440" y="1276" on="1"/>
        <pt x="394" y="1276" on="0"/>
        <pt x="327" y="1241" on="0"/>
        <pt x="283" y="1182" on="0"/>
        <pt x="262" y="1105" on="0"/>
        <pt x="262" y="1064" on="1"/>
        <pt x="262" y="1006" on="0"/>
        <pt x="300" y="924" on="0"/>
        <pt x="365" y="865" on="0"/>
        <pt x="451" y="823" on="0"/>
        <pt x="500" y="806" on="1"/>
        <pt x="575" y="779" on="0"/>
        <pt x="711" y="705" on="0"/>
        <pt x="815" y="603" on="0"/>
        <pt x="876" y="468" on="0"/>
        <pt x="876" y="380" on="1"/>
        <pt x="876" y="299" on="0"/>
        <pt x="835" y="157" on="0"/>
        <pt x="751" y="50" on="0"/>
        <pt x="622" y="-12" on="0"/>
        <pt x="535" y="-12" on="1"/>
        <pt x="505" y="-72" on="1"/>
        <pt x="533" y="-72" on="0"/>
        <pt x="577" y="-95" on="0"/>
        <pt x="608" y="-133" on="0"/>
        <pt x="625" y="-182" on="0"/>
      </contour>
    </TTGlyph>
    <TTGlyph name="Scircumflex" xMin="64" yMin="-12" xMax="876" yMax="1784">
      <component glyphName="S" x="0" y="0" flags="0x204"/>
      <component glyphName="circumflex" x="245" y="370" flags="0x4"/>
    </TTGlyph>
    <TTGlyph name="T" xMin="38" yMin="8" xMax="886" yMax="1436">
      <contour>
        <pt x="886" y="1002" on="1"/>
        <pt x="732" y="982" on="1"/>
        <pt x="722" y="1252" on="1"/>
        <pt x="556" y="1246" on="1"/>
        <pt x="546" y="194" on="1"/>
        <pt x="686" y="198" on="1"/>
        <pt x="676" y="18" on="1"/>
        <pt x="264" y="8" on="1"/>
        <pt x="258" y="194" on="1"/>
        <pt x="376" y="194" on="1"/>
        <pt x="374" y="1236" on="1"/>
        <pt x="194" y="1224" on="1"/>
        <pt x="204" y="972" on="1"/>
        <pt x="38" y="972" on="1"/>
        <pt x="48" y="1406" on="1"/>
        <pt x="866" y="1436" on="1"/>
      </contour>
    </TTGlyph>
    <TTGlyph name="Tbar" xMin="38" yMin="8" xMax="886" yMax="1436">
      <contour>
        <pt x="666" y="602" on="1"/>
        <pt x="550" y="605" on="1"/>
        <pt x="546" y="194" on="1"/>
        <pt x="686" y="198" on="1"/>
        <pt x="676" y="18" on="1"/>
        <pt x="264" y="8" on="1"/>
        <pt x="258" y="194" on="1"/>
        <pt x="376" y="194" on="1"/>
        <pt x="375" y="609" on="1"/>
        <pt x="254" y="612" on="1"/>
        <pt x="264" y="736" on="1"/>
        <pt x="375" y="736" on="1"/>
        <pt x="374" y="1236" on="1"/>
        <pt x="194" y="1224" on="1"/>
        <pt x="204" y="972" on="1"/>
        <pt x="38" y="972" on="1"/>
        <pt x="48" y="1406" on="1"/>
        <pt x="866" y="1436" on="1"/>
        <pt x="886" y="1002" on="1"/>
        <pt x="732" y="982" on="1"/>
        <pt x="722" y="1252" on="1"/>
        <pt x="556" y="1246" on="1"/>
        <pt x="551" y="736" on="1"/>
        <pt x="656" y="736" on="1"/>
      </contour>
    </TTGlyph>
    <TTGlyph name="Tcaron" xMin="38" yMin="8" xMax="886" yMax="1764">
      <component glyphName="T" x="0" y="0" flags="0x204"/>
      <component glyphName="caron" x="229" y="350" flags="0x4"/>
    </TTGlyph>
    <TTGlyph name="Tcommaaccent" xMin="38" yMin="-355" xMax="886" yMax="1436">
      <component glyphName="T" x="0" y="0" flags="0x204"/>
      <component glyphName="uni0326" x="329" y="-6" flags="0x4"/>
    </TTGlyph>
    <TTGlyph name="Thorn" xMin="65" yMin="8" xMax="945" yMax="1440">
      <contour>
        <pt x="945" y="720" on="1"/>
        <pt x="945" y="596" on="0"/>
        <pt x="865" y="428" on="0"/>
        <pt x="724" y="326" on="0"/>
        <pt x="533" y="281" on="0"/>
        <pt x="421" y="280" on="1"/>
        <pt x="365" y="280" on="1"/>
        <pt x="361" y="194" on="1"/>
        <pt x="501" y="198" on="1"/>
        <pt x="491" y="18" on="1"/>
        <pt x="79" y="8" on="1"/>
        <pt x="73" y="194" on="1"/>
        <pt x="191" y="194" on="1"/>
        <pt x="189" y="1242" on="1"/>
        <pt x="75" y="1238" on="1"/>
        <pt x="65" y="1432" on="1"/>
        <pt x="471" y="1440" on="1"/>
        <pt x="473" y="1260" on="1"/>
        <pt x="363" y="1250" on="1"/>
        <pt x="365" y="1140" on="1"/>
        <pt x="509" y="1140" on="1"/>
        <pt x="600" y="1140" on="0"/>
        <pt x="760" y="1079" on="0"/>
        <pt x="877" y="968" on="0"/>
        <pt x="945" y="814" on="0"/>
      </contour>
      <contour>
        <pt x="761" y="712" on="1"/>
        <pt x="761" y="763" on="0"/>
        <pt x="724" y="851" on="0"/>
        <pt x="660" y="915" on="0"/>
        <pt x="572" y="952" on="0"/>
        <pt x="521" y="952" on="1"/>
        <pt x="457" y="952" on="1"/>
        <pt x="371" y="952" on="1"/>
        <pt x="365" y="450" on="1"/>
        <pt x="415" y="450" on="1"/>
        <pt x="484" y="450" on="0"/>
        <pt x="609" y="467" on="0"/>
        <pt x="705" y="521" on="0"/>
        <pt x="761" y="625" on="0"/>
      </contour>
    </TTGlyph>
    <TTGlyph name="U" xMin="39" yMin="-36" xMax="1069" yMax="1446">
      <contour>
        <pt x="1069" y="1266" on="1"/>
        <pt x="955" y="1256" on="1"/>
        <pt x="955" y="722" on="1"/>
        <pt x="954" y="647" on="0"/>
        <pt x="945" y="476" on="0"/>
        <pt x="915" y="308" on="0"/>
        <pt x="859" y="153" on="0"/>
        <pt x="764" y="35" on="0"/>
        <pt x="625" y="-36" on="0"/>
        <pt x="527" y="-36" on="1"/>
        <pt x="443" y="-36" on="0"/>
        <pt x="321" y="28" on="0"/>
        <pt x="236" y="135" on="0"/>
        <pt x="184" y="274" on="0"/>
        <pt x="155" y="423" on="0"/>
        <pt x="145" y="571" on="0"/>
        <pt x="145" y="634" on="1"/>
        <pt x="145" y="782" on="0"/>
        <pt x="158" y="1077" on="0"/>
        <pt x="163" y="1226" on="1"/>
        <pt x="39" y="1222" on="1"/>
        <pt x="49" y="1416" on="1"/>
        <pt x="445" y="1416" on="1"/>
        <pt x="461" y="1236" on="1"/>
        <pt x="345" y="1226" on="1"/>
        <pt x="340" y="1072" on="0"/>
        <pt x="325" y="766" on="0"/>
        <pt x="325" y="612" on="1"/>
        <pt x="325" y="575" on="0"/>
        <pt x="327" y="480" on="0"/>
        <pt x="339" y="378" on="0"/>
        <pt x="365" y="280" on="0"/>
        <pt x="412" y="203" on="0"/>
        <pt x="484" y="156" on="0"/>
        <pt x="537" y="156" on="1"/>
        <pt x="597" y="156" on="0"/>
        <pt x="679" y="216" on="0"/>
        <pt x="731" y="314" on="0"/>
        <pt x="759" y="438" on="0"/>
        <pt x="771" y="564" on="0"/>
        <pt x="773" y="683" on="0"/>
        <pt x="773" y="726" on="1"/>
        <pt x="773" y="1256" on="1"/>
        <pt x="649" y="1252" on="1"/>
        <pt x="659" y="1446" on="1"/>
        <pt x="1055" y="1446" on="1"/>
      </contour>
    </TTGlyph>
    <TTGlyph name="Uacute" xMin="39" yMin="-36" xMax="1069" yMax="1744">
      <component glyphName="U" x="0" y="0" flags="0x204"/>
      <component glyphName="acute" x="495" y="350" flags="0x4"/>
    </TTGlyph>
    <TTGlyph name="Ubreve" xMin="39" yMin="-36" xMax="1069" yMax="1731">
      <component glyphName="U" x="0" y="0" flags="0x204"/>
      <component glyphName="breve" x="325" y="319" flags="0x4"/>
    </TTGlyph>
    <TTGlyph name="Ucircumflex" xMin="39" yMin="-36" xMax="1069" yMax="1784">
      <component glyphName="U" x="0" y="0" flags="0x204"/>
      <component glyphName="circumflex" x="323" y="370" flags="0x4"/>
    </TTGlyph>
    <TTGlyph name="Udieresis" xMin="39" yMin="-36" xMax="1069" yMax="1696">
      <component glyphName="U" x="0" y="0" flags="0x204"/>
      <component glyphName="dieresis" x="313" y="350" flags="0x4"/>
    </TTGlyph>
    <TTGlyph name="Ugrave" xMin="39" yMin="-36" xMax="1069" yMax="1764">
      <component glyphName="U" x="0" y="0" flags="0x204"/>
      <component glyphName="grave" x="295" y="370" flags="0x4"/>
    </TTGlyph>
    <TTGlyph name="Uhungarumlaut" xMin="39" yMin="-36" xMax="1069" yMax="1848">
      <component glyphName="U" x="0" y="0" flags="0x204"/>
      <component glyphName="hungarumlaut" x="409" y="394" flags="0x4"/>
    </TTGlyph>
    <TTGlyph name="Umacron" xMin="39" yMin="-36" xMax="1069" yMax="1637">
      <component glyphName="U" x="0" y="0" flags="0x204"/>
      <component glyphName="macron" x="346" y="247" flags="0x4"/>
    </TTGlyph>
    <TTGlyph name="Uogonek" xMin="39" yMin="-322" xMax="1069" yMax="1446">
      <contour>
        <pt x="676" y="-308" on="1"/>
        <pt x="655" y="-314" on="0"/>
        <pt x="613" y="-322" on="0"/>
        <pt x="590" y="-322" on="1"/>
        <pt x="552" y="-322" on="0"/>
        <pt x="488" y="-299" on="0"/>
        <pt x="443" y="-255" on="0"/>
        <pt x="418" y="-193" on="0"/>
        <pt x="418" y="-154" on="1"/>
        <pt x="418" y="-122" on="0"/>
        <pt x="438" y="-58" on="0"/>
        <pt x="455" y="-29" on="1"/>
        <pt x="387" y="-15" on="0"/>
        <pt x="289" y="61" on="0"/>
        <pt x="220" y="170" on="0"/>
        <pt x="177" y="302" on="0"/>
        <pt x="153" y="440" on="0"/>
        <pt x="145" y="576" on="0"/>
        <pt x="145" y="634" on="1"/>
        <pt x="145" y="782" on="0"/>
        <pt x="158" y="1077" on="0"/>
        <pt x="163" y="1226" on="1"/>
        <pt x="39" y="1222" on="1"/>
        <pt x="49" y="1416" on="1"/>
        <pt x="445" y="1416" on="1"/>
        <pt x="461" y="1236" on="1"/>
        <pt x="345" y="1226" on="1"/>
        <pt x="340" y="1072" on="0"/>
        <pt x="325" y="766" on="0"/>
        <pt x="325" y="612" on="1"/>
        <pt x="325" y="575" on="0"/>
        <pt x="327" y="480" on="0"/>
        <pt x="339" y="378" on="0"/>
        <pt x="365" y="280" on="0"/>
        <pt x="412" y="203" on="0"/>
        <pt x="484" y="156" on="0"/>
        <pt x="537" y="156" on="1"/>
        <pt x="597" y="156" on="0"/>
        <pt x="679" y="216" on="0"/>
        <pt x="731" y="314" on="0"/>
        <pt x="759" y="438" on="0"/>
        <pt x="771" y="564" on="0"/>
        <pt x="773" y="683" on="0"/>
        <pt x="773" y="726" on="1"/>
        <pt x="773" y="1256" on="1"/>
        <pt x="649" y="1252" on="1"/>
        <pt x="659" y="1446" on="1"/>
        <pt x="1055" y="1446" on="1"/>
        <pt x="1069" y="1266" on="1"/>
        <pt x="955" y="1256" on="1"/>
        <pt x="955" y="722" on="1"/>
        <pt x="954" y="649" on="0"/>
        <pt x="946" y="485" on="0"/>
        <pt x="918" y="322" on="0"/>
        <pt x="867" y="170" on="0"/>
        <pt x="781" y="51" on="0"/>
        <pt x="654" y="-27" on="0"/>
        <pt x="565" y="-34" on="1"/>
        <pt x="552" y="-59" on="0"/>
        <pt x="536" y="-109" on="0"/>
        <pt x="536" y="-132" on="1"/>
        <pt x="536" y="-167" on="0"/>
        <pt x="565" y="-202" on="0"/>
        <pt x="600" y="-202" on="1"/>
        <pt x="628" y="-202" on="0"/>
        <pt x="652" y="-190" on="1"/>
      </contour>
    </TTGlyph>
    <TTGlyph name="Uring" xMin="39" yMin="-36" xMax="1069" yMax="1832">
      <component glyphName="U" x="0" y="0" flags="0x204"/>
      <component glyphName="ring" x="370" y="310" flags="0x4"/>
    </TTGlyph>
    <TTGlyph name="Utilde" xMin="39" yMin="-36" xMax="1069" yMax="1719">
      <component glyphName="U" x="0" y="0" flags="0x204"/>
      <component glyphName="tilde" x="309" y="323" flags="0x4"/>
    </TTGlyph>
    <TTGlyph name="V" xMin="-10" yMin="-18" xMax="970" yMax="1446">
      <contour>
        <pt x="970" y="1256" on="1"/>
        <pt x="846" y="1246" on="1"/>
        <pt x="588" y="-18" on="1"/>
        <pt x="362" y="-6" on="1"/>
        <pt x="114" y="1226" on="1"/>
        <pt x="-10" y="1222" on="1"/>
        <pt x="0" y="1416" on="1"/>
        <pt x="406" y="1416" on="1"/>
        <pt x="422" y="1236" on="1"/>
        <pt x="306" y="1226" on="1"/>
        <pt x="476" y="204" on="1"/>
        <pt x="664" y="1246" on="1"/>
        <pt x="540" y="1242" on="1"/>
        <pt x="550" y="1436" on="1"/>
        <pt x="956" y="1446" on="1"/>
      </contour>
    </TTGlyph>
    <TTGlyph name="W" xMin="9" yMin="-18" xMax="1283" yMax="1446">
      <contour>
        <pt x="1283" y="1252" on="1"/>
        <pt x="1159" y="1256" on="1"/>
        <pt x="1011" y="-6" on="1"/>
        <pt x="755" y="-18" on="1"/>
        <pt x="641" y="958" on="1"/>
        <pt x="515" y="12" on="1"/>
        <pt x="241" y="4" on="1"/>
        <pt x="133" y="1226" on="1"/>
        <pt x="9" y="1222" on="1"/>
        <pt x="19" y="1416" on="1"/>
        <pt x="385" y="1416" on="1"/>
        <pt x="401" y="1236" on="1"/>
        <pt x="325" y="1226" on="1"/>
        <pt x="385" y="214" on="1"/>
        <pt x="541" y="1212" on="1"/>
        <pt x="479" y="1222" on="1"/>
        <pt x="489" y="1396" on="1"/>
        <pt x="795" y="1406" on="1"/>
        <pt x="807" y="1242" on="1"/>
        <pt x="739" y="1222" on="1"/>
        <pt x="887" y="244" on="1"/>
        <pt x="967" y="1256" on="1"/>
        <pt x="891" y="1266" on="1"/>
        <pt x="907" y="1446" on="1"/>
        <pt x="1273" y="1446" on="1"/>
      </contour>
    </TTGlyph>
    <TTGlyph name="Wacute" xMin="9" yMin="-18" xMax="1283" yMax="1744">
      <component glyphName="W" x="0" y="0" flags="0x204"/>
      <component glyphName="acute" x="610" y="350" flags="0x4"/>
    </TTGlyph>
    <TTGlyph name="Wcircumflex" xMin="9" yMin="-18" xMax="1283" yMax="1742">
      <component glyphName="W" x="0" y="0" flags="0x204"/>
      <component glyphName="circumflex" x="413" y="328" flags="0x4"/>
    </TTGlyph>
    <TTGlyph name="Wdieresis" xMin="9" yMin="-18" xMax="1283" yMax="1673">
      <component glyphName="W" x="0" y="0" flags="0x204"/>
      <component glyphName="dieresis" x="403" y="327" flags="0x4"/>
    </TTGlyph>
    <TTGlyph name="Wgrave" xMin="9" yMin="-18" xMax="1283" yMax="1744">
      <component glyphName="W" x="0" y="0" flags="0x204"/>
      <component glyphName="grave" x="366" y="350" flags="0x4"/>
    </TTGlyph>
    <TTGlyph name="X" xMin="17" yMin="-22" xMax="997" yMax="1426">
      <contour>
        <pt x="997" y="1236" on="1"/>
        <pt x="873" y="1226" on="1"/>
        <pt x="597" y="706" on="1"/>
        <pt x="855" y="162" on="1"/>
        <pt x="997" y="168" on="1"/>
        <pt x="985" y="-12" on="1"/>
        <pt x="563" y="-22" on="1"/>
        <pt x="557" y="162" on="1"/>
        <pt x="675" y="162" on="1"/>
        <pt x="497" y="550" on="1"/>
        <pt x="329" y="172" on="1"/>
        <pt x="461" y="178" on="1"/>
        <pt x="451" y="-2" on="1"/>
        <pt x="27" y="-12" on="1"/>
        <pt x="21" y="172" on="1"/>
        <pt x="139" y="172" on="1"/>
        <pt x="403" y="700" on="1"/>
        <pt x="141" y="1226" on="1"/>
        <pt x="17" y="1222" on="1"/>
        <pt x="27" y="1416" on="1"/>
        <pt x="433" y="1416" on="1"/>
        <pt x="449" y="1236" on="1"/>
        <pt x="333" y="1226" on="1"/>
        <pt x="503" y="848" on="1"/>
        <pt x="691" y="1226" on="1"/>
        <pt x="567" y="1222" on="1"/>
        <pt x="577" y="1416" on="1"/>
        <pt x="983" y="1426" on="1"/>
      </contour>
    </TTGlyph>
    <TTGlyph name="Y" xMin="-10" yMin="8" xMax="970" yMax="1426">
      <contour>
        <pt x="970" y="1236" on="1"/>
        <pt x="846" y="1226" on="1"/>
        <pt x="558" y="524" on="1"/>
        <pt x="554" y="194" on="1"/>
        <pt x="694" y="198" on="1"/>
        <pt x="684" y="18" on="1"/>
        <pt x="272" y="8" on="1"/>
        <pt x="266" y="194" on="1"/>
        <pt x="384" y="194" on="1"/>
        <pt x="382" y="528" on="1"/>
        <pt x="114" y="1226" on="1"/>
        <pt x="-10" y="1222" on="1"/>
        <pt x="0" y="1416" on="1"/>
        <pt x="406" y="1416" on="1"/>
        <pt x="422" y="1236" on="1"/>
        <pt x="306" y="1226" on="1"/>
        <pt x="476" y="686" on="1"/>
        <pt x="664" y="1226" on="1"/>
        <pt x="540" y="1222" on="1"/>
        <pt x="550" y="1416" on="1"/>
        <pt x="956" y="1426" on="1"/>
      </contour>
    </TTGlyph>
    <TTGlyph name="Yacute" xMin="-10" yMin="8" xMax="970" yMax="1764">
      <component glyphName="Y" x="0" y="0" flags="0x204"/>
      <component glyphName="acute" x="422" y="370" flags="0x4"/>
    </TTGlyph>
    <TTGlyph name="Ycircumflex" xMin="-10" yMin="8" xMax="970" yMax="1764">
      <component glyphName="Y" x="0" y="0" flags="0x204"/>
      <component glyphName="circumflex" x="248" y="350" flags="0x4"/>
    </TTGlyph>
    <TTGlyph name="Ydieresis" xMin="-10" yMin="8" xMax="970" yMax="1696">
      <component glyphName="Y" x="0" y="0" flags="0x204"/>
      <component glyphName="dieresis" x="238" y="350" flags="0x4"/>
    </TTGlyph>
    <TTGlyph name="Ygrave" xMin="-10" yMin="8" xMax="970" yMax="1744">
      <component glyphName="Y" x="0" y="0" flags="0x204"/>
      <component glyphName="grave" x="205" y="350" flags="0x4"/>
    </TTGlyph>
    <TTGlyph name="Z" xMin="55" yMin="8" xMax="805" yMax="1420">
      <contour>
        <pt x="805" y="18" on="1"/>
        <pt x="67" y="8" on="1"/>
        <pt x="61" y="194" on="1"/>
        <pt x="603" y="1236" on="1"/>
        <pt x="221" y="1234" on="1"/>
        <pt x="231" y="982" on="1"/>
        <pt x="55" y="982" on="1"/>
        <pt x="65" y="1416" on="1"/>
        <pt x="793" y="1420" on="1"/>
        <pt x="795" y="1226" on="1"/>
        <pt x="251" y="194" on="1"/>
        <pt x="639" y="196" on="1"/>
        <pt x="639" y="454" on="1"/>
        <pt x="795" y="464" on="1"/>
      </contour>
    </TTGlyph>
    <TTGlyph name="Zacute" xMin="55" yMin="8" xMax="805" yMax="1764">
      <component glyphName="Z" x="0" y="0" flags="0x204"/>
      <component glyphName="acute" x="387" y="370" flags="0x4"/>
    </TTGlyph>
    <TTGlyph name="Zcaron" xMin="55" yMin="8" xMax="805" yMax="1764">
      <component glyphName="Z" x="0" y="0" flags="0x204"/>
      <component glyphName="caron" x="199" y="350" flags="0x4"/>
    </TTGlyph>
    <TTGlyph name="Zdotaccent" xMin="55" yMin="8" xMax="805" yMax="1696">
      <component glyphName="Z" x="0" y="0" flags="0x204"/>
      <component glyphName="dotaccent" x="328" y="350" flags="0x4"/>
    </TTGlyph>
    <TTGlyph name="a" xMin="62" yMin="-10" xMax="740" yMax="1028">
      <contour>
        <pt x="740" y="170" on="1"/>
        <pt x="736" y="10" on="1"/>
        <pt x="530" y="-10" on="1"/>
        <pt x="520" y="106" on="1"/>
        <pt x="499" y="83" on="0"/>
        <pt x="444" y="42" on="0"/>
        <pt x="381" y="9" on="0"/>
        <pt x="314" y="-10" on="0"/>
        <pt x="282" y="-10" on="1"/>
        <pt x="220" y="-10" on="0"/>
        <pt x="135" y="39" on="0"/>
        <pt x="84" y="120" on="0"/>
        <pt x="62" y="224" on="0"/>
        <pt x="62" y="278" on="1"/>
        <pt x="62" y="346" on="0"/>
        <pt x="107" y="458" on="0"/>
        <pt x="188" y="537" on="0"/>
        <pt x="302" y="580" on="0"/>
        <pt x="370" y="580" on="1"/>
        <pt x="397" y="580" on="0"/>
        <pt x="450" y="573" on="0"/>
        <pt x="476" y="564" on="1"/>
        <pt x="478" y="581" on="0"/>
        <pt x="478" y="611" on="0"/>
        <pt x="478" y="628" on="1"/>
        <pt x="478" y="637" on="0"/>
        <pt x="476" y="678" on="0"/>
        <pt x="471" y="729" on="0"/>
        <pt x="461" y="784" on="0"/>
        <pt x="444" y="829" on="0"/>
        <pt x="421" y="858" on="0"/>
        <pt x="404" y="858" on="1"/>
        <pt x="385" y="858" on="0"/>
        <pt x="349" y="832" on="0"/>
        <pt x="317" y="791" on="0"/>
        <pt x="290" y="740" on="0"/>
        <pt x="268" y="690" on="0"/>
        <pt x="252" y="647" on="0"/>
        <pt x="248" y="634" on="1"/>
        <pt x="78" y="642" on="1"/>
        <pt x="72" y="1014" on="1"/>
        <pt x="238" y="1018" on="1"/>
        <pt x="238" y="872" on="1"/>
        <pt x="248" y="898" on="0"/>
        <pt x="282" y="954" on="0"/>
        <pt x="327" y="999" on="0"/>
        <pt x="382" y="1028" on="0"/>
        <pt x="414" y="1028" on="1"/>
        <pt x="490" y="1028" on="0"/>
        <pt x="583" y="982" on="0"/>
        <pt x="632" y="899" on="0"/>
        <pt x="648" y="782" on="0"/>
        <pt x="648" y="712" on="1"/>
        <pt x="648" y="576" on="0"/>
        <pt x="644" y="306" on="0"/>
        <pt x="632" y="170" on="1"/>
      </contour>
      <contour>
        <pt x="482" y="238" on="1"/>
        <pt x="482" y="384" on="1"/>
        <pt x="468" y="404" on="0"/>
        <pt x="413" y="416" on="0"/>
        <pt x="390" y="416" on="1"/>
        <pt x="318" y="416" on="0"/>
        <pt x="228" y="345" on="0"/>
        <pt x="228" y="268" on="1"/>
        <pt x="228" y="221" on="0"/>
        <pt x="278" y="156" on="0"/>
        <pt x="328" y="156" on="1"/>
        <pt x="344" y="156" on="0"/>
        <pt x="397" y="165" on="0"/>
        <pt x="446" y="185" on="0"/>
        <pt x="482" y="216" on="0"/>
      </contour>
    </TTGlyph>
    <TTGlyph name="aacute" xMin="62" yMin="-10" xMax="740" yMax="1394">
      <component glyphName="a" x="0" y="0" flags="0x204"/>
      <component glyphName="acute" x="342" y="0" flags="0x4"/>
    </TTGlyph>
    <TTGlyph name="abreve" xMin="62" yMin="-10" xMax="740" yMax="1338">
      <component glyphName="a" x="0" y="0" flags="0x204"/>
      <component glyphName="breve" x="156" y="-74" flags="0x4"/>
    </TTGlyph>
    <TTGlyph name="acircumflex" xMin="62" yMin="-10" xMax="740" yMax="1375">
      <component glyphName="a" x="0" y="0" flags="0x204"/>
      <component glyphName="circumflex" x="170" y="-39" flags="0x4"/>
    </TTGlyph>
    <TTGlyph name="acute" xMin="0" yMin="1112" xMax="316" yMax="1394">
      <contour>
        <pt x="316" y="1344" on="1"/>
        <pt x="94" y="1112" on="1"/>
        <pt x="0" y="1142" on="1"/>
        <pt x="130" y="1394" on="1"/>
      </contour>
    </TTGlyph>
    <TTGlyph name="adieresis" xMin="62" yMin="-10" xMax="740" yMax="1307">
      <component glyphName="a" x="0" y="0" flags="0x204"/>
      <component glyphName="dieresis" x="140" y="-39" flags="0x4"/>
    </TTGlyph>
    <TTGlyph name="ae" xMin="62" yMin="-12" xMax="1096" yMax="1040">
      <contour>
        <pt x="1096" y="606" on="1"/>
        <pt x="1096" y="524" on="0"/>
        <pt x="1090" y="446" on="1"/>
        <pt x="660" y="438" on="1"/>
        <pt x="660" y="417" on="0"/>
        <pt x="664" y="358" on="0"/>
        <pt x="673" y="293" on="0"/>
        <pt x="690" y="230" on="0"/>
        <pt x="718" y="179" on="0"/>
        <pt x="759" y="148" on="0"/>
        <pt x="788" y="148" on="1"/>
        <pt x="819" y="148" on="0"/>
        <pt x="864" y="181" on="0"/>
        <pt x="893" y="230" on="0"/>
        <pt x="909" y="288" on="0"/>
        <pt x="912" y="314" on="1"/>
        <pt x="1086" y="314" on="1"/>
        <pt x="1077" y="257" on="0"/>
        <pt x="1035" y="141" on="0"/>
        <pt x="965" y="47" on="0"/>
        <pt x="865" y="-12" on="0"/>
        <pt x="798" y="-12" on="1"/>
        <pt x="718" y="-12" on="0"/>
        <pt x="610" y="54" on="0"/>
        <pt x="574" y="108" on="1"/>
        <pt x="551" y="88" on="0"/>
        <pt x="492" y="47" on="0"/>
        <pt x="418" y="12" on="0"/>
        <pt x="331" y="-10" on="0"/>
        <pt x="282" y="-10" on="1"/>
        <pt x="220" y="-10" on="0"/>
        <pt x="135" y="39" on="0"/>
        <pt x="84" y="120" on="0"/>
        <pt x="62" y="224" on="0"/>
        <pt x="62" y="278" on="1"/>
        <pt x="62" y="346" on="0"/>
        <pt x="107" y="458" on="0"/>
        <pt x="188" y="537" on="0"/>
        <pt x="302" y="580" on="0"/>
        <pt x="370" y="580" on="1"/>
        <pt x="397" y="580" on="0"/>
        <pt x="450" y="573" on="0"/>
        <pt x="476" y="564" on="1"/>
        <pt x="478" y="581" on="0"/>
        <pt x="478" y="611" on="0"/>
        <pt x="478" y="628" on="1"/>
        <pt x="478" y="637" on="0"/>
        <pt x="476" y="678" on="0"/>
        <pt x="471" y="729" on="0"/>
        <pt x="461" y="784" on="0"/>
        <pt x="444" y="829" on="0"/>
        <pt x="421" y="858" on="0"/>
        <pt x="404" y="858" on="1"/>
        <pt x="385" y="858" on="0"/>
        <pt x="349" y="832" on="0"/>
        <pt x="317" y="791" on="0"/>
        <pt x="290" y="740" on="0"/>
        <pt x="268" y="690" on="0"/>
        <pt x="252" y="647" on="0"/>
        <pt x="248" y="634" on="1"/>
        <pt x="78" y="642" on="1"/>
        <pt x="72" y="1014" on="1"/>
        <pt x="238" y="1018" on="1"/>
        <pt x="238" y="872" on="1"/>
        <pt x="248" y="898" on="0"/>
        <pt x="282" y="954" on="0"/>
        <pt x="327" y="999" on="0"/>
        <pt x="382" y="1028" on="0"/>
        <pt x="414" y="1028" on="1"/>
        <pt x="483" y="1028" on="0"/>
        <pt x="571" y="991" on="0"/>
        <pt x="598" y="956" on="1"/>
        <pt x="631" y="995" on="0"/>
        <pt x="725" y="1040" on="0"/>
        <pt x="788" y="1040" on="1"/>
        <pt x="894" y="1040" on="0"/>
        <pt x="1016" y="973" on="0"/>
        <pt x="1079" y="856" on="0"/>
        <pt x="1096" y="697" on="0"/>
      </contour>
      <contour>
        <pt x="922" y="664" on="1"/>
        <pt x="922" y="694" on="0"/>
        <pt x="915" y="770" on="0"/>
        <pt x="890" y="838" on="0"/>
        <pt x="842" y="884" on="0"/>
        <pt x="802" y="884" on="1"/>
        <pt x="767" y="884" on="0"/>
        <pt x="719" y="853" on="0"/>
        <pt x="687" y="803" on="0"/>
        <pt x="669" y="738" on="0"/>
        <pt x="661" y="671" on="0"/>
        <pt x="658" y="607" on="0"/>
        <pt x="658" y="582" on="1"/>
        <pt x="916" y="582" on="1"/>
        <pt x="922" y="624" on="0"/>
      </contour>
      <contour>
        <pt x="482" y="238" on="1"/>
        <pt x="482" y="384" on="1"/>
        <pt x="468" y="404" on="0"/>
        <pt x="413" y="416" on="0"/>
        <pt x="390" y="416" on="1"/>
        <pt x="318" y="416" on="0"/>
        <pt x="228" y="345" on="0"/>
        <pt x="228" y="268" on="1"/>
        <pt x="228" y="221" on="0"/>
        <pt x="278" y="156" on="0"/>
        <pt x="328" y="156" on="1"/>
        <pt x="344" y="156" on="0"/>
        <pt x="397" y="165" on="0"/>
        <pt x="446" y="185" on="0"/>
        <pt x="482" y="216" on="0"/>
      </contour>
    </TTGlyph>
    <TTGlyph name="aeacute" xMin="62" yMin="-12" xMax="1096" yMax="1345">
      <component glyphName="ae" x="0" y="0" flags="0x204"/>
      <component glyphName="acute" x="535" y="-49" flags="0x4"/>
    </TTGlyph>
    <TTGlyph name="agrave" xMin="62" yMin="-10" xMax="740" yMax="1394">
      <component glyphName="a" x="0" y="0" flags="0x204"/>
      <component glyphName="grave" x="142" y="0" flags="0x4"/>
    </TTGlyph>
    <TTGlyph name="amacron" xMin="62" yMin="-10" xMax="740" yMax="1213">
      <component glyphName="a" x="0" y="0" flags="0x204"/>
      <component glyphName="macron" x="177" y="-177" flags="0x4"/>
    </TTGlyph>
    <TTGlyph name="ampersand" xMin="32" yMin="-10" xMax="1076" yMax="1458">
      <contour>
        <pt x="1076" y="708" on="1"/>
        <pt x="1067" y="668" on="0"/>
        <pt x="1035" y="553" on="0"/>
        <pt x="996" y="433" on="0"/>
        <pt x="953" y="325" on="0"/>
        <pt x="932" y="292" on="1"/>
        <pt x="1046" y="114" on="1"/>
        <pt x="886" y="-10" on="1"/>
        <pt x="800" y="124" on="1"/>
        <pt x="775" y="90" on="0"/>
        <pt x="700" y="42" on="0"/>
        <pt x="614" y="12" on="0"/>
        <pt x="524" y="-2" on="0"/>
        <pt x="484" y="-2" on="1"/>
        <pt x="443" y="-2" on="0"/>
        <pt x="360" y="14" on="0"/>
        <pt x="322" y="28" on="1"/>
        <pt x="176" y="81" on="0"/>
        <pt x="32" y="302" on="0"/>
        <pt x="32" y="454" on="1"/>
        <pt x="32" y="527" on="0"/>
        <pt x="77" y="660" on="0"/>
        <pt x="155" y="773" on="0"/>
        <pt x="262" y="865" on="0"/>
        <pt x="324" y="898" on="1"/>
        <pt x="288" y="955" on="0"/>
        <pt x="246" y="1080" on="0"/>
        <pt x="246" y="1146" on="1"/>
        <pt x="246" y="1205" on="0"/>
        <pt x="268" y="1258" on="1"/>
        <pt x="301" y="1350" on="0"/>
        <pt x="434" y="1458" on="0"/>
        <pt x="534" y="1458" on="1"/>
        <pt x="602" y="1458" on="0"/>
        <pt x="709" y="1412" on="0"/>
        <pt x="782" y="1331" on="0"/>
        <pt x="820" y="1219" on="0"/>
        <pt x="820" y="1154" on="1"/>
        <pt x="820" y="1097" on="0"/>
        <pt x="784" y="1000" on="0"/>
        <pt x="721" y="920" on="0"/>
        <pt x="637" y="856" on="0"/>
        <pt x="588" y="832" on="1"/>
        <pt x="802" y="442" on="1"/>
        <pt x="838" y="519" on="0"/>
        <pt x="880" y="683" on="0"/>
        <pt x="892" y="768" on="1"/>
      </contour>
      <contour>
        <pt x="656" y="1160" on="1"/>
        <pt x="656" y="1217" on="0"/>
        <pt x="598" y="1290" on="0"/>
        <pt x="538" y="1290" on="1"/>
        <pt x="509" y="1290" on="0"/>
        <pt x="464" y="1267" on="0"/>
        <pt x="433" y="1228" on="0"/>
        <pt x="416" y="1178" on="0"/>
        <pt x="416" y="1152" on="1"/>
        <pt x="416" y="1104" on="0"/>
        <pt x="456" y="1002" on="0"/>
        <pt x="486" y="966" on="1"/>
        <pt x="517" y="976" on="0"/>
        <pt x="578" y="1012" on="0"/>
        <pt x="626" y="1063" on="0"/>
        <pt x="656" y="1125" on="0"/>
      </contour>
      <contour>
        <pt x="690" y="286" on="1"/>
        <pt x="412" y="768" on="1"/>
        <pt x="326" y="721" on="0"/>
        <pt x="234" y="562" on="0"/>
        <pt x="234" y="464" on="1"/>
        <pt x="234" y="330" on="0"/>
        <pt x="367" y="184" on="0"/>
        <pt x="500" y="184" on="1"/>
        <pt x="556" y="184" on="0"/>
        <pt x="661" y="239" on="0"/>
      </contour>
    </TTGlyph>
    <TTGlyph name="aogonek" xMin="62" yMin="-322" xMax="740" yMax="1028">
      <contour>
        <pt x="740" y="-308" on="1"/>
        <pt x="719" y="-314" on="0"/>
        <pt x="677" y="-322" on="0"/>
        <pt x="654" y="-322" on="1"/>
        <pt x="616" y="-322" on="0"/>
        <pt x="552" y="-299" on="0"/>
        <pt x="507" y="-255" on="0"/>
        <pt x="482" y="-193" on="0"/>
        <pt x="482" y="-154" on="1"/>
        <pt x="482" y="-117" on="0"/>
        <pt x="508" y="-43" on="0"/>
        <pt x="530" y="-10" on="1"/>
        <pt x="520" y="106" on="1"/>
        <pt x="499" y="83" on="0"/>
        <pt x="444" y="42" on="0"/>
        <pt x="381" y="9" on="0"/>
        <pt x="314" y="-10" on="0"/>
        <pt x="282" y="-10" on="1"/>
        <pt x="220" y="-10" on="0"/>
        <pt x="135" y="39" on="0"/>
        <pt x="84" y="120" on="0"/>
        <pt x="62" y="224" on="0"/>
        <pt x="62" y="278" on="1"/>
        <pt x="62" y="346" on="0"/>
        <pt x="107" y="458" on="0"/>
        <pt x="188" y="537" on="0"/>
        <pt x="302" y="580" on="0"/>
        <pt x="370" y="580" on="1"/>
        <pt x="397" y="580" on="0"/>
        <pt x="450" y="573" on="0"/>
        <pt x="476" y="564" on="1"/>
        <pt x="478" y="581" on="0"/>
        <pt x="478" y="611" on="0"/>
        <pt x="478" y="628" on="1"/>
        <pt x="478" y="637" on="0"/>
        <pt x="476" y="678" on="0"/>
        <pt x="471" y="729" on="0"/>
        <pt x="461" y="784" on="0"/>
        <pt x="444" y="829" on="0"/>
        <pt x="421" y="858" on="0"/>
        <pt x="404" y="858" on="1"/>
        <pt x="385" y="858" on="0"/>
        <pt x="349" y="832" on="0"/>
        <pt x="317" y="791" on="0"/>
        <pt x="290" y="740" on="0"/>
        <pt x="268" y="690" on="0"/>
        <pt x="252" y="647" on="0"/>
        <pt x="248" y="634" on="1"/>
        <pt x="78" y="642" on="1"/>
        <pt x="72" y="1014" on="1"/>
        <pt x="238" y="1018" on="1"/>
        <pt x="238" y="872" on="1"/>
        <pt x="248" y="898" on="0"/>
        <pt x="282" y="954" on="0"/>
        <pt x="327" y="999" on="0"/>
        <pt x="382" y="1028" on="0"/>
        <pt x="414" y="1028" on="1"/>
        <pt x="490" y="1028" on="0"/>
        <pt x="583" y="982" on="0"/>
        <pt x="632" y="899" on="0"/>
        <pt x="648" y="782" on="0"/>
        <pt x="648" y="712" on="1"/>
        <pt x="648" y="576" on="0"/>
        <pt x="644" y="306" on="0"/>
        <pt x="632" y="170" on="1"/>
        <pt x="740" y="170" on="1"/>
        <pt x="736" y="10" on="1"/>
        <pt x="649" y="1" on="1"/>
        <pt x="629" y="-30" on="0"/>
        <pt x="600" y="-100" on="0"/>
        <pt x="600" y="-132" on="1"/>
        <pt x="600" y="-167" on="0"/>
        <pt x="629" y="-202" on="0"/>
        <pt x="664" y="-202" on="1"/>
        <pt x="692" y="-202" on="0"/>
        <pt x="716" y="-190" on="1"/>
      </contour>
      <contour>
        <pt x="482" y="238" on="1"/>
        <pt x="482" y="384" on="1"/>
        <pt x="468" y="404" on="0"/>
        <pt x="413" y="416" on="0"/>
        <pt x="390" y="416" on="1"/>
        <pt x="318" y="416" on="0"/>
        <pt x="228" y="345" on="0"/>
        <pt x="228" y="268" on="1"/>
        <pt x="228" y="221" on="0"/>
        <pt x="278" y="156" on="0"/>
        <pt x="328" y="156" on="1"/>
        <pt x="344" y="156" on="0"/>
        <pt x="397" y="165" on="0"/>
        <pt x="446" y="185" on="0"/>
        <pt x="482" y="216" on="0"/>
      </contour>
    </TTGlyph>
    <TTGlyph name="approxequal" xMin="69" yMin="444" xMax="931" yMax="1082">
      <contour>
        <pt x="931" y="922" on="1"/>
        <pt x="909" y="898" on="0"/>
        <pt x="848" y="845" on="0"/>
        <pt x="778" y="801" on="0"/>
        <pt x="703" y="772" on="0"/>
        <pt x="669" y="772" on="1"/>
        <pt x="622" y="772" on="0"/>
        <pt x="535" y="811" on="0"/>
        <pt x="454" y="857" on="0"/>
        <pt x="375" y="896" on="0"/>
        <pt x="335" y="896" on="1"/>
        <pt x="314" y="896" on="0"/>
        <pt x="257" y="864" on="0"/>
        <pt x="200" y="821" on="0"/>
        <pt x="152" y="777" on="0"/>
        <pt x="139" y="764" on="1"/>
        <pt x="69" y="932" on="1"/>
        <pt x="91" y="955" on="0"/>
        <pt x="156" y="1008" on="0"/>
        <pt x="228" y="1053" on="0"/>
        <pt x="304" y="1082" on="0"/>
        <pt x="339" y="1082" on="1"/>
        <pt x="385" y="1082" on="0"/>
        <pt x="463" y="1043" on="0"/>
        <pt x="539" y="997" on="0"/>
        <pt x="619" y="958" on="0"/>
        <pt x="669" y="958" on="1"/>
        <pt x="694" y="958" on="0"/>
        <pt x="748" y="974" on="0"/>
        <pt x="799" y="1000" on="0"/>
        <pt x="844" y="1033" on="0"/>
        <pt x="861" y="1050" on="1"/>
      </contour>
      <contour>
        <pt x="931" y="602" on="1"/>
        <pt x="909" y="578" on="0"/>
        <pt x="848" y="525" on="0"/>
        <pt x="778" y="481" on="0"/>
        <pt x="703" y="452" on="0"/>
        <pt x="669" y="452" on="1"/>
        <pt x="622" y="452" on="0"/>
        <pt x="535" y="491" on="0"/>
        <pt x="454" y="537" on="0"/>
        <pt x="375" y="576" on="0"/>
        <pt x="335" y="576" on="1"/>
        <pt x="314" y="576" on="0"/>
        <pt x="257" y="544" on="0"/>
        <pt x="200" y="501" on="0"/>
        <pt x="152" y="457" on="0"/>
        <pt x="139" y="444" on="1"/>
        <pt x="69" y="612" on="1"/>
        <pt x="91" y="635" on="0"/>
        <pt x="156" y="688" on="0"/>
        <pt x="228" y="733" on="0"/>
        <pt x="304" y="762" on="0"/>
        <pt x="339" y="762" on="1"/>
        <pt x="385" y="762" on="0"/>
        <pt x="463" y="723" on="0"/>
        <pt x="539" y="677" on="0"/>
        <pt x="619" y="638" on="0"/>
        <pt x="669" y="638" on="1"/>
        <pt x="694" y="638" on="0"/>
        <pt x="748" y="654" on="0"/>
        <pt x="799" y="680" on="0"/>
        <pt x="844" y="713" on="0"/>
        <pt x="861" y="730" on="1"/>
      </contour>
    </TTGlyph>
    <TTGlyph name="aring" xMin="62" yMin="-10" xMax="740" yMax="1443">
      <component glyphName="a" x="0" y="0" flags="0x204"/>
      <component glyphName="ring" x="218" y="-79" flags="0x4"/>
    </TTGlyph>
    <TTGlyph name="asciicircum" xMin="0" yMin="786" xMax="750" yMax="1426">
      <contour>
        <pt x="750" y="826" on="1"/>
        <pt x="566" y="796" on="1"/>
        <pt x="374" y="1296" on="1"/>
        <pt x="176" y="786" on="1"/>
        <pt x="0" y="816" on="1"/>
        <pt x="260" y="1406" on="1"/>
        <pt x="468" y="1426" on="1"/>
      </contour>
    </TTGlyph>
    <TTGlyph name="asciitilde" xMin="44" yMin="604" xMax="906" yMax="922">
      <contour>
        <pt x="906" y="762" on="1"/>
        <pt x="884" y="738" on="0"/>
        <pt x="823" y="685" on="0"/>
        <pt x="753" y="641" on="0"/>
        <pt x="678" y="612" on="0"/>
        <pt x="644" y="612" on="1"/>
        <pt x="597" y="612" on="0"/>
        <pt x="510" y="651" on="0"/>
        <pt x="429" y="697" on="0"/>
        <pt x="350" y="736" on="0"/>
        <pt x="310" y="736" on="1"/>
        <pt x="289" y="736" on="0"/>
        <pt x="232" y="704" on="0"/>
        <pt x="175" y="661" on="0"/>
        <pt x="127" y="617" on="0"/>
        <pt x="114" y="604" on="1"/>
        <pt x="44" y="772" on="1"/>
        <pt x="66" y="795" on="0"/>
        <pt x="131" y="848" on="0"/>
        <pt x="203" y="893" on="0"/>
        <pt x="279" y="922" on="0"/>
        <pt x="314" y="922" on="1"/>
        <pt x="360" y="922" on="0"/>
        <pt x="438" y="883" on="0"/>
        <pt x="514" y="837" on="0"/>
        <pt x="594" y="798" on="0"/>
        <pt x="644" y="798" on="1"/>
        <pt x="669" y="798" on="0"/>
        <pt x="723" y="814" on="0"/>
        <pt x="774" y="840" on="0"/>
        <pt x="819" y="873" on="0"/>
        <pt x="836" y="890" on="1"/>
      </contour>
    </TTGlyph>
    <TTGlyph name="asterisk" xMin="55" yMin="582" xMax="805" yMax="1360">
      <contour>
        <pt x="439" y="844" on="1"/>
        <pt x="241" y="582" on="1"/>
        <pt x="97" y="688" on="1"/>
        <pt x="297" y="906" on="1"/>
        <pt x="55" y="1014" on="1"/>
        <pt x="115" y="1180" on="1"/>
        <pt x="359" y="1042" on="1"/>
        <pt x="347" y="1360" on="1"/>
        <pt x="523" y="1360" on="1"/>
        <pt x="511" y="1046" on="1"/>
        <pt x="745" y="1180" on="1"/>
        <pt x="805" y="1014" on="1"/>
        <pt x="577" y="910" on="1"/>
        <pt x="781" y="688" on="1"/>
        <pt x="635" y="582" on="1"/>
      </contour>
    </TTGlyph>
    <TTGlyph name="at" xMin="72" yMin="88" xMax="1098" yMax="1294">
      <contour>
        <pt x="1098" y="782" on="1"/>
        <pt x="1098" y="702" on="0"/>
        <pt x="1044" y="559" on="0"/>
        <pt x="945" y="451" on="0"/>
        <pt x="808" y="388" on="0"/>
        <pt x="726" y="388" on="1"/>
        <pt x="718" y="456" on="1"/>
        <pt x="686" y="427" on="0"/>
        <pt x="596" y="388" on="0"/>
        <pt x="552" y="388" on="1"/>
        <pt x="513" y="388" on="0"/>
        <pt x="455" y="413" on="0"/>
        <pt x="417" y="458" on="0"/>
        <pt x="398" y="519" on="0"/>
        <pt x="398" y="556" on="1"/>
        <pt x="398" y="601" on="0"/>
        <pt x="435" y="668" on="0"/>
        <pt x="495" y="712" on="0"/>
        <pt x="573" y="734" on="0"/>
        <pt x="614" y="734" on="1"/>
        <pt x="632" y="734" on="0"/>
        <pt x="670" y="729" on="0"/>
        <pt x="688" y="724" on="1"/>
        <pt x="688" y="760" on="1"/>
        <pt x="688" y="770" on="0"/>
        <pt x="685" y="814" on="0"/>
        <pt x="674" y="859" on="0"/>
        <pt x="653" y="894" on="0"/>
        <pt x="636" y="894" on="1"/>
        <pt x="617" y="894" on="0"/>
        <pt x="583" y="863" on="0"/>
        <pt x="554" y="821" on="0"/>
        <pt x="533" y="777" on="0"/>
        <pt x="528" y="764" on="1"/>
        <pt x="410" y="770" on="1"/>
        <pt x="406" y="986" on="1"/>
        <pt x="522" y="988" on="1"/>
        <pt x="522" y="904" on="1"/>
        <pt x="529" y="921" on="0"/>
        <pt x="554" y="954" on="0"/>
        <pt x="586" y="979" on="0"/>
        <pt x="624" y="994" on="0"/>
        <pt x="644" y="994" on="1"/>
        <pt x="692" y="994" on="0"/>
        <pt x="755" y="972" on="0"/>
        <pt x="793" y="927" on="0"/>
        <pt x="808" y="858" on="0"/>
        <pt x="808" y="810" on="1"/>
        <pt x="808" y="732" on="0"/>
        <pt x="804" y="572" on="0"/>
        <pt x="796" y="494" on="1"/>
        <pt x="816" y="494" on="0"/>
        <pt x="853" y="507" on="0"/>
        <pt x="870" y="518" on="1"/>
        <pt x="904" y="539" on="0"/>
        <pt x="951" y="598" on="0"/>
        <pt x="981" y="667" on="0"/>
        <pt x="994" y="744" on="0"/>
        <pt x="994" y="782" on="1"/>
        <pt x="994" y="987" on="0"/>
        <pt x="802" y="1192" on="0"/>
        <pt x="594" y="1192" on="1"/>
        <pt x="486" y="1192" on="0"/>
        <pt x="331" y="1112" on="0"/>
        <pt x="231" y="977" on="0"/>
        <pt x="184" y="799" on="0"/>
        <pt x="184" y="702" on="1"/>
        <pt x="184" y="601" on="0"/>
        <pt x="248" y="419" on="0"/>
        <pt x="368" y="282" on="0"/>
        <pt x="538" y="202" on="0"/>
        <pt x="644" y="202" on="1"/>
        <pt x="710" y="202" on="0"/>
        <pt x="837" y="235" on="0"/>
        <pt x="894" y="268" on="1"/>
        <pt x="940" y="178" on="1"/>
        <pt x="872" y="139" on="0"/>
        <pt x="704" y="88" on="0"/>
        <pt x="624" y="88" on="1"/>
        <pt x="498" y="88" on="0"/>
        <pt x="294" y="190" on="0"/>
        <pt x="150" y="361" on="0"/>
        <pt x="72" y="583" on="0"/>
        <pt x="72" y="702" on="1"/>
        <pt x="72" y="820" on="0"/>
        <pt x="140" y="1034" on="0"/>
        <pt x="272" y="1197" on="0"/>
        <pt x="467" y="1294" on="0"/>
        <pt x="594" y="1294" on="1"/>
        <pt x="718" y="1294" on="0"/>
        <pt x="906" y="1226" on="0"/>
        <pt x="1033" y="1095" on="0"/>
        <pt x="1098" y="904" on="0"/>
      </contour>
      <contour>
        <pt x="692" y="534" on="1"/>
        <pt x="692" y="620" on="1"/>
        <pt x="681" y="631" on="0"/>
        <pt x="642" y="638" on="0"/>
        <pt x="628" y="638" on="1"/>
        <pt x="606" y="638" on="0"/>
        <pt x="565" y="629" on="0"/>
        <pt x="533" y="608" on="0"/>
        <pt x="514" y="575" on="0"/>
        <pt x="514" y="550" on="1"/>
        <pt x="514" y="518" on="0"/>
        <pt x="554" y="486" on="0"/>
        <pt x="584" y="486" on="1"/>
        <pt x="594" y="486" on="0"/>
        <pt x="630" y="491" on="0"/>
        <pt x="666" y="502" on="0"/>
        <pt x="692" y="520" on="0"/>
      </contour>
    </TTGlyph>
    <TTGlyph name="atilde" xMin="62" yMin="-10" xMax="740" yMax="1317">
      <component glyphName="a" x="0" y="0" flags="0x204"/>
      <component glyphName="tilde" x="158" y="-79" flags="0x4"/>
    </TTGlyph>
    <TTGlyph name="b" xMin="9" yMin="-10" xMax="779" yMax="1432">
      <contour>
        <pt x="779" y="548" on="1"/>
        <pt x="779" y="503" on="0"/>
        <pt x="771" y="385" on="0"/>
        <pt x="748" y="261" on="0"/>
        <pt x="709" y="142" on="0"/>
        <pt x="646" y="48" on="0"/>
        <pt x="558" y="-10" on="0"/>
        <pt x="497" y="-10" on="1"/>
        <pt x="467" y="-10" on="0"/>
        <pt x="408" y="8" on="0"/>
        <pt x="354" y="40" on="0"/>
        <pt x="309" y="82" on="0"/>
        <pt x="293" y="106" on="1"/>
        <pt x="277" y="-10" on="1"/>
        <pt x="9" y="0" on="1"/>
        <pt x="11" y="166" on="1"/>
        <pt x="143" y="160" on="1"/>
        <pt x="147" y="1252" on="1"/>
        <pt x="11" y="1248" on="1"/>
        <pt x="9" y="1432" on="1"/>
        <pt x="337" y="1432" on="1"/>
        <pt x="327" y="936" on="1"/>
        <pt x="343" y="955" on="0"/>
        <pt x="387" y="992" on="0"/>
        <pt x="436" y="1021" on="0"/>
        <pt x="489" y="1038" on="0"/>
        <pt x="515" y="1038" on="1"/>
        <pt x="573" y="1038" on="0"/>
        <pt x="658" y="989" on="0"/>
        <pt x="717" y="908" on="0"/>
        <pt x="753" y="805" on="0"/>
        <pt x="772" y="696" on="0"/>
        <pt x="779" y="590" on="0"/>
      </contour>
      <contour>
        <pt x="603" y="550" on="1"/>
        <pt x="603" y="588" on="0"/>
        <pt x="596" y="690" on="0"/>
        <pt x="566" y="781" on="0"/>
        <pt x="506" y="844" on="0"/>
        <pt x="453" y="844" on="1"/>
        <pt x="426" y="844" on="0"/>
        <pt x="380" y="813" on="0"/>
        <pt x="347" y="766" on="0"/>
        <pt x="329" y="711" on="0"/>
        <pt x="329" y="688" on="1"/>
        <pt x="326" y="594" on="0"/>
        <pt x="327" y="407" on="0"/>
        <pt x="327" y="312" on="1"/>
        <pt x="327" y="283" on="0"/>
        <pt x="343" y="232" on="0"/>
        <pt x="375" y="193" on="0"/>
        <pt x="421" y="170" on="0"/>
        <pt x="451" y="170" on="1"/>
        <pt x="489" y="170" on="0"/>
        <pt x="541" y="212" on="0"/>
        <pt x="575" y="280" on="0"/>
        <pt x="593" y="365" on="0"/>
        <pt x="602" y="449" on="0"/>
        <pt x="603" y="525" on="0"/>
      </contour>
    </TTGlyph>
    <TTGlyph name="backslash" xMin="30" yMin="-20" xMax="830" yMax="1460">
      <contour>
        <pt x="830" y="0" on="1"/>
        <pt x="676" y="-20" on="1"/>
        <pt x="30" y="1440" on="1"/>
        <pt x="212" y="1460" on="1"/>
      </contour>
    </TTGlyph>
    <TTGlyph name="bar" xMin="99" yMin="-206" xMax="281" yMax="1616">
      <contour>
        <pt x="99" y="-206" on="1"/>
        <pt x="99" y="1616" on="1"/>
        <pt x="281" y="1616" on="1"/>
        <pt x="271" y="-206" on="1"/>
      </contour>
    </TTGlyph>
    <TTGlyph name="braceleft" xMin="-14" yMin="-234" xMax="580" yMax="1668">
      <contour>
        <pt x="580" y="1488" on="1"/>
        <pt x="512" y="1476" on="0"/>
        <pt x="427" y="1415" on="0"/>
        <pt x="379" y="1328" on="0"/>
        <pt x="362" y="1222" on="0"/>
        <pt x="362" y="1164" on="1"/>
        <pt x="362" y="1129" on="0"/>
        <pt x="357" y="1043" on="0"/>
        <pt x="343" y="954" on="0"/>
        <pt x="317" y="865" on="0"/>
        <pt x="276" y="789" on="0"/>
        <pt x="218" y="730" on="0"/>
        <pt x="178" y="716" on="1"/>
        <pt x="232" y="690" on="0"/>
        <pt x="303" y="610" on="0"/>
        <pt x="346" y="511" on="0"/>
        <pt x="367" y="400" on="0"/>
        <pt x="376" y="285" on="0"/>
        <pt x="376" y="171" on="0"/>
        <pt x="378" y="120" on="1"/>
        <pt x="379" y="83" on="0"/>
        <pt x="405" y="21" on="0"/>
        <pt x="451" y="-25" on="0"/>
        <pt x="513" y="-53" on="0"/>
        <pt x="550" y="-54" on="1"/>
        <pt x="510" y="-234" on="1"/>
        <pt x="446" y="-223" on="0"/>
        <pt x="334" y="-162" on="0"/>
        <pt x="250" y="-72" on="0"/>
        <pt x="200" y="44" on="0"/>
        <pt x="198" y="110" on="1"/>
        <pt x="196" y="162" on="0"/>
        <pt x="199" y="271" on="0"/>
        <pt x="195" y="377" on="0"/>
        <pt x="176" y="476" on="0"/>
        <pt x="130" y="558" on="0"/>
        <pt x="50" y="621" on="0"/>
        <pt x="-14" y="638" on="1"/>
        <pt x="-14" y="796" on="1"/>
        <pt x="34" y="797" on="0"/>
        <pt x="101" y="835" on="0"/>
        <pt x="146" y="896" on="0"/>
        <pt x="172" y="975" on="0"/>
        <pt x="185" y="1059" on="0"/>
        <pt x="188" y="1142" on="0"/>
        <pt x="188" y="1176" on="1"/>
        <pt x="188" y="1264" on="0"/>
        <pt x="235" y="1423" on="0"/>
        <pt x="327" y="1553" on="0"/>
        <pt x="462" y="1646" on="0"/>
        <pt x="550" y="1668" on="1"/>
      </contour>
    </TTGlyph>
    <TTGlyph name="braceright" xMin="-16" yMin="-234" xMax="578" yMax="1668">
      <contour>
        <pt x="578" y="638" on="1"/>
        <pt x="514" y="621" on="0"/>
        <pt x="434" y="558" on="0"/>
        <pt x="388" y="476" on="0"/>
        <pt x="369" y="377" on="0"/>
        <pt x="365" y="271" on="0"/>
        <pt x="367" y="162" on="0"/>
        <pt x="366" y="110" on="1"/>
        <pt x="364" y="44" on="0"/>
        <pt x="313" y="-72" on="0"/>
        <pt x="229" y="-162" on="0"/>
        <pt x="118" y="-223" on="0"/>
        <pt x="54" y="-234" on="1"/>
        <pt x="14" y="-54" on="1"/>
        <pt x="68" y="-52" on="0"/>
        <pt x="135" y="-11" on="0"/>
        <pt x="174" y="53" on="0"/>
        <pt x="189" y="135" on="0"/>
        <pt x="193" y="223" on="0"/>
        <pt x="191" y="310" on="0"/>
        <pt x="194" y="346" on="1"/>
        <pt x="198" y="404" on="0"/>
        <pt x="216" y="514" on="0"/>
        <pt x="257" y="610" on="0"/>
        <pt x="328" y="688" on="0"/>
        <pt x="386" y="716" on="1"/>
        <pt x="326" y="738" on="0"/>
        <pt x="253" y="844" on="0"/>
        <pt x="214" y="975" on="0"/>
        <pt x="202" y="1111" on="0"/>
        <pt x="202" y="1164" on="1"/>
        <pt x="202" y="1222" on="0"/>
        <pt x="184" y="1328" on="0"/>
        <pt x="136" y="1415" on="0"/>
        <pt x="51" y="1476" on="0"/>
        <pt x="-16" y="1488" on="1"/>
        <pt x="14" y="1668" on="1"/>
        <pt x="117" y="1642" on="0"/>
        <pt x="256" y="1536" on="0"/>
        <pt x="340" y="1392" on="0"/>
        <pt x="376" y="1217" on="0"/>
        <pt x="376" y="1120" on="1"/>
        <pt x="376" y="1088" on="0"/>
        <pt x="383" y="1016" on="0"/>
        <pt x="401" y="944" on="0"/>
        <pt x="431" y="879" on="0"/>
        <pt x="476" y="828" on="0"/>
        <pt x="537" y="797" on="0"/>
        <pt x="578" y="796" on="1"/>
      </contour>
    </TTGlyph>
    <TTGlyph name="bracketleft" xMin="100" yMin="-226" xMax="592" yMax="1668">
      <contour>
        <pt x="592" y="-226" on="1"/>
        <pt x="100" y="-216" on="1"/>
        <pt x="100" y="1648" on="1"/>
        <pt x="592" y="1668" on="1"/>
        <pt x="592" y="1468" on="1"/>
        <pt x="284" y="1478" on="1"/>
        <pt x="284" y="-48" on="1"/>
        <pt x="592" y="-28" on="1"/>
      </contour>
    </TTGlyph>
    <TTGlyph name="bracketright" xMin="14" yMin="-226" xMax="506" yMax="1668">
      <contour>
        <pt x="506" y="-216" on="1"/>
        <pt x="14" y="-226" on="1"/>
        <pt x="14" y="-28" on="1"/>
        <pt x="320" y="-48" on="1"/>
        <pt x="320" y="1478" on="1"/>
        <pt x="14" y="1468" on="1"/>
        <pt x="14" y="1668" on="1"/>
        <pt x="506" y="1648" on="1"/>
      </contour>
    </TTGlyph>
    <TTGlyph name="breve" xMin="0" yMin="1162" xMax="454" yMax="1412">
      <contour>
        <pt x="454" y="1390" on="1"/>
        <pt x="447" y="1346" on="0"/>
        <pt x="410" y="1264" on="0"/>
        <pt x="351" y="1201" on="0"/>
        <pt x="273" y="1162" on="0"/>
        <pt x="226" y="1162" on="1"/>
        <pt x="179" y="1162" on="0"/>
        <pt x="99" y="1196" on="0"/>
        <pt x="40" y="1255" on="0"/>
        <pt x="4" y="1334" on="0"/>
        <pt x="0" y="1380" on="1"/>
        <pt x="106" y="1402" on="1"/>
        <pt x="114" y="1346" on="0"/>
        <pt x="182" y="1294" on="0"/>
        <pt x="236" y="1294" on="1"/>
        <pt x="259" y="1294" on="0"/>
        <pt x="297" y="1315" on="0"/>
        <pt x="326" y="1349" on="0"/>
        <pt x="344" y="1391" on="0"/>
        <pt x="348" y="1412" on="1"/>
      </contour>
    </TTGlyph>
    <TTGlyph name="brokenbar" xMin="103" yMin="-206" xMax="285" yMax="1616">
      <contour>
        <pt x="103" y="834" on="1"/>
        <pt x="103" y="1616" on="1"/>
        <pt x="285" y="1616" on="1"/>
        <pt x="281" y="834" on="1"/>
      </contour>
      <contour>
        <pt x="103" y="-206" on="1"/>
        <pt x="103" y="596" on="1"/>
        <pt x="279" y="596" on="1"/>
        <pt x="275" y="-206" on="1"/>
      </contour>
    </TTGlyph>
    <TTGlyph name="bullet" xMin="50" yMin="518" xMax="454" yMax="924">
      <contour>
        <pt x="454" y="720" on="1"/>
        <pt x="454" y="679" on="0"/>
        <pt x="422" y="605" on="0"/>
        <pt x="368" y="550" on="0"/>
        <pt x="294" y="518" on="0"/>
        <pt x="252" y="518" on="1"/>
        <pt x="210" y="518" on="0"/>
        <pt x="136" y="550" on="0"/>
        <pt x="82" y="605" on="0"/>
        <pt x="50" y="679" on="0"/>
        <pt x="50" y="720" on="1"/>
        <pt x="50" y="762" on="0"/>
        <pt x="82" y="836" on="0"/>
        <pt x="136" y="892" on="0"/>
        <pt x="210" y="924" on="0"/>
        <pt x="252" y="924" on="1"/>
        <pt x="294" y="924" on="0"/>
        <pt x="368" y="892" on="0"/>
        <pt x="422" y="836" on="0"/>
        <pt x="454" y="762" on="0"/>
      </contour>
    </TTGlyph>
    <TTGlyph name="c" xMin="51" yMin="-8" xMax="687" yMax="1036">
      <contour>
        <pt x="687" y="1022" on="1"/>
        <pt x="677" y="612" on="1"/>
        <pt x="515" y="616" on="1"/>
        <pt x="514" y="644" on="0"/>
        <pt x="501" y="729" on="0"/>
        <pt x="471" y="810" on="0"/>
        <pt x="419" y="868" on="0"/>
        <pt x="379" y="868" on="1"/>
        <pt x="347" y="868" on="0"/>
        <pt x="302" y="826" on="0"/>
        <pt x="272" y="760" on="0"/>
        <pt x="254" y="678" on="0"/>
        <pt x="245" y="598" on="0"/>
        <pt x="243" y="529" on="0"/>
        <pt x="243" y="508" on="1"/>
        <pt x="243" y="485" on="0"/>
        <pt x="244" y="416" on="0"/>
        <pt x="251" y="339" on="0"/>
        <pt x="266" y="262" on="0"/>
        <pt x="297" y="200" on="0"/>
        <pt x="344" y="162" on="0"/>
        <pt x="379" y="162" on="1"/>
        <pt x="420" y="162" on="0"/>
        <pt x="474" y="218" on="0"/>
        <pt x="507" y="297" on="0"/>
        <pt x="520" y="383" on="0"/>
        <pt x="521" y="414" on="1"/>
        <pt x="681" y="414" on="1"/>
        <pt x="680" y="346" on="0"/>
        <pt x="646" y="198" on="0"/>
        <pt x="573" y="73" on="0"/>
        <pt x="459" y="-8" on="0"/>
        <pt x="379" y="-8" on="1"/>
        <pt x="309" y="-8" on="0"/>
        <pt x="206" y="38" on="0"/>
        <pt x="133" y="117" on="0"/>
        <pt x="87" y="222" on="0"/>
        <pt x="61" y="337" on="0"/>
        <pt x="51" y="457" on="0"/>
        <pt x="51" y="512" on="1"/>
        <pt x="51" y="560" on="0"/>
        <pt x="63" y="675" on="0"/>
        <pt x="92" y="791" on="0"/>
        <pt x="140" y="901" on="0"/>
        <pt x="211" y="985" on="0"/>
        <pt x="306" y="1036" on="0"/>
        <pt x="369" y="1036" on="1"/>
        <pt x="419" y="1036" on="0"/>
        <pt x="509" y="984" on="0"/>
        <pt x="541" y="946" on="1"/>
        <pt x="561" y="1032" on="1"/>
      </contour>
    </TTGlyph>
    <TTGlyph name="cacute" xMin="51" yMin="-8" xMax="687" yMax="1394">
      <component glyphName="c" x="0" y="0" flags="0x204"/>
      <component glyphName="acute" x="337" y="0" flags="0x4"/>
    </TTGlyph>
    <TTGlyph name="caron" xMin="0" yMin="1132" xMax="462" yMax="1414">
      <contour>
        <pt x="462" y="1384" on="1"/>
        <pt x="300" y="1142" on="1"/>
        <pt x="166" y="1132" on="1"/>
        <pt x="0" y="1384" on="1"/>
        <pt x="142" y="1414" on="1"/>
        <pt x="234" y="1240" on="1"/>
        <pt x="322" y="1414" on="1"/>
      </contour>
    </TTGlyph>
    <TTGlyph name="ccaron" xMin="51" yMin="-8" xMax="687" yMax="1375">
      <component glyphName="c" x="0" y="0" flags="0x204"/>
      <component glyphName="caron" x="138" y="-39" flags="0x4"/>
    </TTGlyph>
    <TTGlyph name="ccedilla" xMin="51" yMin="-346" xMax="687" yMax="1036">
      <contour>
        <pt x="511" y="-198" on="1"/>
        <pt x="511" y="-233" on="0"/>
        <pt x="484" y="-288" on="0"/>
        <pt x="439" y="-326" on="0"/>
        <pt x="380" y="-346" on="0"/>
        <pt x="347" y="-346" on="1"/>
        <pt x="332" y="-346" on="0"/>
        <pt x="295" y="-342" on="0"/>
        <pt x="258" y="-333" on="0"/>
        <pt x="224" y="-319" on="0"/>
        <pt x="213" y="-308" on="1"/>
        <pt x="261" y="-220" on="1"/>
        <pt x="273" y="-229" on="0"/>
        <pt x="316" y="-248" on="0"/>
        <pt x="333" y="-248" on="1"/>
        <pt x="362" y="-248" on="0"/>
        <pt x="397" y="-226" on="0"/>
        <pt x="397" y="-196" on="1"/>
        <pt x="397" y="-177" on="0"/>
        <pt x="379" y="-150" on="0"/>
        <pt x="351" y="-133" on="0"/>
        <pt x="318" y="-125" on="0"/>
        <pt x="303" y="-126" on="1"/>
        <pt x="295" y="-126" on="1"/>
        <pt x="319" y="-2" on="1"/>
        <pt x="262" y="7" on="0"/>
        <pt x="178" y="63" on="0"/>
        <pt x="118" y="143" on="0"/>
        <pt x="81" y="243" on="0"/>
        <pt x="59" y="350" on="0"/>
        <pt x="51" y="461" on="0"/>
        <pt x="51" y="512" on="1"/>
        <pt x="51" y="560" on="0"/>
        <pt x="63" y="675" on="0"/>
        <pt x="92" y="791" on="0"/>
        <pt x="140" y="901" on="0"/>
        <pt x="211" y="985" on="0"/>
        <pt x="306" y="1036" on="0"/>
        <pt x="369" y="1036" on="1"/>
        <pt x="419" y="1036" on="0"/>
        <pt x="509" y="984" on="0"/>
        <pt x="541" y="946" on="1"/>
        <pt x="561" y="1032" on="1"/>
        <pt x="687" y="1022" on="1"/>
        <pt x="677" y="612" on="1"/>
        <pt x="515" y="616" on="1"/>
        <pt x="514" y="644" on="0"/>
        <pt x="501" y="729" on="0"/>
        <pt x="471" y="810" on="0"/>
        <pt x="419" y="868" on="0"/>
        <pt x="379" y="868" on="1"/>
        <pt x="347" y="868" on="0"/>
        <pt x="302" y="826" on="0"/>
        <pt x="272" y="760" on="0"/>
        <pt x="254" y="678" on="0"/>
        <pt x="245" y="598" on="0"/>
        <pt x="243" y="529" on="0"/>
        <pt x="243" y="508" on="1"/>
        <pt x="243" y="485" on="0"/>
        <pt x="244" y="416" on="0"/>
        <pt x="251" y="339" on="0"/>
        <pt x="266" y="262" on="0"/>
        <pt x="297" y="200" on="0"/>
        <pt x="344" y="162" on="0"/>
        <pt x="379" y="162" on="1"/>
        <pt x="420" y="162" on="0"/>
        <pt x="474" y="218" on="0"/>
        <pt x="507" y="297" on="0"/>
        <pt x="520" y="383" on="0"/>
        <pt x="521" y="414" on="1"/>
        <pt x="681" y="414" on="1"/>
        <pt x="680" y="372" on="0"/>
        <pt x="667" y="281" on="0"/>
        <pt x="639" y="193" on="0"/>
        <pt x="597" y="112" on="0"/>
        <pt x="539" y="47" on="0"/>
        <pt x="465" y="3" on="0"/>
        <pt x="419" y="-4" on="1"/>
        <pt x="391" y="-62" on="1"/>
        <pt x="419" y="-62" on="0"/>
        <pt x="463" y="-85" on="0"/>
        <pt x="494" y="-123" on="0"/>
        <pt x="511" y="-172" on="0"/>
      </contour>
    </TTGlyph>
    <TTGlyph name="ccircumflex" xMin="51" yMin="-8" xMax="687" yMax="1357">
      <component glyphName="c" x="0" y="0" flags="0x204"/>
      <component glyphName="circumflex" x="138" y="-57" flags="0x4"/>
    </TTGlyph>
    <TTGlyph name="cdotaccent" xMin="51" yMin="-8" xMax="687" yMax="1303">
      <component glyphName="c" x="0" y="0" flags="0x204"/>
      <component glyphName="dotaccent" x="268" y="-43" flags="0x4"/>
    </TTGlyph>
    <TTGlyph name="cedilla" xMin="0" yMin="-356" xMax="298" yMax="46">
      <contour>
        <pt x="298" y="-208" on="1"/>
        <pt x="298" y="-243" on="0"/>
        <pt x="271" y="-298" on="0"/>
        <pt x="226" y="-336" on="0"/>
        <pt x="167" y="-356" on="0"/>
        <pt x="134" y="-356" on="1"/>
        <pt x="119" y="-356" on="0"/>
        <pt x="82" y="-352" on="0"/>
        <pt x="45" y="-343" on="0"/>
        <pt x="11" y="-329" on="0"/>
        <pt x="0" y="-318" on="1"/>
        <pt x="48" y="-230" on="1"/>
        <pt x="60" y="-239" on="0"/>
        <pt x="103" y="-258" on="0"/>
        <pt x="120" y="-258" on="1"/>
        <pt x="149" y="-258" on="0"/>
        <pt x="184" y="-236" on="0"/>
        <pt x="184" y="-206" on="1"/>
        <pt x="184" y="-187" on="0"/>
        <pt x="166" y="-160" on="0"/>
        <pt x="138" y="-143" on="0"/>
        <pt x="105" y="-135" on="0"/>
        <pt x="90" y="-136" on="1"/>
        <pt x="82" y="-136" on="1"/>
        <pt x="118" y="46" on="1"/>
        <pt x="228" y="26" on="1"/>
        <pt x="178" y="-72" on="1"/>
        <pt x="206" y="-72" on="0"/>
        <pt x="250" y="-95" on="0"/>
        <pt x="281" y="-133" on="0"/>
        <pt x="298" y="-182" on="0"/>
      </contour>
    </TTGlyph>
    <TTGlyph name="cent" xMin="56" yMin="-48" xMax="794" yMax="1486">
      <contour>
        <pt x="484" y="214" on="1"/>
        <pt x="498" y="-48" on="1"/>
        <pt x="336" y="-48" on="1"/>
        <pt x="354" y="218" on="1"/>
        <pt x="272" y="235" on="0"/>
        <pt x="159" y="339" on="0"/>
        <pt x="88" y="479" on="0"/>
        <pt x="56" y="640" on="0"/>
        <pt x="56" y="714" on="1"/>
        <pt x="56" y="795" on="0"/>
        <pt x="84" y="958" on="0"/>
        <pt x="152" y="1096" on="0"/>
        <pt x="266" y="1195" on="0"/>
        <pt x="352" y="1212" on="1"/>
        <pt x="336" y="1486" on="1"/>
        <pt x="498" y="1486" on="1"/>
        <pt x="482" y="1216" on="1"/>
        <pt x="539" y="1207" on="0"/>
        <pt x="621" y="1140" on="0"/>
        <pt x="654" y="1086" on="1"/>
        <pt x="654" y="1218" on="1"/>
        <pt x="794" y="1216" on="1"/>
        <pt x="776" y="808" on="1"/>
        <pt x="652" y="812" on="1"/>
        <pt x="644" y="854" on="0"/>
        <pt x="616" y="946" on="0"/>
        <pt x="567" y="1024" on="0"/>
        <pt x="495" y="1074" on="0"/>
        <pt x="444" y="1074" on="1"/>
        <pt x="393" y="1074" on="0"/>
        <pt x="319" y="1042" on="0"/>
        <pt x="267" y="988" on="0"/>
        <pt x="234" y="917" on="0"/>
        <pt x="215" y="838" on="0"/>
        <pt x="208" y="757" on="0"/>
        <pt x="208" y="720" on="1"/>
        <pt x="208" y="685" on="0"/>
        <pt x="215" y="605" on="0"/>
        <pt x="232" y="525" on="0"/>
        <pt x="264" y="451" on="0"/>
        <pt x="313" y="394" on="0"/>
        <pt x="384" y="360" on="0"/>
        <pt x="432" y="360" on="1"/>
        <pt x="491" y="360" on="0"/>
        <pt x="571" y="405" on="0"/>
        <pt x="620" y="480" on="0"/>
        <pt x="644" y="574" on="0"/>
        <pt x="648" y="624" on="1"/>
        <pt x="772" y="624" on="1"/>
        <pt x="772" y="549" on="0"/>
        <pt x="738" y="411" on="0"/>
        <pt x="668" y="300" on="0"/>
        <pt x="559" y="225" on="0"/>
      </contour>
    </TTGlyph>
    <TTGlyph name="circumflex" xMin="0" yMin="1132" xMax="462" yMax="1414">
      <contour>
        <pt x="462" y="1162" on="1"/>
        <pt x="320" y="1132" on="1"/>
        <pt x="228" y="1306" on="1"/>
        <pt x="140" y="1132" on="1"/>
        <pt x="0" y="1162" on="1"/>
        <pt x="162" y="1404" on="1"/>
        <pt x="298" y="1414" on="1"/>
      </contour>
    </TTGlyph>
    <TTGlyph name="colon" xMin="92" yMin="-12" xMax="346" yMax="904">
      <contour>
        <pt x="346" y="778" on="1"/>
        <pt x="346" y="752" on="0"/>
        <pt x="326" y="705" on="0"/>
        <pt x="291" y="670" on="0"/>
        <pt x="244" y="650" on="0"/>
        <pt x="218" y="650" on="1"/>
        <pt x="192" y="650" on="0"/>
        <pt x="146" y="670" on="0"/>
        <pt x="112" y="705" on="0"/>
        <pt x="92" y="752" on="0"/>
        <pt x="92" y="778" on="1"/>
        <pt x="92" y="804" on="0"/>
        <pt x="112" y="850" on="0"/>
        <pt x="146" y="884" on="0"/>
        <pt x="192" y="904" on="0"/>
        <pt x="218" y="904" on="1"/>
        <pt x="244" y="904" on="0"/>
        <pt x="291" y="884" on="0"/>
        <pt x="326" y="850" on="0"/>
        <pt x="346" y="804" on="0"/>
      </contour>
      <contour>
        <pt x="346" y="114" on="1"/>
        <pt x="346" y="88" on="0"/>
        <pt x="326" y="42" on="0"/>
        <pt x="291" y="8" on="0"/>
        <pt x="244" y="-12" on="0"/>
        <pt x="218" y="-12" on="1"/>
        <pt x="192" y="-12" on="0"/>
        <pt x="146" y="8" on="0"/>
        <pt x="112" y="42" on="0"/>
        <pt x="92" y="88" on="0"/>
        <pt x="92" y="114" on="1"/>
        <pt x="92" y="140" on="0"/>
        <pt x="112" y="187" on="0"/>
        <pt x="146" y="222" on="0"/>
        <pt x="192" y="242" on="0"/>
        <pt x="218" y="242" on="1"/>
        <pt x="244" y="242" on="0"/>
        <pt x="291" y="222" on="0"/>
        <pt x="326" y="187" on="0"/>
        <pt x="346" y="140" on="0"/>
      </contour>
    </TTGlyph>
    <TTGlyph name="comma" xMin="50" yMin="-126" xMax="304" yMax="242">
      <contour>
        <pt x="304" y="114" on="1"/>
        <pt x="304" y="39" on="0"/>
        <pt x="233" y="-87" on="0"/>
        <pt x="170" y="-126" on="1"/>
        <pt x="118" y="-84" on="1"/>
        <pt x="130" y="-72" on="0"/>
        <pt x="163" y="-30" on="0"/>
        <pt x="166" y="-12" on="1"/>
        <pt x="141" y="-10" on="0"/>
        <pt x="99" y="12" on="0"/>
        <pt x="68" y="45" on="0"/>
        <pt x="50" y="89" on="0"/>
        <pt x="50" y="114" on="1"/>
        <pt x="50" y="140" on="0"/>
        <pt x="70" y="187" on="0"/>
        <pt x="104" y="222" on="0"/>
        <pt x="150" y="242" on="0"/>
        <pt x="176" y="242" on="1"/>
        <pt x="202" y="242" on="0"/>
        <pt x="249" y="222" on="0"/>
        <pt x="284" y="187" on="0"/>
        <pt x="304" y="140" on="0"/>
      </contour>
    </TTGlyph>
    <TTGlyph name="copyright" xMin="64" yMin="126" xMax="1118" yMax="1290">
      <contour>
        <pt x="1118" y="704" on="1"/>
        <pt x="1118" y="648" on="0"/>
        <pt x="1098" y="520" on="0"/>
        <pt x="1050" y="391" on="0"/>
        <pt x="971" y="272" on="0"/>
        <pt x="853" y="181" on="0"/>
        <pt x="693" y="126" on="0"/>
        <pt x="588" y="126" on="1"/>
        <pt x="479" y="126" on="0"/>
        <pt x="317" y="181" on="0"/>
        <pt x="200" y="272" on="0"/>
        <pt x="125" y="390" on="0"/>
        <pt x="81" y="519" on="0"/>
        <pt x="64" y="648" on="0"/>
        <pt x="64" y="704" on="1"/>
        <pt x="64" y="763" on="0"/>
        <pt x="82" y="897" on="0"/>
        <pt x="129" y="1027" on="0"/>
        <pt x="209" y="1146" on="0"/>
        <pt x="332" y="1236" on="0"/>
        <pt x="504" y="1290" on="0"/>
        <pt x="618" y="1290" on="1"/>
        <pt x="717" y="1290" on="0"/>
        <pt x="869" y="1231" on="0"/>
        <pt x="980" y="1134" on="0"/>
        <pt x="1054" y="1010" on="0"/>
        <pt x="1099" y="880" on="0"/>
        <pt x="1118" y="754" on="0"/>
      </contour>
      <contour>
        <pt x="1020" y="700" on="1"/>
        <pt x="1020" y="735" on="0"/>
        <pt x="1007" y="834" on="0"/>
        <pt x="972" y="942" on="0"/>
        <pt x="912" y="1049" on="0"/>
        <pt x="819" y="1133" on="0"/>
        <pt x="688" y="1186" on="0"/>
        <pt x="600" y="1186" on="1"/>
        <pt x="505" y="1186" on="0"/>
        <pt x="367" y="1135" on="0"/>
        <pt x="271" y="1052" on="0"/>
        <pt x="212" y="947" on="0"/>
        <pt x="179" y="839" on="0"/>
        <pt x="168" y="737" on="0"/>
        <pt x="168" y="700" on="1"/>
        <pt x="168" y="664" on="0"/>
        <pt x="179" y="566" on="0"/>
        <pt x="211" y="461" on="0"/>
        <pt x="269" y="359" on="0"/>
        <pt x="363" y="278" on="0"/>
        <pt x="498" y="228" on="0"/>
        <pt x="590" y="228" on="1"/>
        <pt x="674" y="228" on="0"/>
        <pt x="803" y="279" on="0"/>
        <pt x="899" y="361" on="0"/>
        <pt x="963" y="465" on="0"/>
        <pt x="1003" y="570" on="0"/>
        <pt x="1020" y="666" on="0"/>
      </contour>
      <contour>
        <pt x="826" y="1046" on="1"/>
        <pt x="814" y="800" on="1"/>
        <pt x="726" y="804" on="1"/>
        <pt x="721" y="829" on="0"/>
        <pt x="702" y="884" on="0"/>
        <pt x="667" y="930" on="0"/>
        <pt x="616" y="960" on="0"/>
        <pt x="580" y="960" on="1"/>
        <pt x="527" y="960" on="0"/>
        <pt x="463" y="903" on="0"/>
        <pt x="428" y="822" on="0"/>
        <pt x="416" y="733" on="0"/>
        <pt x="416" y="700" on="1"/>
        <pt x="416" y="668" on="0"/>
        <pt x="427" y="578" on="0"/>
        <pt x="460" y="495" on="0"/>
        <pt x="522" y="436" on="0"/>
        <pt x="572" y="436" on="1"/>
        <pt x="613" y="436" on="0"/>
        <pt x="669" y="467" on="0"/>
        <pt x="703" y="515" on="0"/>
        <pt x="720" y="575" on="0"/>
        <pt x="722" y="604" on="1"/>
        <pt x="810" y="604" on="1"/>
        <pt x="810" y="555" on="0"/>
        <pt x="782" y="462" on="0"/>
        <pt x="723" y="390" on="0"/>
        <pt x="632" y="346" on="0"/>
        <pt x="570" y="346" on="1"/>
        <pt x="497" y="346" on="0"/>
        <pt x="398" y="419" on="0"/>
        <pt x="337" y="526" on="0"/>
        <pt x="310" y="647" on="0"/>
        <pt x="310" y="696" on="1"/>
        <pt x="310" y="751" on="0"/>
        <pt x="334" y="874" on="0"/>
        <pt x="394" y="979" on="0"/>
        <pt x="497" y="1048" on="0"/>
        <pt x="576" y="1048" on="1"/>
        <pt x="629" y="1048" on="0"/>
        <pt x="701" y="1006" on="0"/>
        <pt x="728" y="968" on="1"/>
        <pt x="728" y="1046" on="1"/>
      </contour>
    </TTGlyph>
    <TTGlyph name="currency" xMin="0" yMin="398" xMax="587" yMax="986">
      <contour>
        <pt x="292" y="816" on="1"/>
        <pt x="264" y="816" on="0"/>
        <pt x="220" y="794" on="0"/>
        <pt x="190" y="757" on="0"/>
        <pt x="174" y="708" on="0"/>
        <pt x="174" y="682" on="1"/>
        <pt x="174" y="628" on="0"/>
        <pt x="245" y="566" on="0"/>
        <pt x="298" y="566" on="1"/>
        <pt x="327" y="566" on="0"/>
        <pt x="372" y="587" on="0"/>
        <pt x="402" y="623" on="0"/>
        <pt x="418" y="671" on="0"/>
        <pt x="418" y="698" on="1"/>
        <pt x="418" y="754" on="0"/>
        <pt x="346" y="816" on="0"/>
      </contour>
      <contour>
        <pt x="587" y="527" on="1"/>
        <pt x="453" y="407" on="1"/>
        <pt x="394" y="470" on="1"/>
        <pt x="352" y="452" on="0"/>
        <pt x="302" y="452" on="1"/>
        <pt x="250" y="452" on="0"/>
        <pt x="207" y="470" on="1"/>
        <pt x="138" y="398" on="1"/>
        <pt x="4" y="526" on="1"/>
        <pt x="75" y="598" on="1"/>
        <pt x="58" y="640" on="0"/>
        <pt x="58" y="686" on="1"/>
        <pt x="58" y="735" on="0"/>
        <pt x="75" y="778" on="1"/>
        <pt x="0" y="852" on="1"/>
        <pt x="128" y="986" on="1"/>
        <pt x="204" y="910" on="1"/>
        <pt x="225" y="918" on="0"/>
        <pt x="270" y="928" on="0"/>
        <pt x="294" y="928" on="1"/>
        <pt x="317" y="928" on="0"/>
        <pt x="362" y="920" on="0"/>
        <pt x="383" y="912" on="1"/>
        <pt x="456" y="986" on="1"/>
        <pt x="578" y="852" on="1"/>
        <pt x="515" y="787" on="1"/>
        <pt x="534" y="741" on="0"/>
        <pt x="534" y="690" on="1"/>
        <pt x="534" y="666" on="0"/>
        <pt x="526" y="622" on="0"/>
        <pt x="518" y="601" on="1"/>
      </contour>
    </TTGlyph>
    <TTGlyph name="d" xMin="51" yMin="-10" xMax="821" yMax="1454">
      <contour>
        <pt x="821" y="-2" on="1"/>
        <pt x="553" y="-10" on="1"/>
        <pt x="539" y="106" on="1"/>
        <pt x="506" y="52" on="0"/>
        <pt x="396" y="-10" on="0"/>
        <pt x="333" y="-10" on="1"/>
        <pt x="271" y="-10" on="0"/>
        <pt x="182" y="42" on="0"/>
        <pt x="119" y="128" on="0"/>
        <pt x="80" y="238" on="0"/>
        <pt x="59" y="354" on="0"/>
        <pt x="51" y="466" on="0"/>
        <pt x="51" y="512" on="1"/>
        <pt x="51" y="558" on="0"/>
        <pt x="63" y="673" on="0"/>
        <pt x="92" y="791" on="0"/>
        <pt x="139" y="903" on="0"/>
        <pt x="208" y="991" on="0"/>
        <pt x="302" y="1044" on="0"/>
        <pt x="363" y="1044" on="1"/>
        <pt x="410" y="1044" on="0"/>
        <pt x="495" y="995" on="0"/>
        <pt x="519" y="956" on="1"/>
        <pt x="519" y="1282" on="1"/>
        <pt x="339" y="1282" on="1"/>
        <pt x="339" y="1454" on="1"/>
        <pt x="705" y="1448" on="1"/>
        <pt x="689" y="160" on="1"/>
        <pt x="821" y="164" on="1"/>
      </contour>
      <contour>
        <pt x="513" y="736" on="1"/>
        <pt x="507" y="754" on="0"/>
        <pt x="485" y="798" on="0"/>
        <pt x="454" y="837" on="0"/>
        <pt x="415" y="864" on="0"/>
        <pt x="393" y="864" on="1"/>
        <pt x="360" y="864" on="0"/>
        <pt x="311" y="826" on="0"/>
        <pt x="277" y="766" on="0"/>
        <pt x="254" y="691" on="0"/>
        <pt x="242" y="616" on="0"/>
        <pt x="237" y="549" on="0"/>
        <pt x="237" y="526" on="1"/>
        <pt x="237" y="505" on="0"/>
        <pt x="237" y="437" on="0"/>
        <pt x="243" y="358" on="0"/>
        <pt x="258" y="277" on="0"/>
        <pt x="286" y="211" on="0"/>
        <pt x="330" y="170" on="0"/>
        <pt x="363" y="170" on="1"/>
        <pt x="388" y="170" on="0"/>
        <pt x="434" y="199" on="0"/>
        <pt x="472" y="242" on="0"/>
        <pt x="501" y="290" on="0"/>
        <pt x="509" y="310" on="1"/>
      </contour>
    </TTGlyph>
    <TTGlyph name="dagger" xMin="51" yMin="-206" xMax="679" yMax="1616">
      <contour>
        <pt x="679" y="1218" on="1"/>
        <pt x="669" y="1038" on="1"/>
        <pt x="441" y="1034" on="1"/>
        <pt x="435" y="-206" on="1"/>
        <pt x="263" y="-206" on="1"/>
        <pt x="263" y="1032" on="1"/>
        <pt x="57" y="1028" on="1"/>
        <pt x="51" y="1214" on="1"/>
        <pt x="263" y="1214" on="1"/>
        <pt x="263" y="1616" on="1"/>
        <pt x="445" y="1616" on="1"/>
        <pt x="443" y="1216" on="1"/>
      </contour>
    </TTGlyph>
    <TTGlyph name="daggerdbl" xMin="58" yMin="-206" xMax="686" yMax="1616">
      <contour>
        <pt x="686" y="378" on="1"/>
        <pt x="676" y="198" on="1"/>
        <pt x="444" y="194" on="1"/>
        <pt x="442" y="-206" on="1"/>
        <pt x="270" y="-206" on="1"/>
        <pt x="270" y="192" on="1"/>
        <pt x="64" y="188" on="1"/>
        <pt x="58" y="374" on="1"/>
        <pt x="270" y="374" on="1"/>
        <pt x="270" y="1032" on="1"/>
        <pt x="64" y="1028" on="1"/>
        <pt x="58" y="1214" on="1"/>
        <pt x="270" y="1214" on="1"/>
        <pt x="270" y="1616" on="1"/>
        <pt x="452" y="1616" on="1"/>
        <pt x="450" y="1216" on="1"/>
        <pt x="686" y="1218" on="1"/>
        <pt x="676" y="1038" on="1"/>
        <pt x="448" y="1034" on="1"/>
        <pt x="444" y="376" on="1"/>
      </contour>
    </TTGlyph>
    <TTGlyph name="dcaron" xMin="51" yMin="-10" xMax="1029" yMax="1454">
      <component glyphName="d" x="0" y="0" flags="0x4"/>
      <component glyphName="quoteright" x="751" y="0" flags="0x4"/>
    </TTGlyph>
    <TTGlyph name="dcroat" xMin="51" yMin="-10" xMax="821" yMax="1454">
      <contour>
        <pt x="808" y="1249" on="1"/>
        <pt x="800" y="1101" on="1"/>
        <pt x="700" y="1099" on="1"/>
        <pt x="689" y="160" on="1"/>
        <pt x="821" y="164" on="1"/>
        <pt x="821" y="-2" on="1"/>
        <pt x="553" y="-10" on="1"/>
        <pt x="539" y="106" on="1"/>
        <pt x="506" y="52" on="0"/>
        <pt x="396" y="-10" on="0"/>
        <pt x="333" y="-10" on="1"/>
        <pt x="271" y="-10" on="0"/>
        <pt x="182" y="42" on="0"/>
        <pt x="119" y="128" on="0"/>
        <pt x="80" y="238" on="0"/>
        <pt x="59" y="354" on="0"/>
        <pt x="51" y="466" on="0"/>
        <pt x="51" y="512" on="1"/>
        <pt x="51" y="558" on="0"/>
        <pt x="63" y="673" on="0"/>
        <pt x="92" y="791" on="0"/>
        <pt x="139" y="903" on="0"/>
        <pt x="208" y="991" on="0"/>
        <pt x="302" y="1044" on="0"/>
        <pt x="363" y="1044" on="1"/>
        <pt x="410" y="1044" on="0"/>
        <pt x="495" y="995" on="0"/>
        <pt x="519" y="956" on="1"/>
        <pt x="519" y="1096" on="1"/>
        <pt x="302" y="1092" on="1"/>
        <pt x="297" y="1246" on="1"/>
        <pt x="519" y="1247" on="1"/>
        <pt x="519" y="1282" on="1"/>
        <pt x="432" y="1282" on="1"/>
        <pt x="432" y="1454" on="1"/>
        <pt x="705" y="1448" on="1"/>
        <pt x="702" y="1248" on="1"/>
      </contour>
      <contour>
        <pt x="513" y="736" on="1"/>
        <pt x="507" y="754" on="0"/>
        <pt x="485" y="798" on="0"/>
        <pt x="454" y="837" on="0"/>
        <pt x="415" y="864" on="0"/>
        <pt x="393" y="864" on="1"/>
        <pt x="360" y="864" on="0"/>
        <pt x="311" y="826" on="0"/>
        <pt x="277" y="766" on="0"/>
        <pt x="254" y="691" on="0"/>
        <pt x="242" y="616" on="0"/>
        <pt x="237" y="549" on="0"/>
        <pt x="237" y="526" on="1"/>
        <pt x="237" y="505" on="0"/>
        <pt x="237" y="437" on="0"/>
        <pt x="243" y="358" on="0"/>
        <pt x="258" y="277" on="0"/>
        <pt x="286" y="211" on="0"/>
        <pt x="330" y="170" on="0"/>
        <pt x="363" y="170" on="1"/>
        <pt x="388" y="170" on="0"/>
        <pt x="434" y="199" on="0"/>
        <pt x="472" y="242" on="0"/>
        <pt x="501" y="290" on="0"/>
        <pt x="509" y="310" on="1"/>
      </contour>
    </TTGlyph>
    <TTGlyph name="degree" xMin="30" yMin="942" xMax="506" yMax="1418">
      <contour>
        <pt x="274" y="942" on="1"/>
        <pt x="224" y="942" on="0"/>
        <pt x="136" y="977" on="0"/>
        <pt x="69" y="1040" on="0"/>
        <pt x="30" y="1126" on="0"/>
        <pt x="30" y="1176" on="1"/>
        <pt x="30" y="1226" on="0"/>
        <pt x="66" y="1314" on="0"/>
        <pt x="129" y="1380" on="0"/>
        <pt x="216" y="1418" on="0"/>
        <pt x="266" y="1418" on="1"/>
        <pt x="317" y="1418" on="0"/>
        <pt x="405" y="1382" on="0"/>
        <pt x="469" y="1319" on="0"/>
        <pt x="506" y="1232" on="0"/>
        <pt x="506" y="1180" on="1"/>
        <pt x="506" y="1130" on="0"/>
        <pt x="471" y="1044" on="0"/>
        <pt x="408" y="979" on="0"/>
        <pt x="323" y="942" on="0"/>
      </contour>
      <contour>
        <pt x="264" y="1306" on="1"/>
        <pt x="236" y="1306" on="0"/>
        <pt x="192" y="1284" on="0"/>
        <pt x="162" y="1247" on="0"/>
        <pt x="146" y="1198" on="0"/>
        <pt x="146" y="1172" on="1"/>
        <pt x="146" y="1118" on="0"/>
        <pt x="217" y="1056" on="0"/>
        <pt x="270" y="1056" on="1"/>
        <pt x="299" y="1056" on="0"/>
        <pt x="344" y="1077" on="0"/>
        <pt x="374" y="1113" on="0"/>
        <pt x="390" y="1161" on="0"/>
        <pt x="390" y="1188" on="1"/>
        <pt x="390" y="1244" on="0"/>
        <pt x="318" y="1306" on="0"/>
      </contour>
    </TTGlyph>
    <TTGlyph name="dieresis" xMin="0" yMin="1138" xMax="482" yMax="1346">
      <contour>
        <pt x="482" y="1242" on="1"/>
        <pt x="482" y="1203" on="0"/>
        <pt x="429" y="1150" on="0"/>
        <pt x="390" y="1150" on="1"/>
        <pt x="351" y="1150" on="0"/>
        <pt x="300" y="1204" on="0"/>
        <pt x="300" y="1242" on="1"/>
        <pt x="300" y="1281" on="0"/>
        <pt x="353" y="1336" on="0"/>
        <pt x="392" y="1336" on="1"/>
        <pt x="431" y="1336" on="0"/>
        <pt x="482" y="1281" on="0"/>
      </contour>
      <contour>
        <pt x="202" y="1242" on="1"/>
        <pt x="202" y="1198" on="0"/>
        <pt x="144" y="1138" on="0"/>
        <pt x="100" y="1138" on="1"/>
        <pt x="79" y="1138" on="0"/>
        <pt x="42" y="1155" on="0"/>
        <pt x="15" y="1184" on="0"/>
        <pt x="0" y="1222" on="0"/>
        <pt x="0" y="1242" on="1"/>
        <pt x="0" y="1286" on="0"/>
        <pt x="60" y="1346" on="0"/>
        <pt x="104" y="1346" on="1"/>
        <pt x="126" y="1346" on="0"/>
        <pt x="162" y="1329" on="0"/>
        <pt x="188" y="1301" on="0"/>
        <pt x="202" y="1263" on="0"/>
      </contour>
    </TTGlyph>
    <TTGlyph name="divide" xMin="61" yMin="394" xMax="689" yMax="1096">
      <contour>
        <pt x="689" y="838" on="1"/>
        <pt x="679" y="658" on="1"/>
        <pt x="67" y="648" on="1"/>
        <pt x="61" y="834" on="1"/>
      </contour>
      <contour>
        <pt x="489" y="494" on="1"/>
        <pt x="489" y="473" on="0"/>
        <pt x="473" y="436" on="0"/>
        <pt x="445" y="409" on="0"/>
        <pt x="408" y="394" on="0"/>
        <pt x="387" y="394" on="1"/>
        <pt x="366" y="394" on="0"/>
        <pt x="329" y="409" on="0"/>
        <pt x="302" y="436" on="0"/>
        <pt x="287" y="473" on="0"/>
        <pt x="287" y="494" on="1"/>
        <pt x="287" y="515" on="0"/>
        <pt x="302" y="552" on="0"/>
        <pt x="329" y="580" on="0"/>
        <pt x="366" y="596" on="0"/>
        <pt x="387" y="596" on="1"/>
        <pt x="408" y="596" on="0"/>
        <pt x="445" y="580" on="0"/>
        <pt x="473" y="552" on="0"/>
        <pt x="489" y="515" on="0"/>
      </contour>
      <contour>
        <pt x="489" y="994" on="1"/>
        <pt x="489" y="973" on="0"/>
        <pt x="473" y="936" on="0"/>
        <pt x="445" y="909" on="0"/>
        <pt x="408" y="894" on="0"/>
        <pt x="387" y="894" on="1"/>
        <pt x="366" y="894" on="0"/>
        <pt x="329" y="909" on="0"/>
        <pt x="302" y="936" on="0"/>
        <pt x="287" y="973" on="0"/>
        <pt x="287" y="994" on="1"/>
        <pt x="287" y="1015" on="0"/>
        <pt x="302" y="1052" on="0"/>
        <pt x="329" y="1080" on="0"/>
        <pt x="366" y="1096" on="0"/>
        <pt x="387" y="1096" on="1"/>
        <pt x="408" y="1096" on="0"/>
        <pt x="445" y="1080" on="0"/>
        <pt x="473" y="1052" on="0"/>
        <pt x="489" y="1015" on="0"/>
      </contour>
    </TTGlyph>
    <TTGlyph name="dollar" xMin="60" yMin="-68" xMax="710" yMax="1506">
      <contour>
        <pt x="448" y="194" on="1"/>
        <pt x="462" y="-68" on="1"/>
        <pt x="300" y="-68" on="1"/>
        <pt x="318" y="216" on="1"/>
        <pt x="283" y="231" on="0"/>
        <pt x="228" y="288" on="0"/>
        <pt x="202" y="330" on="1"/>
        <pt x="200" y="206" on="1"/>
        <pt x="60" y="224" on="1"/>
        <pt x="86" y="592" on="1"/>
        <pt x="204" y="586" on="1"/>
        <pt x="211" y="543" on="0"/>
        <pt x="240" y="451" on="0"/>
        <pt x="291" y="375" on="0"/>
        <pt x="366" y="326" on="0"/>
        <pt x="418" y="326" on="1"/>
        <pt x="502" y="326" on="0"/>
        <pt x="568" y="395" on="0"/>
        <pt x="568" y="472" on="1"/>
        <pt x="568" y="515" on="0"/>
        <pt x="539" y="574" on="0"/>
        <pt x="490" y="614" on="0"/>
        <pt x="423" y="642" on="0"/>
        <pt x="386" y="656" on="1"/>
        <pt x="320" y="679" on="0"/>
        <pt x="203" y="722" on="0"/>
        <pt x="116" y="787" on="0"/>
        <pt x="66" y="886" on="0"/>
        <pt x="66" y="966" on="1"/>
        <pt x="66" y="1090" on="0"/>
        <pt x="198" y="1225" on="0"/>
        <pt x="316" y="1236" on="1"/>
        <pt x="300" y="1506" on="1"/>
        <pt x="462" y="1506" on="1"/>
        <pt x="444" y="1224" on="1"/>
        <pt x="485" y="1210" on="0"/>
        <pt x="539" y="1150" on="0"/>
        <pt x="568" y="1102" on="1"/>
        <pt x="570" y="1234" on="1"/>
        <pt x="710" y="1232" on="1"/>
        <pt x="692" y="824" on="1"/>
        <pt x="566" y="828" on="1"/>
        <pt x="559" y="873" on="0"/>
        <pt x="535" y="969" on="0"/>
        <pt x="489" y="1047" on="0"/>
        <pt x="415" y="1098" on="0"/>
        <pt x="360" y="1098" on="1"/>
        <pt x="288" y="1098" on="0"/>
        <pt x="218" y="1026" on="0"/>
        <pt x="218" y="960" on="1"/>
        <pt x="218" y="913" on="0"/>
        <pt x="249" y="858" on="0"/>
        <pt x="301" y="822" on="0"/>
        <pt x="371" y="798" on="0"/>
        <pt x="410" y="784" on="1"/>
        <pt x="470" y="763" on="0"/>
        <pt x="579" y="714" on="0"/>
        <pt x="661" y="645" on="0"/>
        <pt x="710" y="546" on="0"/>
        <pt x="710" y="476" on="1"/>
        <pt x="710" y="348" on="0"/>
        <pt x="582" y="199" on="0"/>
      </contour>
    </TTGlyph>
    <TTGlyph name="dotaccent" xMin="0" yMin="1138" xMax="202" yMax="1346">
      <contour>
        <pt x="202" y="1242" on="1"/>
        <pt x="202" y="1198" on="0"/>
        <pt x="144" y="1138" on="0"/>
        <pt x="100" y="1138" on="1"/>
        <pt x="79" y="1138" on="0"/>
        <pt x="42" y="1155" on="0"/>
        <pt x="15" y="1184" on="0"/>
        <pt x="0" y="1222" on="0"/>
        <pt x="0" y="1242" on="1"/>
        <pt x="0" y="1286" on="0"/>
        <pt x="60" y="1346" on="0"/>
        <pt x="104" y="1346" on="1"/>
        <pt x="126" y="1346" on="0"/>
        <pt x="162" y="1329" on="0"/>
        <pt x="188" y="1301" on="0"/>
        <pt x="202" y="1263" on="0"/>
      </contour>
    </TTGlyph>
    <TTGlyph name="dotlessi" xMin="23" yMin="-26" xMax="433" yMax="1018">
      <contour>
        <pt x="433" y="140" on="1"/>
        <pt x="427" y="-26" on="1"/>
        <pt x="61" y="-10" on="1"/>
        <pt x="61" y="164" on="1"/>
        <pt x="145" y="170" on="1"/>
        <pt x="145" y="844" on="1"/>
        <pt x="23" y="844" on="1"/>
        <pt x="27" y="1018" on="1"/>
        <pt x="349" y="1018" on="1"/>
        <pt x="325" y="150" on="1"/>
      </contour>
    </TTGlyph>
    <TTGlyph name="dotlessj" xMin="-183" yMin="-412" xMax="315" yMax="1022">
      <contour>
        <pt x="315" y="1022" on="1"/>
        <pt x="309" y="52" on="1"/>
        <pt x="308" y="-55" on="0"/>
        <pt x="269" y="-227" on="0"/>
        <pt x="174" y="-347" on="0"/>
        <pt x="16" y="-412" on="0"/>
        <pt x="-103" y="-412" on="1"/>
        <pt x="-123" y="-412" on="0"/>
        <pt x="-163" y="-410" on="0"/>
        <pt x="-183" y="-408" on="1"/>
        <pt x="-179" y="-232" on="1"/>
        <pt x="-94" y="-234" on="0"/>
        <pt x="23" y="-215" on="0"/>
        <pt x="95" y="-154" on="0"/>
        <pt x="127" y="-40" on="0"/>
        <pt x="127" y="52" on="1"/>
        <pt x="127" y="860" on="1"/>
        <pt x="11" y="854" on="1"/>
        <pt x="17" y="1020" on="1"/>
      </contour>
    </TTGlyph>
    <TTGlyph name="e" xMin="53" yMin="-12" xMax="667" yMax="1040">
      <contour>
        <pt x="667" y="606" on="1"/>
        <pt x="667" y="524" on="0"/>
        <pt x="661" y="446" on="1"/>
        <pt x="231" y="438" on="1"/>
        <pt x="231" y="417" on="0"/>
        <pt x="235" y="358" on="0"/>
        <pt x="244" y="293" on="0"/>
        <pt x="261" y="230" on="0"/>
        <pt x="289" y="179" on="0"/>
        <pt x="330" y="148" on="0"/>
        <pt x="359" y="148" on="1"/>
        <pt x="390" y="148" on="0"/>
        <pt x="435" y="181" on="0"/>
        <pt x="464" y="230" on="0"/>
        <pt x="480" y="288" on="0"/>
        <pt x="483" y="314" on="1"/>
        <pt x="657" y="314" on="1"/>
        <pt x="648" y="257" on="0"/>
        <pt x="606" y="141" on="0"/>
        <pt x="536" y="47" on="0"/>
        <pt x="436" y="-12" on="0"/>
        <pt x="369" y="-12" on="1"/>
        <pt x="299" y="-12" on="0"/>
        <pt x="198" y="41" on="0"/>
        <pt x="128" y="129" on="0"/>
        <pt x="84" y="244" on="0"/>
        <pt x="61" y="367" on="0"/>
        <pt x="53" y="491" on="0"/>
        <pt x="53" y="544" on="1"/>
        <pt x="53" y="592" on="0"/>
        <pt x="64" y="704" on="0"/>
        <pt x="90" y="814" on="0"/>
        <pt x="135" y="916" on="0"/>
        <pt x="203" y="993" on="0"/>
        <pt x="297" y="1040" on="0"/>
        <pt x="359" y="1040" on="1"/>
        <pt x="465" y="1040" on="0"/>
        <pt x="587" y="973" on="0"/>
        <pt x="650" y="856" on="0"/>
        <pt x="667" y="697" on="0"/>
      </contour>
      <contour>
        <pt x="493" y="664" on="1"/>
        <pt x="493" y="694" on="0"/>
        <pt x="486" y="770" on="0"/>
        <pt x="461" y="838" on="0"/>
        <pt x="413" y="884" on="0"/>
        <pt x="373" y="884" on="1"/>
        <pt x="338" y="884" on="0"/>
        <pt x="290" y="853" on="0"/>
        <pt x="258" y="803" on="0"/>
        <pt x="240" y="738" on="0"/>
        <pt x="232" y="671" on="0"/>
        <pt x="229" y="607" on="0"/>
        <pt x="229" y="582" on="1"/>
        <pt x="487" y="582" on="1"/>
        <pt x="493" y="624" on="0"/>
      </contour>
    </TTGlyph>
    <TTGlyph name="eacute" xMin="53" yMin="-12" xMax="667" yMax="1394">
      <component glyphName="e" x="0" y="0" flags="0x204"/>
      <component glyphName="acute" x="341" y="0" flags="0x4"/>
    </TTGlyph>
    <TTGlyph name="ebreve" xMin="53" yMin="-12" xMax="667" yMax="1351">
      <component glyphName="e" x="0" y="0" flags="0x204"/>
      <component glyphName="breve" x="132" y="-61" flags="0x4"/>
    </TTGlyph>
    <TTGlyph name="ecaron" xMin="53" yMin="-12" xMax="667" yMax="1371">
      <component glyphName="e" x="0" y="0" flags="0x204"/>
      <component glyphName="caron" x="128" y="-43" flags="0x4"/>
    </TTGlyph>
    <TTGlyph name="ecircumflex" xMin="53" yMin="-12" xMax="667" yMax="1375">
      <component glyphName="e" x="0" y="0" flags="0x204"/>
      <component glyphName="circumflex" x="129" y="-39" flags="0x4"/>
    </TTGlyph>
    <TTGlyph name="edieresis" xMin="53" yMin="-12" xMax="667" yMax="1307">
      <component glyphName="e" x="0" y="0" flags="0x204"/>
      <component glyphName="dieresis" x="119" y="-39" flags="0x4"/>
    </TTGlyph>
    <TTGlyph name="edotaccent" xMin="53" yMin="-12" xMax="667" yMax="1303">
      <component glyphName="e" x="0" y="0" flags="0x204"/>
      <component glyphName="dotaccent" x="258" y="-43" flags="0x4"/>
    </TTGlyph>
    <TTGlyph name="egrave" xMin="53" yMin="-12" xMax="667" yMax="1394">
      <component glyphName="e" x="0" y="0" flags="0x204"/>
      <component glyphName="grave" x="101" y="0" flags="0x4"/>
    </TTGlyph>
    <TTGlyph name="eight" xMin="56" yMin="-10" xMax="908" yMax="1438">
      <contour>
        <pt x="908" y="382" on="1"/>
        <pt x="908" y="293" on="0"/>
        <pt x="838" y="148" on="0"/>
        <pt x="721" y="46" on="0"/>
        <pt x="567" y="-10" on="0"/>
        <pt x="482" y="-10" on="1"/>
        <pt x="393" y="-10" on="0"/>
        <pt x="237" y="42" on="0"/>
        <pt x="122" y="141" on="0"/>
        <pt x="56" y="287" on="0"/>
        <pt x="56" y="382" on="1"/>
        <pt x="56" y="437" on="0"/>
        <pt x="87" y="547" on="0"/>
        <pt x="146" y="643" on="0"/>
        <pt x="229" y="719" on="0"/>
        <pt x="282" y="740" on="1"/>
        <pt x="238" y="756" on="0"/>
        <pt x="170" y="821" on="0"/>
        <pt x="123" y="904" on="0"/>
        <pt x="98" y="998" on="0"/>
        <pt x="98" y="1042" on="1"/>
        <pt x="98" y="1127" on="0"/>
        <pt x="153" y="1273" on="0"/>
        <pt x="253" y="1378" on="0"/>
        <pt x="395" y="1438" on="0"/>
        <pt x="482" y="1438" on="1"/>
        <pt x="567" y="1438" on="0"/>
        <pt x="709" y="1377" on="0"/>
        <pt x="810" y="1270" on="0"/>
        <pt x="866" y="1125" on="0"/>
        <pt x="866" y="1042" on="1"/>
        <pt x="866" y="999" on="0"/>
        <pt x="841" y="905" on="0"/>
        <pt x="793" y="821" on="0"/>
        <pt x="725" y="755" on="0"/>
        <pt x="682" y="740" on="1"/>
        <pt x="734" y="719" on="0"/>
        <pt x="818" y="643" on="0"/>
        <pt x="877" y="547" on="0"/>
        <pt x="908" y="437" on="0"/>
      </contour>
      <contour>
        <pt x="678" y="1042" on="1"/>
        <pt x="678" y="1085" on="0"/>
        <pt x="651" y="1165" on="0"/>
        <pt x="600" y="1228" on="0"/>
        <pt x="528" y="1266" on="0"/>
        <pt x="482" y="1266" on="1"/>
        <pt x="435" y="1266" on="0"/>
        <pt x="363" y="1229" on="0"/>
        <pt x="312" y="1166" on="0"/>
        <pt x="286" y="1085" on="0"/>
        <pt x="286" y="1042" on="1"/>
        <pt x="286" y="997" on="0"/>
        <pt x="311" y="915" on="0"/>
        <pt x="360" y="853" on="0"/>
        <pt x="433" y="816" on="0"/>
        <pt x="482" y="816" on="1"/>
        <pt x="531" y="816" on="0"/>
        <pt x="604" y="853" on="0"/>
        <pt x="653" y="915" on="0"/>
        <pt x="678" y="997" on="0"/>
      </contour>
      <contour>
        <pt x="730" y="382" on="1"/>
        <pt x="730" y="501" on="0"/>
        <pt x="601" y="636" on="0"/>
        <pt x="482" y="636" on="1"/>
        <pt x="426" y="636" on="0"/>
        <pt x="334" y="599" on="0"/>
        <pt x="269" y="532" on="0"/>
        <pt x="234" y="438" on="0"/>
        <pt x="234" y="382" on="1"/>
        <pt x="234" y="330" on="0"/>
        <pt x="274" y="245" on="0"/>
        <pt x="343" y="185" on="0"/>
        <pt x="432" y="152" on="0"/>
        <pt x="482" y="152" on="1"/>
        <pt x="534" y="152" on="0"/>
        <pt x="624" y="183" on="0"/>
        <pt x="691" y="243" on="0"/>
        <pt x="730" y="328" on="0"/>
      </contour>
    </TTGlyph>
    <TTGlyph name="ellipsis" xMin="50" yMin="-12" xMax="1132" yMax="242">
      <contour>
        <pt x="304" y="114" on="1"/>
        <pt x="304" y="88" on="0"/>
        <pt x="284" y="42" on="0"/>
        <pt x="249" y="8" on="0"/>
        <pt x="202" y="-12" on="0"/>
        <pt x="176" y="-12" on="1"/>
        <pt x="150" y="-12" on="0"/>
        <pt x="104" y="8" on="0"/>
        <pt x="70" y="42" on="0"/>
        <pt x="50" y="88" on="0"/>
        <pt x="50" y="114" on="1"/>
        <pt x="50" y="140" on="0"/>
        <pt x="70" y="187" on="0"/>
        <pt x="104" y="222" on="0"/>
        <pt x="150" y="242" on="0"/>
        <pt x="176" y="242" on="1"/>
        <pt x="202" y="242" on="0"/>
        <pt x="249" y="222" on="0"/>
        <pt x="284" y="187" on="0"/>
        <pt x="304" y="140" on="0"/>
      </contour>
      <contour>
        <pt x="718" y="114" on="1"/>
        <pt x="718" y="88" on="0"/>
        <pt x="698" y="42" on="0"/>
        <pt x="663" y="8" on="0"/>
        <pt x="616" y="-12" on="0"/>
        <pt x="590" y="-12" on="1"/>
        <pt x="564" y="-12" on="0"/>
        <pt x="518" y="8" on="0"/>
        <pt x="484" y="42" on="0"/>
        <pt x="464" y="88" on="0"/>
        <pt x="464" y="114" on="1"/>
        <pt x="464" y="140" on="0"/>
        <pt x="484" y="187" on="0"/>
        <pt x="518" y="222" on="0"/>
        <pt x="564" y="242" on="0"/>
        <pt x="590" y="242" on="1"/>
        <pt x="616" y="242" on="0"/>
        <pt x="663" y="222" on="0"/>
        <pt x="698" y="187" on="0"/>
        <pt x="718" y="140" on="0"/>
      </contour>
      <contour>
        <pt x="1132" y="114" on="1"/>
        <pt x="1132" y="88" on="0"/>
        <pt x="1112" y="42" on="0"/>
        <pt x="1077" y="8" on="0"/>
        <pt x="1030" y="-12" on="0"/>
        <pt x="1004" y="-12" on="1"/>
        <pt x="978" y="-12" on="0"/>
        <pt x="932" y="8" on="0"/>
        <pt x="898" y="42" on="0"/>
        <pt x="878" y="88" on="0"/>
        <pt x="878" y="114" on="1"/>
        <pt x="878" y="140" on="0"/>
        <pt x="898" y="187" on="0"/>
        <pt x="932" y="222" on="0"/>
        <pt x="978" y="242" on="0"/>
        <pt x="1004" y="242" on="1"/>
        <pt x="1030" y="242" on="0"/>
        <pt x="1077" y="222" on="0"/>
        <pt x="1112" y="187" on="0"/>
        <pt x="1132" y="140" on="0"/>
      </contour>
    </TTGlyph>
    <TTGlyph name="emacron" xMin="53" yMin="-12" xMax="667" yMax="1231">
      <component glyphName="e" x="0" y="0" flags="0x204"/>
      <component glyphName="macron" x="153" y="-159" flags="0x4"/>
    </TTGlyph>
    <TTGlyph name="emdash" xMin="71" yMin="648" xMax="1671" yMax="838">
      <contour>
        <pt x="1671" y="838" on="1"/>
        <pt x="1661" y="658" on="1"/>
        <pt x="77" y="648" on="1"/>
        <pt x="71" y="834" on="1"/>
      </contour>
    </TTGlyph>
    <TTGlyph name="endash" xMin="71" yMin="648" xMax="871" yMax="838">
      <contour>
        <pt x="871" y="838" on="1"/>
        <pt x="861" y="658" on="1"/>
        <pt x="77" y="648" on="1"/>
        <pt x="71" y="834" on="1"/>
      </contour>
    </TTGlyph>
    <TTGlyph name="eng" xMin="23" yMin="-412" xMax="769" yMax="1042">
      <contour>
        <pt x="767" y="52" on="1"/>
        <pt x="766" y="-55" on="0"/>
        <pt x="726" y="-227" on="0"/>
        <pt x="631" y="-347" on="0"/>
        <pt x="473" y="-412" on="0"/>
        <pt x="354" y="-412" on="1"/>
        <pt x="334" y="-412" on="0"/>
        <pt x="294" y="-410" on="0"/>
        <pt x="274" y="-408" on="1"/>
        <pt x="278" y="-232" on="1"/>
        <pt x="363" y="-234" on="0"/>
        <pt x="481" y="-215" on="0"/>
        <pt x="556" y="-154" on="0"/>
        <pt x="592" y="-40" on="0"/>
        <pt x="594" y="52" on="1"/>
        <pt x="595" y="163" on="0"/>
        <pt x="596" y="346" on="0"/>
        <pt x="597" y="503" on="0"/>
        <pt x="597" y="642" on="0"/>
        <pt x="597" y="710" on="1"/>
        <pt x="597" y="734" on="0"/>
        <pt x="588" y="786" on="0"/>
        <pt x="566" y="830" on="0"/>
        <pt x="527" y="858" on="0"/>
        <pt x="497" y="858" on="1"/>
        <pt x="453" y="858" on="0"/>
        <pt x="392" y="809" on="0"/>
        <pt x="354" y="737" on="0"/>
        <pt x="336" y="653" on="0"/>
        <pt x="335" y="618" on="1"/>
        <pt x="330" y="505" on="0"/>
        <pt x="327" y="281" on="0"/>
        <pt x="325" y="168" on="1"/>
        <pt x="413" y="168" on="1"/>
        <pt x="423" y="6" on="1"/>
        <pt x="77" y="2" on="1"/>
        <pt x="77" y="186" on="1"/>
        <pt x="175" y="192" on="1"/>
        <pt x="169" y="842" on="1"/>
        <pt x="23" y="852" on="1"/>
        <pt x="27" y="1022" on="1"/>
        <pt x="315" y="1032" on="1"/>
        <pt x="321" y="890" on="1"/>
        <pt x="341" y="920" on="0"/>
        <pt x="396" y="975" on="0"/>
        <pt x="462" y="1017" on="0"/>
        <pt x="535" y="1042" on="0"/>
        <pt x="573" y="1042" on="1"/>
        <pt x="618" y="1042" on="0"/>
        <pt x="682" y="1012" on="0"/>
        <pt x="726" y="960" on="0"/>
        <pt x="751" y="893" on="0"/>
        <pt x="765" y="818" on="0"/>
        <pt x="769" y="741" on="0"/>
        <pt x="769" y="706" on="1"/>
      </contour>
    </TTGlyph>
    <TTGlyph name="eogonek" xMin="53" yMin="-322" xMax="667" yMax="1040">
      <contour>
        <pt x="489" y="-308" on="1"/>
        <pt x="468" y="-314" on="0"/>
        <pt x="426" y="-322" on="0"/>
        <pt x="403" y="-322" on="1"/>
        <pt x="365" y="-322" on="0"/>
        <pt x="301" y="-299" on="0"/>
        <pt x="256" y="-255" on="0"/>
        <pt x="231" y="-193" on="0"/>
        <pt x="231" y="-154" on="1"/>
        <pt x="231" y="-114" on="0"/>
        <pt x="261" y="-35" on="0"/>
        <pt x="286" y="0" on="1"/>
        <pt x="235" y="15" on="0"/>
        <pt x="160" y="81" on="0"/>
        <pt x="109" y="171" on="0"/>
        <pt x="77" y="277" on="0"/>
        <pt x="59" y="388" on="0"/>
        <pt x="53" y="497" on="0"/>
        <pt x="53" y="544" on="1"/>
        <pt x="53" y="592" on="0"/>
        <pt x="64" y="704" on="0"/>
        <pt x="90" y="814" on="0"/>
        <pt x="135" y="916" on="0"/>
        <pt x="203" y="993" on="0"/>
        <pt x="297" y="1040" on="0"/>
        <pt x="359" y="1040" on="1"/>
        <pt x="465" y="1040" on="0"/>
        <pt x="587" y="973" on="0"/>
        <pt x="650" y="856" on="0"/>
        <pt x="667" y="697" on="0"/>
        <pt x="667" y="606" on="1"/>
        <pt x="667" y="524" on="0"/>
        <pt x="661" y="446" on="1"/>
        <pt x="231" y="438" on="1"/>
        <pt x="231" y="417" on="0"/>
        <pt x="235" y="358" on="0"/>
        <pt x="244" y="293" on="0"/>
        <pt x="261" y="230" on="0"/>
        <pt x="289" y="179" on="0"/>
        <pt x="330" y="148" on="0"/>
        <pt x="359" y="148" on="1"/>
        <pt x="390" y="148" on="0"/>
        <pt x="435" y="181" on="0"/>
        <pt x="464" y="230" on="0"/>
        <pt x="480" y="288" on="0"/>
        <pt x="483" y="314" on="1"/>
        <pt x="657" y="314" on="1"/>
        <pt x="648" y="259" on="0"/>
        <pt x="609" y="148" on="0"/>
        <pt x="544" y="56" on="0"/>
        <pt x="451" y="-6" on="0"/>
        <pt x="390" y="-11" on="1"/>
        <pt x="373" y="-40" on="0"/>
        <pt x="349" y="-104" on="0"/>
        <pt x="349" y="-132" on="1"/>
        <pt x="349" y="-167" on="0"/>
        <pt x="378" y="-202" on="0"/>
        <pt x="413" y="-202" on="1"/>
        <pt x="441" y="-202" on="0"/>
        <pt x="465" y="-190" on="1"/>
      </contour>
      <contour>
        <pt x="493" y="664" on="1"/>
        <pt x="493" y="694" on="0"/>
        <pt x="486" y="770" on="0"/>
        <pt x="461" y="838" on="0"/>
        <pt x="413" y="884" on="0"/>
        <pt x="373" y="884" on="1"/>
        <pt x="338" y="884" on="0"/>
        <pt x="290" y="853" on="0"/>
        <pt x="258" y="803" on="0"/>
        <pt x="240" y="738" on="0"/>
        <pt x="232" y="671" on="0"/>
        <pt x="229" y="607" on="0"/>
        <pt x="229" y="582" on="1"/>
        <pt x="487" y="582" on="1"/>
        <pt x="493" y="624" on="0"/>
      </contour>
    </TTGlyph>
    <TTGlyph name="equal" xMin="95" yMin="448" xMax="723" yMax="1038">
      <contour>
        <pt x="723" y="638" on="1"/>
        <pt x="713" y="458" on="1"/>
        <pt x="101" y="448" on="1"/>
        <pt x="95" y="634" on="1"/>
      </contour>
      <contour>
        <pt x="723" y="1038" on="1"/>
        <pt x="713" y="858" on="1"/>
        <pt x="101" y="848" on="1"/>
        <pt x="95" y="1034" on="1"/>
      </contour>
    </TTGlyph>
    <TTGlyph name="eth" xMin="50" yMin="-20" xMax="688" yMax="1474">
      <contour>
        <pt x="530" y="550" on="1"/>
        <pt x="530" y="571" on="0"/>
        <pt x="526" y="637" on="0"/>
        <pt x="515" y="711" on="0"/>
        <pt x="495" y="785" on="0"/>
        <pt x="463" y="845" on="0"/>
        <pt x="416" y="882" on="0"/>
        <pt x="384" y="882" on="1"/>
        <pt x="345" y="882" on="0"/>
        <pt x="290" y="835" on="0"/>
        <pt x="251" y="761" on="0"/>
        <pt x="227" y="670" on="0"/>
        <pt x="214" y="579" on="0"/>
        <pt x="210" y="499" on="0"/>
        <pt x="210" y="474" on="1"/>
        <pt x="210" y="453" on="0"/>
        <pt x="214" y="388" on="0"/>
        <pt x="226" y="314" on="0"/>
        <pt x="247" y="241" on="0"/>
        <pt x="279" y="181" on="0"/>
        <pt x="325" y="144" on="0"/>
        <pt x="356" y="144" on="1"/>
        <pt x="394" y="144" on="0"/>
        <pt x="449" y="190" on="0"/>
        <pt x="488" y="263" on="0"/>
        <pt x="512" y="353" on="0"/>
        <pt x="525" y="444" on="0"/>
        <pt x="530" y="524" on="0"/>
      </contour>
      <contour>
        <pt x="658" y="1346" on="1"/>
        <pt x="676" y="1206" on="1"/>
        <pt x="574" y="1184" on="1"/>
        <pt x="596" y="1125" on="0"/>
        <pt x="638" y="986" on="0"/>
        <pt x="669" y="826" on="0"/>
        <pt x="688" y="644" on="0"/>
        <pt x="688" y="544" on="1"/>
        <pt x="688" y="494" on="0"/>
        <pt x="676" y="372" on="0"/>
        <pt x="646" y="247" on="0"/>
        <pt x="597" y="128" on="0"/>
        <pt x="523" y="36" on="0"/>
        <pt x="424" y="-20" on="0"/>
        <pt x="358" y="-20" on="1"/>
        <pt x="296" y="-20" on="0"/>
        <pt x="202" y="27" on="0"/>
        <pt x="134" y="104" on="0"/>
        <pt x="88" y="206" on="0"/>
        <pt x="61" y="316" on="0"/>
        <pt x="50" y="428" on="0"/>
        <pt x="50" y="476" on="1"/>
        <pt x="50" y="526" on="0"/>
        <pt x="62" y="650" on="0"/>
        <pt x="91" y="777" on="0"/>
        <pt x="140" y="897" on="0"/>
        <pt x="213" y="990" on="0"/>
        <pt x="313" y="1046" on="0"/>
        <pt x="380" y="1046" on="1"/>
        <pt x="410" y="1046" on="0"/>
        <pt x="468" y="1022" on="0"/>
        <pt x="494" y="1002" on="1"/>
        <pt x="479" y="1034" on="0"/>
        <pt x="444" y="1111" on="0"/>
        <pt x="424" y="1150" on="1"/>
        <pt x="272" y="1118" on="1"/>
        <pt x="240" y="1260" on="1"/>
        <pt x="352" y="1282" on="1"/>
        <pt x="329" y="1321" on="0"/>
        <pt x="283" y="1386" on="0"/>
        <pt x="260" y="1410" on="1"/>
        <pt x="418" y="1474" on="1"/>
        <pt x="430" y="1457" on="0"/>
        <pt x="446" y="1434" on="1"/>
        <pt x="459" y="1414" on="0"/>
        <pt x="494" y="1355" on="0"/>
        <pt x="514" y="1316" on="1"/>
      </contour>
    </TTGlyph>
    <TTGlyph name="exclam" xMin="77" yMin="-12" xMax="335" yMax="1454">
      <contour>
        <pt x="329" y="1454" on="1"/>
        <pt x="279" y="308" on="1"/>
        <pt x="149" y="298" on="1"/>
        <pt x="77" y="1444" on="1"/>
      </contour>
      <contour>
        <pt x="335" y="114" on="1"/>
        <pt x="335" y="88" on="0"/>
        <pt x="315" y="42" on="0"/>
        <pt x="281" y="8" on="0"/>
        <pt x="235" y="-12" on="0"/>
        <pt x="209" y="-12" on="1"/>
        <pt x="183" y="-12" on="0"/>
        <pt x="136" y="8" on="0"/>
        <pt x="101" y="42" on="0"/>
        <pt x="81" y="88" on="0"/>
        <pt x="81" y="114" on="1"/>
        <pt x="81" y="140" on="0"/>
        <pt x="101" y="187" on="0"/>
        <pt x="136" y="222" on="0"/>
        <pt x="183" y="242" on="0"/>
        <pt x="209" y="242" on="1"/>
        <pt x="235" y="242" on="0"/>
        <pt x="281" y="222" on="0"/>
        <pt x="315" y="187" on="0"/>
        <pt x="335" y="140" on="0"/>
      </contour>
    </TTGlyph>
    <TTGlyph name="exclamdown" xMin="78" yMin="-172" xMax="336" yMax="1294">
      <contour>
        <pt x="84" y="-172" on="1"/>
        <pt x="134" y="974" on="1"/>
        <pt x="264" y="984" on="1"/>
        <pt x="336" y="-162" on="1"/>
      </contour>
      <contour>
        <pt x="78" y="1166" on="1"/>
        <pt x="78" y="1192" on="0"/>
        <pt x="98" y="1239" on="0"/>
        <pt x="132" y="1274" on="0"/>
        <pt x="178" y="1294" on="0"/>
        <pt x="204" y="1294" on="1"/>
        <pt x="230" y="1294" on="0"/>
        <pt x="277" y="1274" on="0"/>
        <pt x="312" y="1239" on="0"/>
        <pt x="332" y="1192" on="0"/>
        <pt x="332" y="1166" on="1"/>
        <pt x="332" y="1140" on="0"/>
        <pt x="312" y="1094" on="0"/>
        <pt x="277" y="1060" on="0"/>
        <pt x="230" y="1040" on="0"/>
        <pt x="204" y="1040" on="1"/>
        <pt x="178" y="1040" on="0"/>
        <pt x="132" y="1060" on="0"/>
        <pt x="98" y="1094" on="0"/>
        <pt x="78" y="1140" on="0"/>
      </contour>
    </TTGlyph>
    <TTGlyph name="f" xMin="39" yMin="4" xMax="675" yMax="1488">
      <contour>
        <pt x="675" y="1484" on="1"/>
        <pt x="671" y="1308" on="1"/>
        <pt x="586" y="1310" on="0"/>
        <pt x="471" y="1290" on="0"/>
        <pt x="399" y="1228" on="0"/>
        <pt x="366" y="1115" on="0"/>
        <pt x="363" y="1024" on="1"/>
        <pt x="497" y="1024" on="1"/>
        <pt x="487" y="834" on="1"/>
        <pt x="365" y="842" on="1"/>
        <pt x="365" y="166" on="1"/>
        <pt x="481" y="170" on="1"/>
        <pt x="475" y="4" on="1"/>
        <pt x="53" y="4" on="1"/>
        <pt x="53" y="180" on="1"/>
        <pt x="185" y="184" on="1"/>
        <pt x="185" y="848" on="1"/>
        <pt x="39" y="848" on="1"/>
        <pt x="43" y="1024" on="1"/>
        <pt x="183" y="1024" on="1"/>
        <pt x="184" y="1132" on="0"/>
        <pt x="223" y="1304" on="0"/>
        <pt x="316" y="1424" on="0"/>
        <pt x="473" y="1488" on="0"/>
        <pt x="593" y="1488" on="1"/>
        <pt x="614" y="1488" on="0"/>
        <pt x="654" y="1486" on="0"/>
      </contour>
    </TTGlyph>
    <TTGlyph name="fi" xMin="39" yMin="-26" xMax="1037" yMax="1488">
      <contour>
        <pt x="1037" y="140" on="1"/>
        <pt x="1031" y="-26" on="1"/>
        <pt x="665" y="-10" on="1"/>
        <pt x="665" y="164" on="1"/>
        <pt x="749" y="170" on="1"/>
        <pt x="749" y="844" on="1"/>
        <pt x="365" y="836" on="1"/>
        <pt x="365" y="166" on="1"/>
        <pt x="481" y="170" on="1"/>
        <pt x="475" y="4" on="1"/>
        <pt x="53" y="4" on="1"/>
        <pt x="53" y="180" on="1"/>
        <pt x="185" y="184" on="1"/>
        <pt x="185" y="848" on="1"/>
        <pt x="39" y="848" on="1"/>
        <pt x="43" y="1024" on="1"/>
        <pt x="183" y="1024" on="1"/>
        <pt x="184" y="1132" on="0"/>
        <pt x="223" y="1304" on="0"/>
        <pt x="316" y="1424" on="0"/>
        <pt x="473" y="1488" on="0"/>
        <pt x="593" y="1488" on="1"/>
        <pt x="614" y="1488" on="0"/>
        <pt x="654" y="1486" on="0"/>
        <pt x="675" y="1484" on="1"/>
        <pt x="671" y="1308" on="1"/>
        <pt x="586" y="1310" on="0"/>
        <pt x="471" y="1290" on="0"/>
        <pt x="399" y="1228" on="0"/>
        <pt x="366" y="1115" on="0"/>
        <pt x="363" y="1024" on="1"/>
        <pt x="953" y="1018" on="1"/>
        <pt x="929" y="150" on="1"/>
      </contour>
      <contour>
        <pt x="953" y="1258" on="1"/>
        <pt x="953" y="1232" on="0"/>
        <pt x="933" y="1186" on="0"/>
        <pt x="899" y="1152" on="0"/>
        <pt x="853" y="1132" on="0"/>
        <pt x="827" y="1132" on="1"/>
        <pt x="801" y="1132" on="0"/>
        <pt x="755" y="1152" on="0"/>
        <pt x="721" y="1186" on="0"/>
        <pt x="701" y="1232" on="0"/>
        <pt x="701" y="1258" on="1"/>
        <pt x="701" y="1284" on="0"/>
        <pt x="721" y="1330" on="0"/>
        <pt x="755" y="1364" on="0"/>
        <pt x="801" y="1384" on="0"/>
        <pt x="827" y="1384" on="1"/>
        <pt x="853" y="1384" on="0"/>
        <pt x="899" y="1364" on="0"/>
        <pt x="933" y="1330" on="0"/>
        <pt x="953" y="1284" on="0"/>
      </contour>
    </TTGlyph>
    <TTGlyph name="five" xMin="62" yMin="-10" xMax="816" yMax="1416">
      <contour>
        <pt x="816" y="452" on="1"/>
        <pt x="816" y="361" on="0"/>
        <pt x="776" y="194" on="0"/>
        <pt x="688" y="66" on="0"/>
        <pt x="546" y="-10" on="0"/>
        <pt x="444" y="-10" on="1"/>
        <pt x="349" y="-10" on="0"/>
        <pt x="206" y="70" on="0"/>
        <pt x="110" y="201" on="0"/>
        <pt x="62" y="368" on="0"/>
        <pt x="64" y="456" on="1"/>
        <pt x="64" y="484" on="1"/>
        <pt x="252" y="478" on="1"/>
        <pt x="252" y="431" on="0"/>
        <pt x="266" y="318" on="0"/>
        <pt x="307" y="219" on="0"/>
        <pt x="382" y="152" on="0"/>
        <pt x="444" y="152" on="1"/>
        <pt x="502" y="152" on="0"/>
        <pt x="576" y="205" on="0"/>
        <pt x="619" y="287" on="0"/>
        <pt x="636" y="387" on="0"/>
        <pt x="636" y="434" on="1"/>
        <pt x="636" y="496" on="0"/>
        <pt x="604" y="599" on="0"/>
        <pt x="541" y="672" on="0"/>
        <pt x="444" y="712" on="0"/>
        <pt x="380" y="712" on="1"/>
        <pt x="344" y="712" on="0"/>
        <pt x="273" y="698" on="0"/>
        <pt x="240" y="686" on="1"/>
        <pt x="74" y="776" on="1"/>
        <pt x="132" y="1410" on="1"/>
        <pt x="758" y="1416" on="1"/>
        <pt x="768" y="1032" on="1"/>
        <pt x="592" y="1032" on="1"/>
        <pt x="592" y="1234" on="1"/>
        <pt x="290" y="1236" on="1"/>
        <pt x="262" y="858" on="1"/>
        <pt x="294" y="866" on="0"/>
        <pt x="356" y="872" on="0"/>
        <pt x="388" y="872" on="1"/>
        <pt x="479" y="872" on="0"/>
        <pt x="636" y="810" on="0"/>
        <pt x="751" y="699" on="0"/>
        <pt x="816" y="544" on="0"/>
      </contour>
    </TTGlyph>
    <TTGlyph name="fl" xMin="39" yMin="-8" xMax="1029" yMax="1488">
      <contour>
        <pt x="1029" y="158" on="1"/>
        <pt x="1023" y="-8" on="1"/>
        <pt x="657" y="8" on="1"/>
        <pt x="657" y="182" on="1"/>
        <pt x="741" y="188" on="1"/>
        <pt x="741" y="1304" on="1"/>
        <pt x="671" y="1310" on="1"/>
        <pt x="586" y="1311" on="0"/>
        <pt x="471" y="1291" on="0"/>
        <pt x="399" y="1228" on="0"/>
        <pt x="366" y="1115" on="0"/>
        <pt x="363" y="1024" on="1"/>
        <pt x="577" y="1024" on="1"/>
        <pt x="567" y="834" on="1"/>
        <pt x="365" y="842" on="1"/>
        <pt x="365" y="166" on="1"/>
        <pt x="481" y="170" on="1"/>
        <pt x="475" y="4" on="1"/>
        <pt x="53" y="4" on="1"/>
        <pt x="53" y="180" on="1"/>
        <pt x="185" y="184" on="1"/>
        <pt x="185" y="848" on="1"/>
        <pt x="39" y="848" on="1"/>
        <pt x="43" y="1024" on="1"/>
        <pt x="183" y="1024" on="1"/>
        <pt x="184" y="1132" on="0"/>
        <pt x="223" y="1304" on="0"/>
        <pt x="316" y="1424" on="0"/>
        <pt x="473" y="1488" on="0"/>
        <pt x="593" y="1488" on="1"/>
        <pt x="945" y="1464" on="1"/>
        <pt x="921" y="168" on="1"/>
      </contour>
    </TTGlyph>
    <TTGlyph name="four" xMin="6" yMin="8" xMax="830" yMax="1408">
      <contour>
        <pt x="830" y="600" on="1"/>
        <pt x="820" y="420" on="1"/>
        <pt x="654" y="418" on="1"/>
        <pt x="652" y="194" on="1"/>
        <pt x="792" y="198" on="1"/>
        <pt x="782" y="18" on="1"/>
        <pt x="370" y="8" on="1"/>
        <pt x="364" y="194" on="1"/>
        <pt x="482" y="194" on="1"/>
        <pt x="482" y="416" on="1"/>
        <pt x="12" y="410" on="1"/>
        <pt x="6" y="594" on="1"/>
        <pt x="428" y="1408" on="1"/>
        <pt x="662" y="1408" on="1"/>
        <pt x="656" y="598" on="1"/>
      </contour>
      <contour>
        <pt x="482" y="598" on="1"/>
        <pt x="480" y="1182" on="1"/>
        <pt x="176" y="594" on="1"/>
      </contour>
    </TTGlyph>
    <TTGlyph name="fraction" xMin="-50" yMin="-20" xMax="750" yMax="1460">
      <contour>
        <pt x="750" y="1440" on="1"/>
        <pt x="62" y="-20" on="1"/>
        <pt x="-50" y="0" on="1"/>
        <pt x="626" y="1460" on="1"/>
      </contour>
    </TTGlyph>
    <TTGlyph name="g" xMin="46" yMin="-406" xMax="760" yMax="1178">
      <contour>
        <pt x="760" y="1058" on="1"/>
        <pt x="604" y="920" on="1"/>
        <pt x="624" y="867" on="0"/>
        <pt x="638" y="740" on="0"/>
        <pt x="638" y="684" on="1"/>
        <pt x="638" y="610" on="0"/>
        <pt x="603" y="485" on="0"/>
        <pt x="530" y="390" on="0"/>
        <pt x="417" y="330" on="0"/>
        <pt x="340" y="322" on="1"/>
        <pt x="332" y="317" on="0"/>
        <pt x="313" y="303" on="0"/>
        <pt x="297" y="286" on="0"/>
        <pt x="286" y="266" on="0"/>
        <pt x="286" y="256" on="1"/>
        <pt x="286" y="247" on="0"/>
        <pt x="298" y="222" on="0"/>
        <pt x="314" y="198" on="0"/>
        <pt x="331" y="176" on="0"/>
        <pt x="336" y="170" on="1"/>
        <pt x="403" y="170" on="0"/>
        <pt x="534" y="144" on="0"/>
        <pt x="637" y="81" on="0"/>
        <pt x="700" y="-23" on="0"/>
        <pt x="700" y="-102" on="1"/>
        <pt x="700" y="-169" on="0"/>
        <pt x="637" y="-280" on="0"/>
        <pt x="536" y="-361" on="0"/>
        <pt x="410" y="-406" on="0"/>
        <pt x="348" y="-406" on="1"/>
        <pt x="283" y="-406" on="0"/>
        <pt x="172" y="-367" on="0"/>
        <pt x="91" y="-294" on="0"/>
        <pt x="46" y="-189" on="0"/>
        <pt x="46" y="-122" on="1"/>
        <pt x="46" y="-48" on="0"/>
        <pt x="107" y="81" on="0"/>
        <pt x="170" y="122" on="1"/>
        <pt x="152" y="151" on="0"/>
        <pt x="124" y="215" on="0"/>
        <pt x="124" y="248" on="1"/>
        <pt x="124" y="283" on="0"/>
        <pt x="160" y="349" on="0"/>
        <pt x="190" y="366" on="1"/>
        <pt x="156" y="391" on="0"/>
        <pt x="107" y="469" on="0"/>
        <pt x="74" y="558" on="0"/>
        <pt x="58" y="651" on="0"/>
        <pt x="58" y="692" on="1"/>
        <pt x="58" y="772" on="0"/>
        <pt x="94" y="905" on="0"/>
        <pt x="170" y="1001" on="0"/>
        <pt x="289" y="1054" on="0"/>
        <pt x="372" y="1054" on="1"/>
        <pt x="394" y="1054" on="0"/>
        <pt x="429" y="1050" on="0"/>
        <pt x="461" y="1041" on="0"/>
        <pt x="493" y="1028" on="0"/>
        <pt x="512" y="1018" on="1"/>
        <pt x="638" y="1178" on="1"/>
      </contour>
      <contour>
        <pt x="472" y="696" on="1"/>
        <pt x="472" y="724" on="0"/>
        <pt x="459" y="791" on="0"/>
        <pt x="429" y="848" on="0"/>
        <pt x="381" y="886" on="0"/>
        <pt x="346" y="886" on="1"/>
        <pt x="305" y="886" on="0"/>
        <pt x="257" y="853" on="0"/>
        <pt x="232" y="800" on="0"/>
        <pt x="224" y="734" on="0"/>
        <pt x="224" y="702" on="1"/>
        <pt x="224" y="675" on="0"/>
        <pt x="235" y="601" on="0"/>
        <pt x="262" y="533" on="0"/>
        <pt x="309" y="486" on="0"/>
        <pt x="346" y="486" on="1"/>
        <pt x="381" y="486" on="0"/>
        <pt x="429" y="531" on="0"/>
        <pt x="459" y="596" on="0"/>
        <pt x="472" y="668" on="0"/>
      </contour>
      <contour>
        <pt x="540" y="-98" on="1"/>
        <pt x="540" y="-63" on="0"/>
        <pt x="502" y="-15" on="0"/>
        <pt x="445" y="15" on="0"/>
        <pt x="378" y="28" on="0"/>
        <pt x="350" y="28" on="1"/>
        <pt x="284" y="28" on="0"/>
        <pt x="218" y="-55" on="0"/>
        <pt x="218" y="-118" on="1"/>
        <pt x="218" y="-150" on="0"/>
        <pt x="250" y="-194" on="0"/>
        <pt x="298" y="-221" on="0"/>
        <pt x="357" y="-234" on="0"/>
        <pt x="384" y="-234" on="1"/>
        <pt x="412" y="-234" on="0"/>
        <pt x="468" y="-215" on="0"/>
        <pt x="513" y="-179" on="0"/>
        <pt x="540" y="-129" on="0"/>
      </contour>
    </TTGlyph>
    <TTGlyph name="gbreve" xMin="46" yMin="-406" xMax="760" yMax="1360">
      <component glyphName="g" x="0" y="0" flags="0x204"/>
      <component glyphName="breve" x="106" y="-52" flags="0x4"/>
    </TTGlyph>
    <TTGlyph name="gcircumflex" xMin="46" yMin="-406" xMax="760" yMax="1384">
      <component glyphName="g" x="0" y="0" flags="0x204"/>
      <component glyphName="circumflex" x="111" y="-30" flags="0x4"/>
    </TTGlyph>
    <TTGlyph name="gcommaaccent" xMin="46" yMin="-406" xMax="760" yMax="1407">
      <component glyphName="g" x="0" y="0" flags="0x204"/>
      <component glyphName="uni0312" x="212" y="39" flags="0x4"/>
    </TTGlyph>
    <TTGlyph name="gdotaccent" xMin="46" yMin="-406" xMax="760" yMax="1317">
      <component glyphName="g" x="0" y="0" flags="0x204"/>
      <component glyphName="dotaccent" x="259" y="-29" flags="0x4"/>
    </TTGlyph>
    <TTGlyph name="germandbls" xMin="39" yMin="-24" xMax="1057" yMax="1488">
      <contour>
        <pt x="775" y="1172" on="1"/>
        <pt x="775" y="1197" on="0"/>
        <pt x="747" y="1246" on="0"/>
        <pt x="701" y="1285" on="0"/>
        <pt x="642" y="1308" on="0"/>
        <pt x="611" y="1308" on="1"/>
        <pt x="533" y="1308" on="0"/>
        <pt x="438" y="1274" on="0"/>
        <pt x="385" y="1205" on="0"/>
        <pt x="365" y="1097" on="0"/>
        <pt x="363" y="1024" on="1"/>
        <pt x="358" y="939" on="0"/>
        <pt x="363" y="769" on="0"/>
        <pt x="361" y="684" on="1"/>
        <pt x="361" y="4" on="1"/>
        <pt x="53" y="4" on="1"/>
        <pt x="53" y="180" on="1"/>
        <pt x="185" y="184" on="1"/>
        <pt x="185" y="848" on="1"/>
        <pt x="39" y="848" on="1"/>
        <pt x="43" y="1024" on="1"/>
        <pt x="183" y="1024" on="1"/>
        <pt x="184" y="1133" on="0"/>
        <pt x="223" y="1306" on="0"/>
        <pt x="317" y="1425" on="0"/>
        <pt x="474" y="1488" on="0"/>
        <pt x="593" y="1488" on="1"/>
        <pt x="663" y="1488" on="0"/>
        <pt x="791" y="1447" on="0"/>
        <pt x="888" y="1368" on="0"/>
        <pt x="945" y="1252" on="0"/>
        <pt x="945" y="1176" on="1"/>
        <pt x="945" y="1098" on="0"/>
        <pt x="904" y="1005" on="0"/>
        <pt x="843" y="948" on="0"/>
        <pt x="771" y="913" on="0"/>
        <pt x="710" y="876" on="0"/>
        <pt x="669" y="821" on="0"/>
        <pt x="669" y="772" on="1"/>
        <pt x="669" y="728" on="0"/>
        <pt x="706" y="660" on="0"/>
        <pt x="764" y="606" on="0"/>
        <pt x="835" y="564" on="0"/>
        <pt x="869" y="546" on="1"/>
        <pt x="920" y="517" on="0"/>
        <pt x="991" y="456" on="0"/>
        <pt x="1036" y="382" on="0"/>
        <pt x="1057" y="290" on="0"/>
        <pt x="1057" y="232" on="1"/>
        <pt x="1057" y="176" on="0"/>
        <pt x="1014" y="83" on="0"/>
        <pt x="940" y="14" on="0"/>
        <pt x="843" y="-24" on="0"/>
        <pt x="789" y="-24" on="1"/>
        <pt x="739" y="-24" on="0"/>
        <pt x="657" y="30" on="0"/>
        <pt x="627" y="66" on="1"/>
        <pt x="605" y="-20" on="1"/>
        <pt x="479" y="-10" on="1"/>
        <pt x="489" y="322" on="1"/>
        <pt x="681" y="320" on="1"/>
        <pt x="679" y="308" on="0"/>
        <pt x="677" y="282" on="0"/>
        <pt x="677" y="270" on="1"/>
        <pt x="677" y="246" on="0"/>
        <pt x="689" y="201" on="0"/>
        <pt x="713" y="165" on="0"/>
        <pt x="752" y="144" on="0"/>
        <pt x="779" y="144" on="1"/>
        <pt x="798" y="144" on="0"/>
        <pt x="831" y="163" on="0"/>
        <pt x="854" y="193" on="0"/>
        <pt x="867" y="229" on="0"/>
        <pt x="867" y="246" on="1"/>
        <pt x="867" y="289" on="0"/>
        <pt x="827" y="357" on="0"/>
        <pt x="767" y="410" on="0"/>
        <pt x="695" y="452" on="0"/>
        <pt x="663" y="470" on="1"/>
        <pt x="610" y="499" on="0"/>
        <pt x="539" y="560" on="0"/>
        <pt x="497" y="634" on="0"/>
        <pt x="479" y="726" on="0"/>
        <pt x="479" y="786" on="1"/>
        <pt x="479" y="850" on="0"/>
        <pt x="523" y="931" on="0"/>
        <pt x="589" y="987" on="0"/>
        <pt x="665" y="1025" on="0"/>
        <pt x="731" y="1069" on="0"/>
        <pt x="775" y="1126" on="0"/>
      </contour>
    </TTGlyph>
    <TTGlyph name="grave" xMin="0" yMin="1112" xMax="316" yMax="1394">
      <contour>
        <pt x="316" y="1142" on="1"/>
        <pt x="224" y="1112" on="1"/>
        <pt x="0" y="1344" on="1"/>
        <pt x="186" y="1394" on="1"/>
      </contour>
    </TTGlyph>
    <TTGlyph name="greater" xMin="80" yMin="190" xMax="1000" yMax="1274">
      <contour>
        <pt x="1000" y="804" on="1"/>
        <pt x="982" y="632" on="1"/>
        <pt x="172" y="190" on="1"/>
        <pt x="80" y="364" on="1"/>
        <pt x="786" y="726" on="1"/>
        <pt x="80" y="1100" on="1"/>
        <pt x="172" y="1274" on="1"/>
      </contour>
    </TTGlyph>
    <TTGlyph name="guillemotleft" xMin="12" yMin="102" xMax="1190" yMax="884">
      <contour>
        <pt x="650" y="262" on="1"/>
        <pt x="582" y="102" on="1"/>
        <pt x="24" y="420" on="1"/>
        <pt x="12" y="548" on="1"/>
        <pt x="582" y="884" on="1"/>
        <pt x="650" y="724" on="1"/>
        <pt x="196" y="488" on="1"/>
      </contour>
      <contour>
        <pt x="1190" y="262" on="1"/>
        <pt x="1122" y="102" on="1"/>
        <pt x="564" y="420" on="1"/>
        <pt x="552" y="548" on="1"/>
        <pt x="1122" y="884" on="1"/>
        <pt x="1190" y="724" on="1"/>
        <pt x="736" y="488" on="1"/>
      </contour>
    </TTGlyph>
    <TTGlyph name="guillemotright" xMin="54" yMin="102" xMax="1212" yMax="884">
      <contour>
        <pt x="692" y="548" on="1"/>
        <pt x="680" y="420" on="1"/>
        <pt x="122" y="102" on="1"/>
        <pt x="54" y="262" on="1"/>
        <pt x="508" y="488" on="1"/>
        <pt x="54" y="724" on="1"/>
        <pt x="122" y="884" on="1"/>
      </contour>
      <contour>
        <pt x="1212" y="548" on="1"/>
        <pt x="1200" y="420" on="1"/>
        <pt x="642" y="102" on="1"/>
        <pt x="574" y="262" on="1"/>
        <pt x="1028" y="488" on="1"/>
        <pt x="574" y="724" on="1"/>
        <pt x="642" y="884" on="1"/>
      </contour>
    </TTGlyph>
    <TTGlyph name="guilsinglleft" xMin="12" yMin="102" xMax="650" yMax="884">
      <contour>
        <pt x="650" y="262" on="1"/>
        <pt x="582" y="102" on="1"/>
        <pt x="24" y="420" on="1"/>
        <pt x="12" y="548" on="1"/>
        <pt x="582" y="884" on="1"/>
        <pt x="650" y="724" on="1"/>
        <pt x="196" y="488" on="1"/>
      </contour>
    </TTGlyph>
    <TTGlyph name="guilsinglright" xMin="54" yMin="102" xMax="692" yMax="884">
      <contour>
        <pt x="692" y="548" on="1"/>
        <pt x="680" y="420" on="1"/>
        <pt x="122" y="102" on="1"/>
        <pt x="54" y="262" on="1"/>
        <pt x="508" y="488" on="1"/>
        <pt x="54" y="724" on="1"/>
        <pt x="122" y="884" on="1"/>
      </contour>
    </TTGlyph>
    <TTGlyph name="h" xMin="-26" yMin="-26" xMax="812" yMax="1478">
      <contour>
        <pt x="812" y="136" on="1"/>
        <pt x="792" y="-26" on="1"/>
        <pt x="456" y="-10" on="1"/>
        <pt x="452" y="150" on="1"/>
        <pt x="540" y="160" on="1"/>
        <pt x="543" y="299" on="0"/>
        <pt x="548" y="573" on="0"/>
        <pt x="548" y="712" on="1"/>
        <pt x="548" y="737" on="0"/>
        <pt x="539" y="789" on="0"/>
        <pt x="517" y="832" on="0"/>
        <pt x="478" y="860" on="0"/>
        <pt x="448" y="860" on="1"/>
        <pt x="418" y="860" on="0"/>
        <pt x="371" y="831" on="0"/>
        <pt x="336" y="785" on="0"/>
        <pt x="311" y="725" on="0"/>
        <pt x="295" y="663" on="0"/>
        <pt x="287" y="604" on="0"/>
        <pt x="286" y="582" on="1"/>
        <pt x="281" y="476" on="0"/>
        <pt x="278" y="266" on="0"/>
        <pt x="276" y="160" on="1"/>
        <pt x="364" y="160" on="1"/>
        <pt x="374" y="-2" on="1"/>
        <pt x="28" y="-6" on="1"/>
        <pt x="28" y="180" on="1"/>
        <pt x="126" y="184" on="1"/>
        <pt x="120" y="1288" on="1"/>
        <pt x="-26" y="1298" on="1"/>
        <pt x="-22" y="1468" on="1"/>
        <pt x="288" y="1478" on="1"/>
        <pt x="294" y="910" on="1"/>
        <pt x="311" y="939" on="0"/>
        <pt x="361" y="989" on="0"/>
        <pt x="421" y="1025" on="0"/>
        <pt x="489" y="1046" on="0"/>
        <pt x="524" y="1046" on="1"/>
        <pt x="569" y="1046" on="0"/>
        <pt x="633" y="1015" on="0"/>
        <pt x="677" y="964" on="0"/>
        <pt x="702" y="895" on="0"/>
        <pt x="716" y="820" on="0"/>
        <pt x="720" y="743" on="0"/>
        <pt x="720" y="708" on="1"/>
        <pt x="720" y="566" on="0"/>
        <pt x="713" y="286" on="0"/>
        <pt x="710" y="144" on="1"/>
      </contour>
    </TTGlyph>
</ttFont>
